<svg width="24" height="24" viewBox="0 0 24 24" fill="none" xmlns="http://www.w3.org/2000/svg">
<path d="M16.017 2H7.947C6.37015 2.00185 4.85844 2.62914 3.74353 3.74424C2.62862 4.85933 2.00159 6.37115 2 7.948L2 16.018C2.00185 17.5948 2.62914 19.1066 3.74424 20.2215C4.85933 21.3364 6.37115 21.9634 7.948 21.965H16.018C17.5948 21.9631 19.1066 21.3359 20.2215 20.2208C21.3364 19.1057 21.9634 17.5938 21.965 16.017V7.947C21.9631 6.37015 21.3359 4.85844 20.2208 3.74353C19.1057 2.62862 17.5938 2.00159 16.017 2V2ZM19.957 16.017C19.957 16.5344 19.8551 17.0468 19.6571 17.5248C19.4591 18.0028 19.1689 18.4371 18.803 18.803C18.4371 19.1689 18.0028 19.4591 17.5248 19.6571C17.0468 19.8551 16.5344 19.957 16.017 19.957H7.947C6.90222 19.9567 5.90032 19.5415 5.16165 18.8026C4.42297 18.0638 4.008 17.0618 4.008 16.017V7.947C4.00827 6.90222 4.42349 5.90032 5.16235 5.16165C5.90122 4.42297 6.90322 4.008 7.948 4.008H16.018C17.0628 4.00827 18.0647 4.42349 18.8034 5.16235C19.542 5.90122 19.957 6.90322 19.957 7.948V16.018V16.017Z" fill="white"/>
<path d="M11.982 6.81885C10.6134 6.82096 9.30154 7.36563 8.33391 8.33345C7.36627 9.30127 6.82186 10.6133 6.82001 11.9818C6.82159 13.3508 7.36603 14.6632 8.33391 15.6312C9.30179 16.5993 10.6141 17.144 11.983 17.1458C13.3521 17.1443 14.6647 16.5997 15.6328 15.6316C16.6008 14.6635 17.1454 13.3509 17.147 11.9818C17.1449 10.6129 16.5999 9.30073 15.6317 8.33304C14.6634 7.36535 13.3509 6.82117 11.982 6.81985V6.81885ZM11.982 15.1378C11.1452 15.1378 10.3428 14.8054 9.75109 14.2138C9.15941 13.6221 8.82701 12.8196 8.82701 11.9828C8.82701 11.1461 9.15941 10.3436 9.75109 9.75193C10.3428 9.16025 11.1452 8.82785 11.982 8.82785C12.8188 8.82785 13.6213 9.16025 14.2129 9.75193C14.8046 10.3436 15.137 11.1461 15.137 11.9828C15.137 12.8196 14.8046 13.6221 14.2129 14.2138C13.6213 14.8054 12.8188 15.1378 11.982 15.1378Z" fill="white"/>
<path d="M17.156 8.09509C17.8392 8.09509 18.393 7.54127 18.393 6.85809C18.393 6.17492 17.8392 5.62109 17.156 5.62109C16.4728 5.62109 15.919 6.17492 15.919 6.85809C15.919 7.54127 16.4728 8.09509 17.156 8.09509Z" fill="white"/>
</svg>
