<svg width="24" height="24" viewBox="0 0 24 24" fill="none" xmlns="http://www.w3.org/2000/svg">
<path d="M15.644 11.404C15.656 9.91197 14.425 8.54396 12.9 8.35496L12.8 8.33996C12.7235 8.32478 12.6459 8.31608 12.568 8.31396C12.255 8.31396 12.172 8.53996 12.15 8.67496C12.1375 8.73103 12.1364 8.78903 12.1467 8.84554C12.157 8.90204 12.1785 8.95591 12.21 9.00396C12.314 9.14896 12.496 9.17396 12.642 9.19596C12.685 9.20196 12.726 9.20696 12.759 9.21596C14.13 9.53096 14.592 10.028 14.817 11.431C14.823 11.466 14.825 11.508 14.827 11.553C14.837 11.72 14.858 12.069 15.222 12.069C15.252 12.069 15.284 12.067 15.318 12.061C15.657 12.008 15.646 11.689 15.641 11.536C15.639 11.493 15.638 11.452 15.641 11.425C15.6421 11.4183 15.6428 11.4117 15.643 11.405L15.644 11.404Z" fill="white"/>
<path d="M12.48 7.80689C12.52 7.80989 12.56 7.81289 12.591 7.81789C14.841 8.17589 15.877 9.27589 16.164 11.6179C16.169 11.6579 16.169 11.7059 16.17 11.7579C16.173 11.9409 16.179 12.3209 16.575 12.3289H16.587C16.6414 12.3318 16.6957 12.323 16.7464 12.3032C16.7971 12.2833 16.843 12.2529 16.881 12.2139C17.004 12.0809 16.996 11.8839 16.989 11.7239C16.987 11.6859 16.985 11.6489 16.986 11.6169C17.014 9.22189 15.006 7.04989 12.688 6.96989L12.66 6.97089C12.6511 6.97221 12.642 6.97287 12.633 6.97289C12.61 6.97289 12.581 6.97089 12.551 6.96889C12.515 6.96589 12.473 6.96289 12.431 6.96289C12.062 6.96289 11.992 7.23289 11.983 7.39489C11.963 7.76789 12.312 7.79489 12.48 7.80689ZM16.055 14.6439C16.0069 14.6062 15.9592 14.5678 15.912 14.5289C15.666 14.3249 15.404 14.1369 15.152 13.9549C15.0993 13.917 15.0466 13.879 14.994 13.8409C14.67 13.6069 14.379 13.4919 14.104 13.4919C13.734 13.4919 13.411 13.7039 13.144 14.1209C13.026 14.3049 12.882 14.3949 12.706 14.3949C12.5831 14.3905 12.4627 14.3595 12.353 14.3039C11.308 13.8139 10.561 13.0639 10.134 12.0739C9.92801 11.5939 9.99401 11.2819 10.358 11.0269C10.564 10.8829 10.948 10.6139 10.921 10.0989C10.891 9.51389 9.64001 7.75389 9.11301 7.55389C8.8882 7.46905 8.6403 7.46834 8.41501 7.55189C7.81001 7.76189 7.37501 8.13189 7.15801 8.61889C6.94801 9.09089 6.95801 9.64389 7.18601 10.2199C7.84301 11.8859 8.76601 13.3379 9.93201 14.5359C11.072 15.7089 12.474 16.6689 14.098 17.3909C14.244 17.4559 14.398 17.4909 14.51 17.5169L14.605 17.5409C14.618 17.5446 14.6315 17.5466 14.645 17.5469H14.658C15.422 17.5469 16.339 16.8269 16.621 16.0049C16.868 15.2849 16.417 14.9299 16.055 14.6449V14.6439ZM12.818 9.70989C12.688 9.71289 12.415 9.71989 12.319 10.0059C12.275 10.1399 12.28 10.2559 12.335 10.3509C12.416 10.4909 12.572 10.5339 12.713 10.5569C13.225 10.6419 13.489 10.9349 13.541 11.4769C13.566 11.7309 13.731 11.9069 13.943 11.9069C13.959 11.9072 13.9751 11.9066 13.991 11.9049C14.246 11.8729 14.369 11.6799 14.358 11.3299C14.362 10.9639 14.177 10.5499 13.862 10.2199C13.546 9.88789 13.165 9.70089 12.818 9.70989Z" fill="white"/>
<path d="M6 4C5.46957 4 4.96086 4.21071 4.58579 4.58579C4.21071 4.96086 4 5.46957 4 6V18C4 18.5304 4.21071 19.0391 4.58579 19.4142C4.96086 19.7893 5.46957 20 6 20H18C18.5304 20 19.0391 19.7893 19.4142 19.4142C19.7893 19.0391 20 18.5304 20 18V6C20 5.46957 19.7893 4.96086 19.4142 4.58579C19.0391 4.21071 18.5304 4 18 4H6ZM6 2H18C19.0609 2 20.0783 2.42143 20.8284 3.17157C21.5786 3.92172 22 4.93913 22 6V18C22 19.0609 21.5786 20.0783 20.8284 20.8284C20.0783 21.5786 19.0609 22 18 22H6C4.93913 22 3.92172 21.5786 3.17157 20.8284C2.42143 20.0783 2 19.0609 2 18V6C2 4.93913 2.42143 3.92172 3.17157 3.17157C3.92172 2.42143 4.93913 2 6 2V2Z" fill="white"/>
</svg>
