<svg width="1440" height="656" viewBox="0 0 1440 656" fill="none" xmlns="http://www.w3.org/2000/svg">
<g opacity="0.1">
<mask id="mask0_211:2875" style="mask-type:alpha" maskUnits="userSpaceOnUse" x="0" y="0" width="1440" height="656">
<rect width="1440" height="656" fill="#4C7169"/>
</mask>
<g mask="url(#mask0_211:2875)">
<path d="M10.1592 619.278C10.1592 616.81 8.16576 614.816 5.69767 614.816C3.22958 614.816 1.23604 616.81 1.23604 619.278C1.23604 621.746 3.22958 623.74 5.69767 623.74C8.16576 623.74 10.1592 621.746 10.1592 619.278Z" fill="#231F20"/>
<path d="M57.053 619.278C57.053 617.949 56.0088 617 54.7747 617C53.4457 617 52.4964 618.044 52.4964 619.278C52.4964 620.512 53.5407 621.556 54.7747 621.556C56.0088 621.556 57.053 620.512 57.053 619.278Z" fill="#231F20"/>
<path d="M108.978 619.278C108.978 616.335 106.605 614.057 103.757 614.057C100.814 614.057 98.536 616.43 98.536 619.278C98.536 622.221 100.909 624.499 103.757 624.499C106.7 624.499 108.978 622.126 108.978 619.278Z" fill="#231F20"/>
<path d="M160.523 619.278C160.523 615.006 157.011 611.494 152.739 611.494C148.467 611.494 144.955 615.006 144.955 619.278C144.955 623.55 148.467 627.062 152.739 627.062C157.106 627.062 160.523 623.55 160.523 619.278Z" fill="#231F20"/>
<path d="M204.094 619.278C204.094 618.044 203.05 617 201.816 617C200.582 617 199.538 618.044 199.538 619.278C199.538 620.512 200.582 621.556 201.816 621.556C203.05 621.556 204.094 620.512 204.094 619.278Z" fill="#231F20"/>
<path d="M260.101 619.278C260.101 614.152 255.924 609.975 250.798 609.975C245.672 609.975 241.496 614.152 241.496 619.278C241.496 624.404 245.672 628.581 250.798 628.581C255.924 628.486 260.101 624.404 260.101 619.278Z" fill="#231F20"/>
<path d="M304.337 619.278C304.337 616.81 302.344 614.722 299.781 614.722C297.312 614.722 295.224 616.715 295.224 619.278C295.224 621.746 297.217 623.835 299.781 623.835C302.344 623.74 304.337 621.746 304.337 619.278Z" fill="#231F20"/>
<path d="M351.041 619.278C351.041 618.044 350.092 617.095 348.858 617.095C347.624 617.095 346.674 618.044 346.674 619.278C346.674 620.512 347.624 621.461 348.858 621.461C349.997 621.461 351.041 620.417 351.041 619.278Z" fill="#231F20"/>
<path d="M406.668 619.278C406.668 614.437 402.776 610.545 397.935 610.545C393.094 610.545 389.202 614.437 389.202 619.278C389.202 624.119 393.094 628.011 397.935 628.011C402.681 628.011 406.668 624.119 406.668 619.278Z" fill="#231F20"/>
<path d="M450.904 619.278C450.904 617 449.1 615.196 446.822 615.196C444.544 615.196 442.74 617 442.74 619.278C442.74 621.556 444.544 623.36 446.822 623.36C449.1 623.265 450.904 621.461 450.904 619.278Z" fill="#231F20"/>
<path d="M497.038 619.278C497.038 618.708 496.564 618.139 495.899 618.139C495.33 618.139 494.76 618.614 494.76 619.278C494.76 619.848 495.235 620.417 495.899 620.417C496.469 620.417 497.038 619.848 497.038 619.278Z" fill="#231F20"/>
<path d="M548.489 619.278C548.489 617.285 546.875 615.671 544.881 615.671C542.888 615.671 541.274 617.285 541.274 619.278C541.274 621.272 542.888 622.885 544.881 622.885C546.875 622.885 548.489 621.272 548.489 619.278Z" fill="#231F20"/>
<path d="M595.287 619.278C595.287 618.519 594.718 617.949 593.958 617.949C593.199 617.949 592.629 618.519 592.629 619.278C592.629 620.037 593.199 620.607 593.958 620.607C594.718 620.607 595.287 620.037 595.287 619.278Z" fill="#231F20"/>
<path d="M648.826 619.278C648.826 616.051 646.168 613.393 642.941 613.393C639.713 613.393 637.055 616.051 637.055 619.278C637.055 622.506 639.713 625.164 642.941 625.164C646.168 625.164 648.826 622.506 648.826 619.278Z" fill="#231F20"/>
<path d="M693.537 619.278C693.537 618.424 692.777 617.664 691.923 617.664C691.069 617.664 690.309 618.424 690.309 619.278C690.309 620.132 691.069 620.892 691.923 620.892C692.872 620.892 693.537 620.132 693.537 619.278Z" fill="#231F20"/>
<path d="M749.543 619.278C749.543 614.532 745.746 610.735 741 610.735C736.254 610.735 732.457 614.532 732.457 619.278C732.457 624.024 736.254 627.821 741 627.821C745.746 627.821 749.543 624.024 749.543 619.278Z" fill="#231F20"/>
<path d="M795.963 619.278C795.963 615.956 793.305 613.298 789.982 613.298C786.66 613.298 784.002 615.956 784.002 619.278C784.002 622.601 786.66 625.259 789.982 625.259C793.305 625.164 795.963 622.506 795.963 619.278Z" fill="#231F20"/>
<path d="M842.761 619.278C842.761 617.19 841.053 615.481 838.964 615.481C836.876 615.481 835.167 617.19 835.167 619.278C835.167 621.366 836.876 623.075 838.964 623.075C841.053 623.075 842.761 621.366 842.761 619.278Z" fill="#231F20"/>
<path d="M895.066 619.278C895.066 615.386 891.934 612.253 888.042 612.253C884.15 612.253 881.017 615.386 881.017 619.278C881.017 623.17 884.15 626.303 888.042 626.303C891.839 626.303 895.066 623.17 895.066 619.278Z" fill="#231F20"/>
<path d="M939.682 619.278C939.682 617.854 938.543 616.62 937.024 616.62C935.6 616.62 934.366 617.759 934.366 619.278C934.366 620.702 935.505 621.936 937.024 621.936C938.448 621.936 939.682 620.702 939.682 619.278Z" fill="#231F20"/>
<path d="M992.841 619.278C992.841 615.481 989.803 612.443 986.006 612.443C982.209 612.443 979.171 615.481 979.171 619.278C979.171 623.075 982.209 626.113 986.006 626.113C989.803 626.113 992.841 623.075 992.841 619.278Z" fill="#231F20"/>
<path d="M1039.92 619.278C1039.92 616.62 1037.74 614.437 1035.08 614.437C1032.43 614.437 1030.24 616.62 1030.24 619.278C1030.24 621.936 1032.43 624.119 1035.08 624.119C1037.74 624.119 1039.92 621.936 1039.92 619.278Z" fill="#231F20"/>
<path d="M1093.08 619.278C1093.08 614.342 1089 610.26 1084.07 610.26C1079.03 610.26 1075.05 614.342 1075.05 619.278C1075.05 624.214 1079.03 628.296 1084.07 628.296C1089.1 628.296 1093.08 624.214 1093.08 619.278Z" fill="#231F20"/>
<path d="M1136.37 619.278C1136.37 617.475 1134.85 615.956 1133.05 615.956C1131.24 615.956 1129.72 617.475 1129.72 619.278C1129.72 621.082 1131.24 622.601 1133.05 622.601C1134.95 622.601 1136.37 621.082 1136.37 619.278Z" fill="#231F20"/>
<path d="M1191.05 619.278C1191.05 614.342 1187.06 610.355 1182.12 610.355C1177.19 610.355 1173.2 614.342 1173.2 619.278C1173.2 624.214 1177.19 628.201 1182.12 628.201C1187.06 628.201 1191.05 624.214 1191.05 619.278Z" fill="#231F20"/>
<path d="M1238.13 619.278C1238.13 615.386 1235 612.253 1231.11 612.253C1227.21 612.253 1224.08 615.386 1224.08 619.278C1224.08 623.17 1227.21 626.303 1231.11 626.303C1235 626.303 1238.13 623.17 1238.13 619.278Z" fill="#231F20"/>
<path d="M1285.12 619.278C1285.12 616.525 1282.84 614.247 1280.09 614.247C1277.34 614.247 1275.06 616.525 1275.06 619.278C1275.06 622.031 1277.34 624.309 1280.09 624.309C1282.94 624.309 1285.12 622.031 1285.12 619.278Z" fill="#231F20"/>
<path d="M1330.12 619.278C1330.12 618.709 1329.64 618.329 1329.17 618.329C1328.6 618.329 1328.22 618.803 1328.22 619.278C1328.22 619.848 1328.69 620.227 1329.17 620.227C1329.64 620.227 1330.12 619.753 1330.12 619.278Z" fill="#231F20"/>
<path d="M1385.17 619.278C1385.17 615.386 1382.04 612.253 1378.15 612.253C1374.26 612.253 1371.12 615.386 1371.12 619.278C1371.12 623.17 1374.26 626.303 1378.15 626.303C1382.04 626.303 1385.17 623.17 1385.17 619.278Z" fill="#231F20"/>
<path d="M1432.16 619.278C1432.16 616.525 1429.88 614.247 1427.13 614.247C1424.38 614.247 1422.1 616.525 1422.1 619.278C1422.1 622.031 1424.38 624.309 1427.13 624.309C1429.98 624.309 1432.16 622.031 1432.16 619.278Z" fill="#231F20"/>
<path d="M10.1592 559.664C10.1592 557.196 8.16574 555.297 5.79257 555.297C3.32448 555.297 1.42597 557.291 1.42597 559.664C1.42597 562.132 3.41941 564.031 5.79257 564.031C8.16574 564.126 10.1592 562.132 10.1592 559.664Z" fill="#231F20"/>
<path d="M62.1791 559.664C62.1791 555.582 58.8566 552.26 54.7747 552.26C50.6929 552.26 47.3705 555.582 47.3705 559.664C47.3705 563.746 50.6929 567.068 54.7747 567.068C58.8566 567.163 62.1791 563.841 62.1791 559.664Z" fill="#231F20"/>
<path d="M109.263 559.664C109.263 556.627 106.795 554.158 103.757 554.158C100.719 554.158 98.2512 556.627 98.2512 559.664C98.2512 562.702 100.719 565.17 103.757 565.17C106.795 565.17 109.263 562.702 109.263 559.664Z" fill="#231F20"/>
<path d="M155.492 559.664C155.492 558.145 154.258 557.006 152.834 557.006C151.41 557.006 150.176 558.24 150.176 559.664C150.176 561.088 151.41 562.322 152.834 562.322C154.258 562.322 155.492 561.183 155.492 559.664Z" fill="#231F20"/>
<path d="M204.284 559.664C204.284 558.24 203.145 557.196 201.816 557.196C200.392 557.196 199.348 558.335 199.348 559.664C199.348 561.088 200.487 562.132 201.816 562.132C203.24 562.227 204.284 561.088 204.284 559.664Z" fill="#231F20"/>
<path d="M257.064 559.664C257.064 556.152 254.216 553.399 250.798 553.399C247.381 553.399 244.533 556.247 244.533 559.664C244.533 563.081 247.381 565.929 250.798 565.929C254.311 565.929 257.064 563.176 257.064 559.664Z" fill="#231F20"/>
<path d="M304.147 559.664C304.147 557.291 302.154 555.297 299.781 555.297C297.407 555.297 295.414 557.291 295.414 559.664C295.414 562.037 297.407 564.031 299.781 564.031C302.249 564.031 304.147 562.132 304.147 559.664Z" fill="#231F20"/>
<path d="M357.971 559.664C357.971 554.633 353.889 550.551 348.858 550.551C343.827 550.551 339.745 554.633 339.745 559.664C339.745 564.695 343.827 568.777 348.858 568.777C353.889 568.777 357.971 564.695 357.971 559.664Z" fill="#231F20"/>
<path d="M403.441 559.664C403.441 556.627 400.972 554.158 397.935 554.158C394.897 554.158 392.429 556.627 392.429 559.664C392.429 562.702 394.897 565.17 397.935 565.17C400.972 565.265 403.441 562.797 403.441 559.664Z" fill="#231F20"/>
<path d="M448.056 559.664C448.056 559 447.487 558.43 446.822 558.43C446.158 558.43 445.588 559 445.588 559.664C445.588 560.329 446.158 560.898 446.822 560.898C447.581 560.898 448.056 560.329 448.056 559.664Z" fill="#231F20"/>
<path d="M505.012 559.664C505.012 554.633 500.93 550.551 495.899 550.551C490.868 550.551 486.786 554.633 486.786 559.664C486.786 564.695 490.868 568.777 495.899 568.777C500.93 568.777 505.012 564.695 505.012 559.664Z" fill="#231F20"/>
<path d="M548.584 559.664C548.584 557.576 546.97 555.962 544.881 555.962C542.793 555.962 541.179 557.576 541.179 559.664C541.179 561.752 542.793 563.366 544.881 563.366C546.97 563.366 548.584 561.752 548.584 559.664Z" fill="#231F20"/>
<path d="M599.559 559.664C599.559 556.532 596.996 553.969 593.864 553.969C590.731 553.969 588.168 556.532 588.168 559.664C588.168 562.797 590.731 565.36 593.864 565.36C597.091 565.36 599.559 562.797 599.559 559.664Z" fill="#231F20"/>
<path d="M644.934 559.664C644.934 558.525 643.985 557.671 642.941 557.671C641.802 557.671 640.947 558.62 640.947 559.664C640.947 560.803 641.897 561.658 642.941 561.658C644.08 561.752 644.934 560.803 644.934 559.664Z" fill="#231F20"/>
<path d="M695.15 559.664C695.15 557.955 693.727 556.531 692.018 556.531C690.309 556.531 688.885 557.955 688.885 559.664C688.885 561.373 690.309 562.797 692.018 562.797C693.727 562.892 695.15 561.468 695.15 559.664Z" fill="#231F20"/>
<path d="M749.923 559.664C749.923 554.728 745.936 550.646 740.905 550.646C735.969 550.646 731.887 554.633 731.887 559.664C731.887 564.6 735.874 568.682 740.905 568.682C745.936 568.682 749.923 564.6 749.923 559.664Z" fill="#231F20"/>
<path d="M792.735 559.664C792.735 558.145 791.501 556.911 789.982 556.911C788.463 556.911 787.229 558.145 787.229 559.664C787.229 561.183 788.463 562.417 789.982 562.417C791.501 562.417 792.735 561.183 792.735 559.664Z" fill="#231F20"/>
<path d="M847.887 559.664C847.887 554.728 843.901 550.741 838.964 550.741C834.028 550.741 830.136 554.728 830.136 559.664C830.136 564.6 834.123 568.587 838.964 568.587C843.901 568.587 847.887 564.6 847.887 559.664Z" fill="#231F20"/>
<path d="M893.927 559.664C893.927 556.437 891.269 553.779 888.042 553.779C884.814 553.779 882.156 556.437 882.156 559.664C882.156 562.892 884.814 565.55 888.042 565.55C891.269 565.645 893.927 562.987 893.927 559.664Z" fill="#231F20"/>
<path d="M940.821 559.664C940.821 557.576 939.112 555.867 937.024 555.867C934.935 555.867 933.227 557.576 933.227 559.664C933.227 561.753 934.935 563.461 937.024 563.461C939.112 563.461 940.821 561.753 940.821 559.664Z" fill="#231F20"/>
<path d="M993.885 559.664C993.885 555.392 990.372 551.88 986.101 551.88C981.829 551.88 978.317 555.392 978.317 559.664C978.317 563.936 981.829 567.448 986.101 567.448C990.372 567.448 993.885 564.031 993.885 559.664Z" fill="#231F20"/>
<path d="M1038.79 559.664C1038.79 557.671 1037.17 555.962 1035.08 555.962C1033.09 555.962 1031.38 557.576 1031.38 559.664C1031.38 561.658 1032.99 563.366 1035.08 563.366C1037.08 563.366 1038.79 561.752 1038.79 559.664Z" fill="#231F20"/>
<path d="M1088.34 559.664C1088.34 557.291 1086.44 555.393 1084.07 555.393C1081.69 555.393 1079.79 557.291 1079.79 559.664C1079.79 562.037 1081.69 563.936 1084.07 563.936C1086.44 563.936 1088.34 562.037 1088.34 559.664Z" fill="#231F20"/>
<path d="M1139.79 559.664C1139.79 555.962 1136.75 552.924 1133.05 552.924C1129.35 552.924 1126.31 555.962 1126.31 559.664C1126.31 563.366 1129.35 566.404 1133.05 566.404C1136.75 566.404 1139.79 563.366 1139.79 559.664Z" fill="#231F20"/>
<path d="M1189.34 559.664C1189.34 555.677 1186.11 552.45 1182.12 552.45C1178.14 552.45 1174.91 555.677 1174.91 559.664C1174.91 563.651 1178.14 566.879 1182.12 566.879C1186.11 566.879 1189.34 563.651 1189.34 559.664Z" fill="#231F20"/>
<path d="M1235.66 559.664C1235.66 557.196 1233.67 555.108 1231.11 555.108C1228.64 555.108 1226.55 557.101 1226.55 559.664C1226.55 562.132 1228.64 564.221 1231.11 564.221C1233.57 564.221 1235.66 562.227 1235.66 559.664Z" fill="#231F20"/>
<path d="M1288.54 559.664C1288.54 555.013 1284.74 551.216 1280.09 551.216C1275.44 551.216 1271.64 555.013 1271.64 559.664C1271.64 564.315 1275.44 568.113 1280.09 568.113C1284.74 568.113 1288.54 564.315 1288.54 559.664Z" fill="#231F20"/>
<path d="M1335.62 559.664C1335.62 556.057 1332.68 553.209 1329.17 553.209C1325.56 553.209 1322.71 556.152 1322.71 559.664C1322.71 563.271 1325.65 566.119 1329.17 566.119C1332.77 566.214 1335.62 563.271 1335.62 559.664Z" fill="#231F20"/>
<path d="M1383.56 559.664C1383.56 556.721 1381.19 554.253 1378.15 554.253C1375.21 554.253 1372.74 556.721 1372.74 559.664C1372.74 562.607 1375.21 565.075 1378.15 565.075C1381.19 565.075 1383.56 562.702 1383.56 559.664Z" fill="#231F20"/>
<path d="M1435.1 559.664C1435.1 555.297 1431.59 551.785 1427.23 551.785C1422.86 551.785 1419.35 555.297 1419.35 559.664C1419.35 564.031 1422.86 567.543 1427.23 567.543C1431.5 567.543 1435.1 564.031 1435.1 559.664Z" fill="#231F20"/>
<path d="M7.40625 500.145C7.40625 499.196 6.64688 498.531 5.79254 498.531C4.9382 498.531 4.17883 499.291 4.17883 500.145C4.17883 500.999 4.9382 501.759 5.79254 501.759C6.64688 501.759 7.40625 500.999 7.40625 500.145Z" fill="#231F20"/>
<path d="M63.6979 500.145C63.6979 495.209 59.7109 491.222 54.7747 491.222C49.8386 491.222 45.8516 495.209 45.8516 500.145C45.8516 505.081 49.8386 509.068 54.7747 509.068C59.7109 508.973 63.6979 504.986 63.6979 500.145Z" fill="#231F20"/>
<path d="M108.503 500.145C108.503 497.487 106.415 495.399 103.757 495.399C101.099 495.399 99.0105 497.487 99.0105 500.145C99.0105 502.803 101.099 504.891 103.757 504.891C106.415 504.891 108.503 502.708 108.503 500.145Z" fill="#231F20"/>
<path d="M162.042 500.145C162.042 495.019 157.865 490.842 152.739 490.842C147.613 490.842 143.436 495.019 143.436 500.145C143.436 505.271 147.613 509.448 152.739 509.448C157.96 509.448 162.042 505.271 162.042 500.145Z" fill="#231F20"/>
<path d="M203.145 500.145C203.145 499.386 202.576 498.816 201.816 498.816C201.057 498.816 200.487 499.386 200.487 500.145C200.487 500.905 201.057 501.474 201.816 501.474C202.481 501.379 203.145 500.81 203.145 500.145Z" fill="#231F20"/>
<path d="M254.026 500.145C254.026 498.341 252.602 496.917 250.798 496.917C248.995 496.917 247.571 498.341 247.571 500.145C247.571 501.949 248.995 503.372 250.798 503.372C252.602 503.372 254.026 501.854 254.026 500.145Z" fill="#231F20"/>
<path d="M307.185 500.145C307.185 496.063 303.863 492.836 299.876 492.836C295.794 492.836 292.566 496.158 292.566 500.145C292.566 504.227 295.889 507.454 299.876 507.454C303.863 507.454 307.185 504.132 307.185 500.145Z" fill="#231F20"/>
<path d="M357.021 500.145C357.021 495.589 353.414 491.981 348.858 491.981C344.301 491.981 340.694 495.684 340.694 500.145C340.694 504.702 344.396 508.309 348.858 508.309C353.414 508.309 357.021 504.607 357.021 500.145Z" fill="#231F20"/>
<path d="M403.915 500.145C403.915 496.823 401.162 494.07 397.84 494.07C394.518 494.07 391.765 496.823 391.765 500.145C391.765 503.468 394.518 506.22 397.84 506.22C401.257 506.22 403.915 503.468 403.915 500.145Z" fill="#231F20"/>
<path d="M451.948 500.145C451.948 497.297 449.67 495.019 446.822 495.019C443.974 495.019 441.696 497.297 441.696 500.145C441.696 502.993 443.974 505.271 446.822 505.271C449.67 505.176 451.948 502.898 451.948 500.145Z" fill="#231F20"/>
<path d="M500.361 500.145C500.361 497.677 498.367 495.683 495.899 495.683C493.431 495.683 491.438 497.677 491.438 500.145C491.438 502.613 493.431 504.607 495.899 504.607C498.367 504.607 500.361 502.613 500.361 500.145Z" fill="#231F20"/>
<path d="M549.723 500.145C549.723 497.487 547.539 495.304 544.881 495.304C542.223 495.304 540.04 497.487 540.04 500.145C540.04 502.803 542.223 504.986 544.881 504.986C547.539 504.891 549.723 502.803 549.723 500.145Z" fill="#231F20"/>
<path d="M595.287 500.145C595.287 499.386 594.718 498.816 593.958 498.816C593.199 498.816 592.629 499.386 592.629 500.145C592.629 500.905 593.199 501.474 593.958 501.474C594.623 501.474 595.287 500.905 595.287 500.145Z" fill="#231F20"/>
<path d="M646.643 500.145C646.643 498.057 644.934 496.443 642.941 496.443C640.852 496.443 639.239 498.152 639.239 500.145C639.239 502.233 640.947 503.847 642.941 503.847C645.029 503.847 646.643 502.138 646.643 500.145Z" fill="#231F20"/>
<path d="M700.941 500.145C700.941 495.209 696.954 491.127 691.923 491.127C686.987 491.127 682.905 495.114 682.905 500.145C682.905 505.081 686.892 509.163 691.923 509.163C696.954 509.068 700.941 505.081 700.941 500.145Z" fill="#231F20"/>
<path d="M741.949 500.145C741.949 499.576 741.475 499.196 741 499.196C740.43 499.196 740.051 499.67 740.051 500.145C740.051 500.715 740.525 501.094 741 501.094C741.475 501.094 741.949 500.62 741.949 500.145Z" fill="#231F20"/>
<path d="M799.285 500.145C799.285 495.019 795.108 490.842 789.982 490.842C784.856 490.842 780.679 495.019 780.679 500.145C780.679 505.271 784.856 509.448 789.982 509.448C795.108 509.353 799.285 505.271 799.285 500.145Z" fill="#231F20"/>
<path d="M840.673 500.145C840.673 499.196 839.914 498.531 839.059 498.531C838.11 498.531 837.446 499.291 837.446 500.145C837.446 500.999 838.205 501.759 839.059 501.759C839.914 501.759 840.673 500.999 840.673 500.145Z" fill="#231F20"/>
<path d="M891.744 500.145C891.744 498.057 890.035 496.443 888.042 496.443C885.953 496.443 884.339 498.152 884.339 500.145C884.339 502.233 885.953 503.847 888.042 503.847C890.035 503.847 891.744 502.138 891.744 500.145Z" fill="#231F20"/>
<path d="M939.777 500.145C939.777 498.626 938.543 497.392 937.024 497.392C935.505 497.392 934.271 498.626 934.271 500.145C934.271 501.664 935.505 502.898 937.024 502.898C938.543 502.898 939.777 501.664 939.777 500.145Z" fill="#231F20"/>
<path d="M987.145 500.145C987.145 499.481 986.67 499.006 986.006 499.006C985.341 499.006 984.867 499.481 984.867 500.145C984.867 500.809 985.341 501.284 986.006 501.284C986.67 501.284 987.145 500.715 987.145 500.145Z" fill="#231F20"/>
<path d="M1037.55 500.145C1037.55 498.721 1036.41 497.677 1035.08 497.677C1033.66 497.677 1032.61 498.816 1032.61 500.145C1032.61 501.569 1033.75 502.613 1035.08 502.613C1036.41 502.613 1037.55 501.474 1037.55 500.145Z" fill="#231F20"/>
<path d="M1087.67 500.145C1087.67 498.152 1086.06 496.538 1084.07 496.538C1082.07 496.538 1080.46 498.152 1080.46 500.145C1080.46 502.139 1082.07 503.752 1084.07 503.752C1086.06 503.657 1087.67 502.044 1087.67 500.145Z" fill="#231F20"/>
<path d="M1141.31 500.145C1141.31 495.589 1137.6 491.886 1133.05 491.886C1128.49 491.886 1124.79 495.589 1124.79 500.145C1124.79 504.701 1128.49 508.404 1133.05 508.404C1137.6 508.309 1141.31 504.607 1141.31 500.145Z" fill="#231F20"/>
<path d="M1188.58 500.145C1188.58 496.538 1185.64 493.595 1182.03 493.595C1178.42 493.595 1175.48 496.538 1175.48 500.145C1175.48 503.752 1178.42 506.695 1182.03 506.695C1185.73 506.6 1188.58 503.752 1188.58 500.145Z" fill="#231F20"/>
<path d="M1236.9 500.145C1236.9 497.012 1234.33 494.354 1231.2 494.354C1227.97 494.354 1225.41 496.917 1225.41 500.145C1225.41 503.278 1227.97 505.841 1231.2 505.841C1234.33 505.841 1236.9 503.278 1236.9 500.145Z" fill="#231F20"/>
<path d="M1287.59 500.145C1287.59 496.063 1284.27 492.741 1280.18 492.741C1276.1 492.741 1272.78 496.063 1272.78 500.145C1272.78 504.227 1276.1 507.549 1280.18 507.549C1284.27 507.549 1287.59 504.227 1287.59 500.145Z" fill="#231F20"/>
<path d="M1331.82 500.145C1331.82 498.721 1330.59 497.487 1329.17 497.487C1327.74 497.487 1326.51 498.626 1326.51 500.145C1326.51 501.569 1327.74 502.803 1329.17 502.803C1330.59 502.803 1331.82 501.569 1331.82 500.145Z" fill="#231F20"/>
<path d="M1387.26 500.145C1387.26 495.114 1383.18 491.032 1378.15 491.032C1373.12 491.032 1369.04 495.114 1369.04 500.145C1369.04 505.176 1373.12 509.258 1378.15 509.258C1383.18 509.258 1387.26 505.176 1387.26 500.145Z" fill="#231F20"/>
<path d="M1435.39 500.145C1435.39 495.589 1431.69 491.886 1427.13 491.886C1422.57 491.886 1418.87 495.589 1418.87 500.145C1418.87 504.701 1422.57 508.404 1427.13 508.404C1431.69 508.309 1435.39 504.701 1435.39 500.145Z" fill="#231F20"/>
<path d="M9.77942 440.531C9.77942 438.348 7.97586 436.544 5.79254 436.544C3.60923 436.544 1.80567 438.348 1.80567 440.531C1.80567 442.714 3.60923 444.518 5.79254 444.518C7.97586 444.518 9.77942 442.714 9.77942 440.531Z" fill="#231F20"/>
<path d="M63.6979 440.531C63.6979 435.595 59.7109 431.608 54.7747 431.608C49.8386 431.608 45.8516 435.595 45.8516 440.531C45.8516 445.467 49.8386 449.454 54.7747 449.454C59.7109 449.454 63.6979 445.467 63.6979 440.531Z" fill="#231F20"/>
<path d="M110.117 440.531C110.117 437.019 107.269 434.171 103.757 434.171C100.245 434.171 97.3969 437.019 97.3969 440.531C97.3969 444.043 100.245 446.891 103.757 446.891C107.269 446.891 110.117 444.043 110.117 440.531Z" fill="#231F20"/>
<path d="M156.062 440.531C156.062 438.728 154.543 437.209 152.739 437.209C150.936 437.209 149.417 438.728 149.417 440.531C149.417 442.335 150.936 443.854 152.739 443.854C154.638 443.854 156.062 442.335 156.062 440.531Z" fill="#231F20"/>
<path d="M207.702 440.531C207.702 437.304 205.044 434.646 201.816 434.646C198.589 434.646 195.931 437.304 195.931 440.531C195.931 443.759 198.589 446.417 201.816 446.417C205.044 446.417 207.702 443.759 207.702 440.531Z" fill="#231F20"/>
<path d="M257.253 440.531C257.253 436.924 254.311 434.076 250.798 434.076C247.191 434.076 244.343 436.924 244.343 440.531C244.343 444.138 247.286 446.986 250.798 446.986C254.406 446.986 257.253 444.138 257.253 440.531Z" fill="#231F20"/>
<path d="M308.324 440.531C308.324 435.88 304.527 431.988 299.781 431.988C295.129 431.988 291.237 435.785 291.237 440.531C291.237 445.183 295.034 449.075 299.781 449.075C304.527 449.075 308.324 445.183 308.324 440.531Z" fill="#231F20"/>
<path d="M351.895 440.531C351.895 438.822 350.566 437.493 348.858 437.493C347.149 437.493 345.82 438.822 345.82 440.531C345.82 442.24 347.149 443.569 348.858 443.569C350.566 443.569 351.895 442.24 351.895 440.531Z" fill="#231F20"/>
<path d="M399.928 440.531C399.928 439.392 398.979 438.443 397.84 438.443C396.701 438.443 395.752 439.392 395.752 440.531C395.752 441.67 396.701 442.619 397.84 442.619C398.979 442.619 399.928 441.67 399.928 440.531Z" fill="#231F20"/>
<path d="M449.765 440.531C449.765 438.917 448.531 437.683 446.917 437.683C445.303 437.683 444.069 438.917 444.069 440.531C444.069 442.05 445.303 443.379 446.917 443.379C448.436 443.379 449.765 442.05 449.765 440.531Z" fill="#231F20"/>
<path d="M500.076 440.531C500.076 438.253 498.177 436.354 495.899 436.354C493.621 436.354 491.722 438.253 491.722 440.531C491.722 442.809 493.621 444.708 495.899 444.708C498.177 444.708 500.076 442.809 500.076 440.531Z" fill="#231F20"/>
<path d="M549.058 440.531C549.058 438.253 547.16 436.354 544.881 436.354C542.603 436.354 540.705 438.253 540.705 440.531C540.705 442.809 542.603 444.708 544.881 444.708C547.16 444.708 549.058 442.809 549.058 440.531Z" fill="#231F20"/>
<path d="M599.369 440.531C599.369 437.493 596.901 435.025 593.864 435.025C590.826 435.025 588.358 437.493 588.358 440.531C588.358 443.569 590.826 446.037 593.864 446.037C596.901 446.037 599.369 443.569 599.369 440.531Z" fill="#231F20"/>
<path d="M649.301 440.531C649.301 437.019 646.453 434.171 642.941 434.171C639.428 434.171 636.581 437.019 636.581 440.531C636.581 444.043 639.428 446.891 642.941 446.891C646.453 446.891 649.301 444.043 649.301 440.531Z" fill="#231F20"/>
<path d="M696.005 440.531C696.005 438.253 694.201 436.449 691.923 436.449C689.645 436.449 687.841 438.253 687.841 440.531C687.841 442.809 689.645 444.613 691.923 444.613C694.201 444.613 696.005 442.809 696.005 440.531Z" fill="#231F20"/>
<path d="M742.329 440.531C742.329 439.772 741.664 439.107 740.905 439.107C740.146 439.107 739.481 439.772 739.481 440.531C739.481 441.29 740.146 441.955 740.905 441.955C741.759 441.955 742.329 441.29 742.329 440.531Z" fill="#231F20"/>
<path d="M795.678 440.531C795.678 437.399 793.115 434.836 789.982 434.836C786.85 434.836 784.287 437.399 784.287 440.531C784.287 443.664 786.85 446.227 789.982 446.227C793.115 446.227 795.678 443.664 795.678 440.531Z" fill="#231F20"/>
<path d="M842.761 440.531C842.761 438.443 841.053 436.829 839.059 436.829C836.971 436.829 835.357 438.538 835.357 440.531C835.357 442.619 836.971 444.233 839.059 444.233C841.053 444.233 842.761 442.619 842.761 440.531Z" fill="#231F20"/>
<path d="M888.991 440.531C888.991 439.961 888.516 439.487 887.946 439.487C887.377 439.487 886.902 439.961 886.902 440.531C886.902 441.101 887.377 441.575 887.946 441.575C888.611 441.575 888.991 441.101 888.991 440.531Z" fill="#231F20"/>
<path d="M942.34 440.531C942.34 437.588 939.966 435.215 937.024 435.215C934.081 435.215 931.708 437.588 931.708 440.531C931.708 443.474 934.081 445.847 937.024 445.847C939.966 445.847 942.34 443.474 942.34 440.531Z" fill="#231F20"/>
<path d="M992.461 440.531C992.461 437.019 989.613 434.076 986.006 434.076C982.494 434.076 979.551 436.924 979.551 440.531C979.551 444.043 982.399 446.986 986.006 446.986C989.613 446.986 992.461 444.043 992.461 440.531Z" fill="#231F20"/>
<path d="M1043.53 440.531C1043.53 435.88 1039.73 432.083 1035.08 432.083C1030.43 432.083 1026.63 435.88 1026.63 440.531C1026.63 445.182 1030.43 448.98 1035.08 448.98C1039.73 448.98 1043.53 445.182 1043.53 440.531Z" fill="#231F20"/>
<path d="M1092.23 440.531C1092.23 436.07 1088.62 432.367 1084.07 432.367C1079.6 432.367 1075.9 435.975 1075.9 440.531C1075.9 444.993 1079.51 448.695 1084.07 448.695C1088.53 448.695 1092.23 444.993 1092.23 440.531Z" fill="#231F20"/>
<path d="M1142.26 440.531C1142.26 435.5 1138.17 431.418 1133.14 431.418C1128.11 431.418 1124.03 435.5 1124.03 440.531C1124.03 445.562 1128.11 449.644 1133.14 449.644C1138.17 449.644 1142.26 445.562 1142.26 440.531Z" fill="#231F20"/>
<path d="M1189.05 440.531C1189.05 436.734 1185.92 433.601 1182.12 433.601C1178.33 433.601 1175.19 436.734 1175.19 440.531C1175.19 444.328 1178.33 447.461 1182.12 447.461C1185.92 447.461 1189.05 444.328 1189.05 440.531Z" fill="#231F20"/>
<path d="M1234.52 440.531C1234.52 438.633 1233.01 437.114 1231.11 437.114C1229.21 437.114 1227.69 438.633 1227.69 440.531C1227.69 442.43 1229.21 443.948 1231.11 443.948C1233.01 443.948 1234.52 442.43 1234.52 440.531Z" fill="#231F20"/>
<path d="M1283.32 440.531C1283.32 438.727 1281.89 437.303 1280.09 437.303C1278.29 437.303 1276.86 438.727 1276.86 440.531C1276.86 442.335 1278.29 443.759 1280.09 443.759C1281.89 443.759 1283.32 442.335 1283.32 440.531Z" fill="#231F20"/>
<path d="M1330.68 440.531C1330.68 439.677 1330.02 439.012 1329.17 439.012C1328.31 439.012 1327.65 439.677 1327.65 440.531C1327.65 441.385 1328.31 442.05 1329.17 442.05C1330.02 442.05 1330.68 441.385 1330.68 440.531Z" fill="#231F20"/>
<path d="M1387.45 440.531C1387.45 435.405 1383.27 431.228 1378.15 431.228C1373.02 431.228 1368.85 435.405 1368.85 440.531C1368.85 445.657 1373.02 449.834 1378.15 449.834C1383.27 449.834 1387.45 445.657 1387.45 440.531Z" fill="#231F20"/>
<path d="M1435.86 440.531C1435.86 435.69 1431.97 431.798 1427.13 431.798C1422.29 431.798 1418.4 435.69 1418.4 440.531C1418.4 445.372 1422.29 449.264 1427.13 449.264C1431.97 449.264 1435.86 445.372 1435.86 440.531Z" fill="#231F20"/>
<path d="M14.4309 380.917C14.4309 376.076 10.539 372.184 5.6977 372.184C0.856434 372.184 -3.03563 376.076 -3.03563 380.917C-3.03563 385.663 0.856434 389.65 5.6977 389.65C10.539 389.65 14.4309 385.758 14.4309 380.917Z" fill="#231F20"/>
<path d="M57.1479 380.917C57.1479 379.588 56.1038 378.544 54.7748 378.544C53.4458 378.544 52.4016 379.588 52.4016 380.917C52.4016 382.246 53.4458 383.29 54.7748 383.29C56.1038 383.385 57.1479 382.246 57.1479 380.917Z" fill="#231F20"/>
<path d="M108.503 380.917C108.503 378.259 106.415 376.171 103.757 376.171C101.099 376.171 99.0105 378.259 99.0105 380.917C99.0105 383.575 101.099 385.663 103.757 385.663C106.415 385.663 108.503 383.575 108.503 380.917Z" fill="#231F20"/>
<path d="M159.574 380.917C159.574 377.12 156.536 374.082 152.739 374.082C148.942 374.082 145.904 377.12 145.904 380.917C145.904 384.714 148.942 387.752 152.739 387.752C156.536 387.752 159.574 384.714 159.574 380.917Z" fill="#231F20"/>
<path d="M204.854 380.917C204.854 379.209 203.525 377.88 201.816 377.88C200.108 377.88 198.779 379.209 198.779 380.917C198.779 382.626 200.203 383.955 201.816 383.955C203.525 384.05 204.854 382.626 204.854 380.917Z" fill="#231F20"/>
<path d="M252.887 380.917C252.887 379.778 251.938 378.829 250.798 378.829C249.659 378.829 248.71 379.778 248.71 380.917C248.71 382.056 249.659 383.006 250.798 383.006C251.938 383.006 252.887 382.056 252.887 380.917Z" fill="#231F20"/>
<path d="M301.394 380.917C301.394 380.063 300.73 379.398 299.876 379.398C299.021 379.398 298.357 380.063 298.357 380.917C298.357 381.771 299.021 382.436 299.876 382.436C300.73 382.531 301.394 381.771 301.394 380.917Z" fill="#231F20"/>
<path d="M357.401 380.917C357.401 376.171 353.604 372.374 348.858 372.374C344.111 372.374 340.314 376.171 340.314 380.917C340.314 385.663 344.111 389.46 348.858 389.46C353.509 389.46 357.401 385.663 357.401 380.917Z" fill="#231F20"/>
<path d="M402.396 380.917C402.396 378.354 400.308 376.361 397.84 376.361C395.277 376.361 393.283 378.449 393.283 380.917C393.283 383.48 395.372 385.474 397.84 385.474C400.403 385.474 402.396 383.48 402.396 380.917Z" fill="#231F20"/>
<path d="M449.765 380.917C449.765 379.303 448.436 377.974 446.822 377.974C445.208 377.974 443.879 379.303 443.879 380.917C443.879 382.531 445.208 383.86 446.822 383.86C448.531 383.86 449.765 382.531 449.765 380.917Z" fill="#231F20"/>
<path d="M500.361 380.917C500.361 378.449 498.367 376.456 495.899 376.456C493.431 376.456 491.438 378.449 491.438 380.917C491.438 383.385 493.431 385.379 495.899 385.379C498.367 385.474 500.361 383.385 500.361 380.917Z" fill="#231F20"/>
<path d="M547.539 380.917C547.539 379.493 546.4 378.354 544.976 378.354C543.552 378.354 542.413 379.493 542.413 380.917C542.413 382.341 543.552 383.48 544.976 383.48C546.305 383.575 547.539 382.341 547.539 380.917Z" fill="#231F20"/>
<path d="M600.034 380.917C600.034 377.595 597.281 374.842 593.958 374.842C590.636 374.842 587.883 377.595 587.883 380.917C587.883 384.24 590.636 386.992 593.958 386.992C597.281 386.992 600.034 384.334 600.034 380.917Z" fill="#231F20"/>
<path d="M650.63 380.917C650.63 376.645 647.212 373.228 642.941 373.228C638.669 373.228 635.252 376.645 635.252 380.917C635.252 385.189 638.669 388.606 642.941 388.606C647.212 388.701 650.63 385.189 650.63 380.917Z" fill="#231F20"/>
<path d="M700.846 380.917C700.846 375.981 696.859 371.994 691.923 371.994C686.987 371.994 683 375.981 683 380.917C683 385.853 686.987 389.84 691.923 389.84C696.859 389.84 700.846 385.853 700.846 380.917Z" fill="#231F20"/>
<path d="M745.367 380.917C745.367 378.544 743.373 376.55 741 376.55C738.627 376.55 736.633 378.544 736.633 380.917C736.633 383.29 738.627 385.284 741 385.284C743.373 385.284 745.367 383.385 745.367 380.917Z" fill="#231F20"/>
<path d="M795.298 380.917C795.298 377.974 792.925 375.601 789.982 375.601C787.039 375.601 784.666 377.974 784.666 380.917C784.666 383.86 787.039 386.233 789.982 386.233C792.925 386.233 795.298 383.86 795.298 380.917Z" fill="#231F20"/>
<path d="M842.761 380.917C842.761 378.829 841.053 377.215 839.059 377.215C836.971 377.215 835.357 378.924 835.357 380.917C835.357 383.006 837.066 384.619 839.059 384.619C841.053 384.714 842.761 383.006 842.761 380.917Z" fill="#231F20"/>
<path d="M890.984 380.917C890.984 379.303 889.655 377.974 888.041 377.974C886.428 377.974 885.099 379.303 885.099 380.917C885.099 382.531 886.428 383.86 888.041 383.86C889.655 383.955 890.984 382.626 890.984 380.917Z" fill="#231F20"/>
<path d="M942.53 380.917C942.53 377.879 940.061 375.411 937.119 375.411C934.081 375.411 931.708 377.879 931.708 380.917C931.708 383.955 934.176 386.328 937.119 386.328C940.061 386.423 942.53 383.955 942.53 380.917Z" fill="#231F20"/>
<path d="M994.169 380.917C994.169 376.456 990.562 372.848 986.006 372.848C981.544 372.848 977.937 376.456 977.937 380.917C977.937 385.379 981.544 388.986 986.006 388.986C990.562 389.081 994.169 385.474 994.169 380.917Z" fill="#231F20"/>
<path d="M1040.4 380.917C1040.4 377.974 1038.03 375.601 1035.08 375.601C1032.14 375.601 1029.77 377.974 1029.77 380.917C1029.77 383.86 1032.14 386.233 1035.08 386.233C1038.03 386.328 1040.4 383.86 1040.4 380.917Z" fill="#231F20"/>
<path d="M1085.77 380.917C1085.77 379.968 1085.01 379.208 1084.07 379.208C1083.12 379.208 1082.36 379.968 1082.36 380.917C1082.36 381.866 1083.12 382.626 1084.07 382.626C1085.01 382.626 1085.77 381.866 1085.77 380.917Z" fill="#231F20"/>
<path d="M1134.76 380.917C1134.76 379.968 1134 379.208 1133.05 379.208C1132.1 379.208 1131.34 379.968 1131.34 380.917C1131.34 381.866 1132.1 382.626 1133.05 382.626C1134 382.626 1134.76 381.866 1134.76 380.917Z" fill="#231F20"/>
<path d="M1184.21 380.917C1184.21 379.778 1183.26 378.829 1182.12 378.829C1180.99 378.829 1180.04 379.778 1180.04 380.917C1180.04 382.056 1180.99 383.006 1182.12 383.006C1183.26 383.006 1184.21 382.151 1184.21 380.917Z" fill="#231F20"/>
<path d="M1236.42 380.917C1236.42 377.974 1234.05 375.601 1231.11 375.601C1228.16 375.601 1225.79 377.974 1225.79 380.917C1225.79 383.86 1228.16 386.233 1231.11 386.233C1234.05 386.328 1236.42 383.955 1236.42 380.917Z" fill="#231F20"/>
<path d="M1285.12 380.917C1285.12 378.164 1282.94 375.981 1280.18 375.981C1277.43 375.981 1275.25 378.164 1275.25 380.917C1275.25 383.67 1277.43 385.853 1280.18 385.853C1282.84 385.948 1285.12 383.67 1285.12 380.917Z" fill="#231F20"/>
<path d="M1336.67 380.917C1336.67 376.74 1333.34 373.418 1329.17 373.418C1324.99 373.418 1321.67 376.74 1321.67 380.917C1321.67 385.094 1324.99 388.416 1329.17 388.416C1333.25 388.511 1336.67 385.094 1336.67 380.917Z" fill="#231F20"/>
<path d="M1384.6 380.917C1384.6 377.31 1381.76 374.462 1378.15 374.462C1374.54 374.462 1371.69 377.31 1371.69 380.917C1371.69 384.524 1374.54 387.372 1378.15 387.372C1381.76 387.372 1384.6 384.524 1384.6 380.917Z" fill="#231F20"/>
<path d="M1429.6 380.917C1429.6 379.588 1428.55 378.544 1427.23 378.544C1425.9 378.544 1424.85 379.588 1424.85 380.917C1424.85 382.246 1425.9 383.29 1427.23 383.29C1428.46 383.385 1429.6 382.246 1429.6 380.917Z" fill="#231F20"/>
<path d="M11.8679 321.398C11.8679 318.076 9.11502 315.323 5.79259 315.323C2.47015 315.323 -0.282746 318.076 -0.282746 321.398C-0.282746 324.72 2.47015 327.473 5.79259 327.473C9.11502 327.473 11.8679 324.72 11.8679 321.398Z" fill="#231F20"/>
<path d="M62.9384 321.398C62.9384 316.937 59.3312 313.234 54.7747 313.234C50.2182 313.234 46.611 316.842 46.611 321.398C46.611 325.86 50.2182 329.562 54.7747 329.562C59.2362 329.562 62.9384 325.86 62.9384 321.398Z" fill="#231F20"/>
<path d="M104.706 321.398C104.706 320.829 104.232 320.449 103.757 320.449C103.187 320.449 102.808 320.923 102.808 321.398C102.808 321.968 103.282 322.347 103.757 322.347C104.326 322.347 104.706 321.873 104.706 321.398Z" fill="#231F20"/>
<path d="M160.333 321.398C160.333 317.221 157.011 313.899 152.834 313.899C148.657 313.899 145.335 317.221 145.335 321.398C145.335 325.575 148.657 328.897 152.834 328.897C156.916 328.897 160.333 325.48 160.333 321.398Z" fill="#231F20"/>
<path d="M206.847 321.398C206.847 318.645 204.569 316.367 201.816 316.367C199.063 316.367 196.785 318.645 196.785 321.398C196.785 324.151 199.063 326.429 201.816 326.429C204.569 326.429 206.847 324.151 206.847 321.398Z" fill="#231F20"/>
<path d="M254.311 321.398C254.311 319.5 252.792 317.981 250.893 317.981C248.995 317.981 247.476 319.5 247.476 321.398C247.476 323.297 248.995 324.815 250.893 324.815C252.697 324.815 254.311 323.297 254.311 321.398Z" fill="#231F20"/>
<path d="M303.768 321.398C303.768 319.215 302.059 317.506 299.876 317.506C297.692 317.506 295.984 319.215 295.984 321.398C295.984 323.581 297.692 325.29 299.876 325.29C301.964 325.29 303.768 323.486 303.768 321.398Z" fill="#231F20"/>
<path d="M351.231 321.398C351.231 320.069 350.187 318.93 348.763 318.93C347.434 318.93 346.295 319.974 346.295 321.398C346.295 322.727 347.339 323.866 348.763 323.866C350.187 323.771 351.231 322.727 351.231 321.398Z" fill="#231F20"/>
<path d="M406.383 321.398C406.383 316.747 402.586 312.95 397.935 312.95C393.283 312.95 389.486 316.747 389.486 321.398C389.486 326.049 393.283 329.847 397.935 329.847C402.586 329.847 406.383 326.049 406.383 321.398Z" fill="#231F20"/>
<path d="M451.284 321.398C451.284 319.025 449.29 317.031 446.917 317.031C444.544 317.031 442.55 319.025 442.55 321.398C442.55 323.771 444.544 325.765 446.917 325.765C449.29 325.765 451.284 323.771 451.284 321.398Z" fill="#231F20"/>
<path d="M502.924 321.398C502.924 317.506 499.791 314.374 495.899 314.374C492.007 314.374 488.875 317.506 488.875 321.398C488.875 325.29 492.007 328.423 495.899 328.423C499.791 328.328 502.924 325.195 502.924 321.398Z" fill="#231F20"/>
<path d="M552.096 321.398C552.096 317.411 548.868 314.184 544.881 314.184C540.894 314.184 537.667 317.411 537.667 321.398C537.667 325.385 540.894 328.612 544.881 328.612C548.868 328.612 552.096 325.385 552.096 321.398Z" fill="#231F20"/>
<path d="M598.135 321.398C598.135 319.12 596.237 317.221 593.959 317.221C591.585 317.221 589.782 319.12 589.782 321.398C589.782 323.676 591.68 325.575 593.959 325.575C596.237 325.575 598.135 323.676 598.135 321.398Z" fill="#231F20"/>
<path d="M649.396 321.398C649.396 317.791 646.453 314.943 642.941 314.943C639.333 314.943 636.486 317.886 636.486 321.398C636.486 325.005 639.428 327.853 642.941 327.853C646.548 327.853 649.396 325.005 649.396 321.398Z" fill="#231F20"/>
<path d="M696.384 321.398C696.384 318.93 694.391 316.937 691.923 316.937C689.455 316.937 687.461 318.93 687.461 321.398C687.461 323.866 689.455 325.86 691.923 325.86C694.391 325.765 696.384 323.866 696.384 321.398Z" fill="#231F20"/>
<path d="M747.17 321.398C747.17 317.981 744.417 315.133 740.905 315.133C737.488 315.133 734.64 317.886 734.64 321.398C734.64 324.815 737.393 327.663 740.905 327.663C744.417 327.568 747.17 324.815 747.17 321.398Z" fill="#231F20"/>
<path d="M796.057 321.398C796.057 317.981 793.305 315.323 789.982 315.323C786.565 315.323 783.907 318.076 783.907 321.398C783.907 324.815 786.66 327.473 789.982 327.473C793.4 327.473 796.057 324.72 796.057 321.398Z" fill="#231F20"/>
<path d="M847.508 321.398C847.508 316.747 843.711 312.95 839.059 312.95C834.408 312.95 830.611 316.747 830.611 321.398C830.611 326.049 834.408 329.847 839.059 329.847C843.711 329.847 847.508 326.049 847.508 321.398Z" fill="#231F20"/>
<path d="M892.883 321.398C892.883 318.645 890.699 316.462 887.947 316.462C885.194 316.462 883.01 318.645 883.01 321.398C883.01 324.151 885.194 326.334 887.947 326.334C890.699 326.334 892.883 324.056 892.883 321.398Z" fill="#231F20"/>
<path d="M939.587 321.398C939.587 319.974 938.448 318.835 937.024 318.835C935.6 318.835 934.461 319.974 934.461 321.398C934.461 322.822 935.6 323.961 937.024 323.961C938.448 323.961 939.587 322.822 939.587 321.398Z" fill="#231F20"/>
<path d="M991.132 321.398C991.132 318.645 988.854 316.367 986.101 316.367C983.348 316.367 981.07 318.645 981.07 321.398C981.07 324.151 983.348 326.429 986.101 326.429C988.854 326.429 991.132 324.151 991.132 321.398Z" fill="#231F20"/>
<path d="M1038.12 321.398C1038.12 319.689 1036.7 318.266 1034.99 318.266C1033.28 318.266 1031.86 319.689 1031.86 321.398C1031.86 323.107 1033.28 324.531 1034.99 324.531C1036.79 324.436 1038.12 323.107 1038.12 321.398Z" fill="#231F20"/>
<path d="M1089.57 321.398C1089.57 318.36 1087.1 315.892 1084.07 315.892C1081.03 315.892 1078.56 318.36 1078.56 321.398C1078.56 324.436 1081.03 326.904 1084.07 326.904C1087.1 326.904 1089.57 324.436 1089.57 321.398Z" fill="#231F20"/>
<path d="M1139.6 321.398C1139.6 317.791 1136.65 314.848 1133.05 314.848C1129.44 314.848 1126.5 317.791 1126.5 321.398C1126.5 325.005 1129.44 327.948 1133.05 327.948C1136.65 327.948 1139.6 325.005 1139.6 321.398Z" fill="#231F20"/>
<path d="M1187.06 321.398C1187.06 318.645 1184.88 316.462 1182.12 316.462C1179.37 316.462 1177.19 318.645 1177.19 321.398C1177.19 324.151 1179.37 326.334 1182.12 326.334C1184.78 326.334 1187.06 324.056 1187.06 321.398Z" fill="#231F20"/>
<path d="M1233.86 321.398C1233.86 319.879 1232.63 318.74 1231.2 318.74C1229.68 318.74 1228.54 319.974 1228.54 321.398C1228.54 322.917 1229.78 324.056 1231.2 324.056C1232.63 324.056 1233.86 322.822 1233.86 321.398Z" fill="#231F20"/>
<path d="M1284.27 321.398C1284.27 319.12 1282.46 317.316 1280.18 317.316C1277.91 317.316 1276.1 319.12 1276.1 321.398C1276.1 323.676 1277.91 325.48 1280.18 325.48C1282.37 325.48 1284.27 323.676 1284.27 321.398Z" fill="#231F20"/>
<path d="M1336.48 321.398C1336.48 317.316 1333.15 314.089 1329.17 314.089C1325.08 314.089 1321.86 317.411 1321.86 321.398C1321.86 325.48 1325.18 328.707 1329.17 328.707C1333.15 328.707 1336.48 325.385 1336.48 321.398Z" fill="#231F20"/>
<path d="M1383.94 321.398C1383.94 318.17 1381.38 315.607 1378.15 315.607C1374.92 315.607 1372.36 318.17 1372.36 321.398C1372.36 324.625 1374.92 327.188 1378.15 327.188C1381.38 327.188 1383.94 324.625 1383.94 321.398Z" fill="#231F20"/>
<path d="M1431.12 321.398C1431.12 319.215 1429.31 317.411 1427.13 317.411C1424.95 317.411 1423.14 319.215 1423.14 321.398C1423.14 323.581 1424.95 325.385 1427.13 325.385C1429.41 325.385 1431.12 323.581 1431.12 321.398Z" fill="#231F20"/>
<path d="M8.92517 261.784C8.92517 259.98 7.50125 258.557 5.69764 258.557C3.89403 258.557 2.47011 259.98 2.47011 261.784C2.47011 263.588 3.89403 265.012 5.69764 265.012C7.50125 265.012 8.92517 263.588 8.92517 261.784Z" fill="#231F20"/>
<path d="M62.9384 261.784C62.9384 257.228 59.2363 253.526 54.6798 253.526C50.1233 253.526 46.4212 257.228 46.4212 261.784C46.4212 266.341 50.1233 270.043 54.6798 270.043C59.3312 270.043 62.9384 266.341 62.9384 261.784Z" fill="#231F20"/>
<path d="M112.016 261.784C112.016 257.228 108.313 253.526 103.757 253.526C99.2004 253.526 95.4984 257.228 95.4984 261.784C95.4984 266.341 99.2004 270.043 103.757 270.043C108.313 270.043 112.016 266.341 112.016 261.784Z" fill="#231F20"/>
<path d="M156.062 261.784C156.062 259.98 154.638 258.557 152.834 258.557C151.031 258.557 149.607 259.98 149.607 261.784C149.607 263.588 151.031 265.012 152.834 265.012C154.543 265.012 156.062 263.588 156.062 261.784Z" fill="#231F20"/>
<path d="M204 261.784C204 260.55 203.05 259.601 201.816 259.601C200.582 259.601 199.633 260.55 199.633 261.784C199.633 263.018 200.582 263.967 201.816 263.967C203.05 263.967 204 263.018 204 261.784Z" fill="#231F20"/>
<path d="M252.412 261.784C252.412 260.93 251.653 260.17 250.798 260.17C249.944 260.17 249.185 260.93 249.185 261.784C249.185 262.639 249.944 263.398 250.798 263.398C251.653 263.398 252.412 262.639 252.412 261.784Z" fill="#231F20"/>
<path d="M308.229 261.784C308.229 257.133 304.432 253.336 299.781 253.336C295.129 253.336 291.332 257.133 291.332 261.784C291.332 266.435 295.129 270.233 299.781 270.233C304.527 270.233 308.229 266.435 308.229 261.784Z" fill="#231F20"/>
<path d="M352.845 261.784C352.845 259.601 351.041 257.797 348.858 257.797C346.674 257.797 344.871 259.601 344.871 261.784C344.871 263.967 346.674 265.771 348.858 265.771C351.041 265.771 352.845 263.967 352.845 261.784Z" fill="#231F20"/>
<path d="M406.004 261.784C406.004 257.323 402.396 253.715 397.935 253.715C393.473 253.715 389.866 257.323 389.866 261.784C389.866 266.246 393.473 269.853 397.935 269.853C402.301 269.948 406.004 266.246 406.004 261.784Z" fill="#231F20"/>
<path d="M449.385 261.784C449.385 260.36 448.246 259.316 446.917 259.316C445.493 259.316 444.449 260.455 444.449 261.784C444.449 263.208 445.588 264.252 446.917 264.252C448.246 264.347 449.385 263.208 449.385 261.784Z" fill="#231F20"/>
<path d="M500.835 261.784C500.835 259.031 498.557 256.753 495.804 256.753C493.051 256.753 490.773 259.031 490.773 261.784C490.773 264.537 493.051 266.815 495.804 266.815C498.652 266.815 500.835 264.537 500.835 261.784Z" fill="#231F20"/>
<path d="M551.147 261.784C551.147 258.272 548.299 255.519 544.881 255.519C541.369 255.519 538.616 258.367 538.616 261.784C538.616 265.296 541.464 268.049 544.881 268.049C548.394 268.049 551.147 265.296 551.147 261.784Z" fill="#231F20"/>
<path d="M595.287 261.784C595.287 261.025 594.623 260.36 593.864 260.36C593.104 260.36 592.44 261.025 592.44 261.784C592.44 262.543 593.104 263.208 593.864 263.208C594.718 263.208 595.287 262.543 595.287 261.784Z" fill="#231F20"/>
<path d="M646.928 261.784C646.928 259.601 645.124 257.797 642.941 257.797C640.757 257.797 638.954 259.601 638.954 261.784C638.954 263.967 640.757 265.771 642.941 265.771C645.124 265.771 646.928 263.967 646.928 261.784Z" fill="#231F20"/>
<path d="M695.91 261.784C695.91 259.601 694.106 257.797 691.923 257.797C689.74 257.797 687.936 259.601 687.936 261.784C687.936 263.967 689.74 265.771 691.923 265.771C694.106 265.771 695.91 263.967 695.91 261.784Z" fill="#231F20"/>
<path d="M744.797 261.784C744.797 259.601 743.088 257.892 740.905 257.892C738.722 257.892 737.013 259.601 737.013 261.784C737.013 263.967 738.722 265.676 740.905 265.676C743.088 265.676 744.797 263.967 744.797 261.784Z" fill="#231F20"/>
<path d="M791.786 261.784C791.786 260.835 791.026 259.98 789.982 259.98C789.033 259.98 788.179 260.74 788.179 261.784C788.179 262.733 788.938 263.588 789.982 263.588C790.931 263.588 791.786 262.828 791.786 261.784Z" fill="#231F20"/>
<path d="M840.104 261.784C840.104 261.215 839.629 260.645 838.964 260.645C838.395 260.645 837.825 261.12 837.825 261.784C837.825 262.354 838.3 262.923 838.964 262.923C839.629 262.923 840.104 262.449 840.104 261.784Z" fill="#231F20"/>
<path d="M893.073 261.784C893.073 259.031 890.794 256.753 888.041 256.753C885.289 256.753 883.01 259.031 883.01 261.784C883.01 264.537 885.289 266.815 888.041 266.815C890.794 266.815 893.073 264.632 893.073 261.784Z" fill="#231F20"/>
<path d="M944.048 261.784C944.048 257.892 940.916 254.76 937.024 254.76C933.132 254.76 929.999 257.892 929.999 261.784C929.999 265.676 933.132 268.809 937.024 268.809C940.916 268.904 944.048 265.676 944.048 261.784Z" fill="#231F20"/>
<path d="M992.081 261.784C992.081 258.462 989.423 255.804 986.101 255.804C982.778 255.804 980.12 258.462 980.12 261.784C980.12 265.107 982.778 267.764 986.101 267.764C989.328 267.764 992.081 265.107 992.081 261.784Z" fill="#231F20"/>
<path d="M1044.29 261.784C1044.29 256.658 1040.11 252.576 1035.08 252.576C1029.96 252.576 1025.88 256.753 1025.88 261.784C1025.88 266.91 1030.05 270.992 1035.08 270.992C1040.11 271.087 1044.29 266.91 1044.29 261.784Z" fill="#231F20"/>
<path d="M1089.19 261.784C1089.19 258.936 1086.91 256.658 1084.07 256.658C1081.22 256.658 1078.94 258.936 1078.94 261.784C1078.94 264.632 1081.22 266.91 1084.07 266.91C1086.91 266.91 1089.19 264.632 1089.19 261.784Z" fill="#231F20"/>
<path d="M1137.22 261.784C1137.22 259.506 1135.42 257.702 1133.14 257.702C1130.86 257.702 1129.06 259.506 1129.06 261.784C1129.06 264.062 1130.86 265.866 1133.14 265.866C1135.33 265.866 1137.22 264.062 1137.22 261.784Z" fill="#231F20"/>
<path d="M1188.01 261.784C1188.01 258.462 1185.35 255.804 1182.03 255.804C1178.71 255.804 1176.05 258.462 1176.05 261.784C1176.05 265.107 1178.71 267.764 1182.03 267.764C1185.35 267.764 1188.01 265.107 1188.01 261.784Z" fill="#231F20"/>
<path d="M1237.75 261.784C1237.75 258.082 1234.81 255.139 1231.11 255.139C1227.4 255.139 1224.46 258.082 1224.46 261.784C1224.46 265.486 1227.4 268.429 1231.11 268.429C1234.81 268.429 1237.75 265.486 1237.75 261.784Z" fill="#231F20"/>
<path d="M1288.54 261.784C1288.54 257.133 1284.74 253.43 1280.18 253.43C1275.53 253.43 1271.83 257.228 1271.83 261.784C1271.83 266.435 1275.63 270.138 1280.18 270.138C1284.74 270.138 1288.54 266.435 1288.54 261.784Z" fill="#231F20"/>
<path d="M1331.35 261.784C1331.35 260.55 1330.4 259.601 1329.17 259.601C1327.93 259.601 1326.98 260.55 1326.98 261.784C1326.98 263.018 1327.93 263.967 1329.17 263.967C1330.4 263.967 1331.35 263.018 1331.35 261.784Z" fill="#231F20"/>
<path d="M1386.12 261.784C1386.12 257.417 1382.61 253.81 1378.15 253.81C1373.78 253.81 1370.17 257.322 1370.17 261.784C1370.17 266.151 1373.69 269.758 1378.15 269.758C1382.51 269.758 1386.12 266.151 1386.12 261.784Z" fill="#231F20"/>
<path d="M1436.34 261.784C1436.34 256.753 1432.26 252.671 1427.23 252.671C1422.19 252.671 1418.11 256.753 1418.11 261.784C1418.11 266.815 1422.19 270.897 1427.23 270.897C1432.26 270.992 1436.34 266.815 1436.34 261.784Z" fill="#231F20"/>
<path d="M8.0708 202.265C8.0708 201.031 7.02658 199.987 5.79254 199.987C4.55849 199.987 3.51427 201.031 3.51427 202.265C3.51427 203.499 4.55849 204.543 5.79254 204.543C7.02658 204.543 8.0708 203.499 8.0708 202.265Z" fill="#231F20"/>
<path d="M63.6029 202.265C63.6029 197.329 59.6159 193.437 54.7747 193.437C49.8385 193.437 45.9466 197.424 45.9466 202.265C45.9466 207.201 49.9334 211.093 54.7747 211.093C59.6159 211.093 63.6029 207.106 63.6029 202.265Z" fill="#231F20"/>
<path d="M112.585 202.265C112.585 197.424 108.693 193.437 103.757 193.437C98.9156 193.437 94.9287 197.424 94.9287 202.265C94.9287 207.106 98.9156 211.093 103.757 211.093C108.693 210.998 112.585 207.106 112.585 202.265Z" fill="#231F20"/>
<path d="M156.251 202.265C156.251 200.366 154.733 198.848 152.834 198.848C150.936 198.848 149.417 200.366 149.417 202.265C149.417 204.164 150.936 205.682 152.834 205.682C154.638 205.682 156.251 204.069 156.251 202.265Z" fill="#231F20"/>
<path d="M206.183 202.265C206.183 199.892 204.284 197.898 201.816 197.898C199.443 197.898 197.45 199.892 197.45 202.265C197.45 204.638 199.348 206.632 201.816 206.632C204.189 206.537 206.183 204.638 206.183 202.265Z" fill="#231F20"/>
<path d="M256.019 202.265C256.019 199.417 253.646 197.044 250.798 197.044C247.951 197.044 245.577 199.417 245.577 202.265C245.577 205.113 247.951 207.486 250.798 207.486C253.741 207.391 256.019 205.113 256.019 202.265Z" fill="#231F20"/>
<path d="M303.008 202.265C303.008 200.461 301.584 199.038 299.781 199.038C297.977 199.038 296.553 200.461 296.553 202.265C296.553 204.069 297.977 205.493 299.781 205.493C301.584 205.398 303.008 203.974 303.008 202.265Z" fill="#231F20"/>
<path d="M355.787 202.265C355.787 198.373 352.655 195.335 348.858 195.335C344.966 195.335 341.928 198.468 341.928 202.265C341.928 206.157 345.061 209.195 348.858 209.195C352.655 209.195 355.787 206.062 355.787 202.265Z" fill="#231F20"/>
<path d="M404.959 202.265C404.959 198.373 401.732 195.146 397.84 195.146C393.948 195.146 390.72 198.373 390.72 202.265C390.72 206.157 393.948 209.385 397.84 209.385C401.827 209.29 404.959 206.157 404.959 202.265Z" fill="#231F20"/>
<path d="M448.721 202.265C448.721 201.316 447.866 200.461 446.917 200.461C445.873 200.461 445.113 201.316 445.113 202.265C445.113 203.214 445.873 204.069 446.917 204.069C447.866 203.974 448.721 203.214 448.721 202.265Z" fill="#231F20"/>
<path d="M500.076 202.265C500.076 199.987 498.177 198.088 495.899 198.088C493.621 198.088 491.722 199.987 491.722 202.265C491.722 204.543 493.621 206.442 495.899 206.442C498.177 206.347 500.076 204.543 500.076 202.265Z" fill="#231F20"/>
<path d="M551.147 202.265C551.147 198.848 548.394 196 544.881 196C541.464 196 538.616 198.753 538.616 202.265C538.616 205.682 541.369 208.53 544.881 208.53C548.394 208.435 551.147 205.682 551.147 202.265Z" fill="#231F20"/>
<path d="M601.932 202.265C601.932 197.898 598.325 194.291 593.959 194.291C589.592 194.291 585.985 197.898 585.985 202.265C585.985 206.632 589.497 210.239 593.959 210.239C598.325 210.144 601.932 206.632 601.932 202.265Z" fill="#231F20"/>
<path d="M648.257 202.265C648.257 199.322 645.883 196.949 642.941 196.949C639.998 196.949 637.625 199.322 637.625 202.265C637.625 205.208 639.998 207.581 642.941 207.581C645.883 207.581 648.257 205.208 648.257 202.265Z" fill="#231F20"/>
<path d="M699.992 202.265C699.992 197.804 696.384 194.196 691.923 194.196C687.461 194.196 683.854 197.804 683.854 202.265C683.854 206.727 687.461 210.334 691.923 210.334C696.384 210.239 699.992 206.632 699.992 202.265Z" fill="#231F20"/>
<path d="M744.512 202.265C744.512 200.272 742.899 198.658 740.905 198.658C738.912 198.658 737.298 200.272 737.298 202.265C737.298 204.259 738.912 205.872 740.905 205.872C742.899 205.777 744.512 204.164 744.512 202.265Z" fill="#231F20"/>
<path d="M794.539 202.265C794.539 199.702 792.45 197.708 789.982 197.708C787.419 197.708 785.426 199.797 785.426 202.265C785.426 204.828 787.514 206.821 789.982 206.821C792.545 206.821 794.539 204.733 794.539 202.265Z" fill="#231F20"/>
<path d="M844.375 202.265C844.375 199.322 842.002 196.854 838.964 196.854C836.022 196.854 833.554 199.227 833.554 202.265C833.554 205.208 835.927 207.676 838.964 207.676C842.002 207.581 844.375 205.208 844.375 202.265Z" fill="#231F20"/>
<path d="M891.459 202.265C891.459 200.366 889.94 198.848 888.042 198.848C886.143 198.848 884.624 200.366 884.624 202.265C884.624 204.164 886.143 205.682 888.042 205.682C889.94 205.682 891.459 204.069 891.459 202.265Z" fill="#231F20"/>
<path d="M942.719 202.265C942.719 199.132 940.156 196.569 937.024 196.569C933.891 196.569 931.328 199.132 931.328 202.265C931.328 205.398 933.891 207.961 937.024 207.961C940.156 207.961 942.719 205.398 942.719 202.265Z" fill="#231F20"/>
<path d="M995.309 202.265C995.309 197.139 991.132 192.962 986.006 192.962C980.88 192.962 976.703 197.139 976.703 202.265C976.703 207.391 980.88 211.568 986.006 211.568C991.227 211.568 995.309 207.391 995.309 202.265Z" fill="#231F20"/>
<path d="M1040.68 202.265C1040.68 199.132 1038.22 196.664 1035.08 196.664C1031.95 196.664 1029.48 199.132 1029.48 202.265C1029.48 205.398 1031.95 207.866 1035.08 207.866C1038.12 207.866 1040.68 205.303 1040.68 202.265Z" fill="#231F20"/>
<path d="M1088.81 202.265C1088.81 199.607 1086.72 197.519 1084.07 197.519C1081.41 197.519 1079.32 199.607 1079.32 202.265C1079.32 204.923 1081.41 207.011 1084.07 207.011C1086.72 207.011 1088.81 204.828 1088.81 202.265Z" fill="#231F20"/>
<path d="M1136.08 202.265C1136.08 200.651 1134.76 199.322 1133.14 199.322C1131.53 199.322 1130.2 200.651 1130.2 202.265C1130.2 203.879 1131.53 205.208 1133.14 205.208C1134.76 205.208 1136.08 203.879 1136.08 202.265Z" fill="#231F20"/>
<path d="M1185.64 202.265C1185.64 200.272 1184.02 198.753 1182.12 198.753C1180.13 198.753 1178.61 200.366 1178.61 202.265C1178.61 204.258 1180.23 205.777 1182.12 205.777C1184.02 205.777 1185.64 204.164 1185.64 202.265Z" fill="#231F20"/>
<path d="M1236.14 202.265C1236.14 199.512 1233.86 197.234 1231.11 197.234C1228.35 197.234 1226.08 199.512 1226.08 202.265C1226.08 205.018 1228.35 207.296 1231.11 207.296C1233.86 207.201 1236.14 205.018 1236.14 202.265Z" fill="#231F20"/>
<path d="M1287.87 202.265C1287.87 197.993 1284.36 194.481 1280.09 194.481C1275.82 194.481 1272.3 197.993 1272.3 202.265C1272.3 206.537 1275.82 210.049 1280.09 210.049C1284.36 209.954 1287.87 206.537 1287.87 202.265Z" fill="#231F20"/>
<path d="M1337.23 202.265C1337.23 197.804 1333.63 194.196 1329.17 194.196C1324.7 194.196 1321.1 197.804 1321.1 202.265C1321.1 206.727 1324.7 210.334 1329.17 210.334C1333.63 210.239 1337.23 206.632 1337.23 202.265Z" fill="#231F20"/>
<path d="M1387.36 202.265C1387.36 197.234 1383.27 193.057 1378.15 193.057C1373.12 193.057 1368.94 197.139 1368.94 202.265C1368.94 207.296 1373.02 211.473 1378.15 211.473C1383.27 211.378 1387.36 207.296 1387.36 202.265Z" fill="#231F20"/>
<path d="M1432.07 202.265C1432.07 199.607 1429.88 197.424 1427.23 197.424C1424.57 197.424 1422.38 199.607 1422.38 202.265C1422.38 204.923 1424.57 207.106 1427.23 207.106C1429.88 207.106 1432.07 204.923 1432.07 202.265Z" fill="#231F20"/>
<path d="M14.7157 142.651C14.7157 137.715 10.7288 133.728 5.79256 133.728C0.856374 133.728 -3.13057 137.715 -3.13057 142.651C-3.13057 147.587 0.856374 151.574 5.79256 151.574C10.7288 151.574 14.7157 147.587 14.7157 142.651Z" fill="#231F20"/>
<path d="M63.1283 142.651C63.1283 138.095 59.4261 134.297 54.7747 134.297C50.1233 134.297 46.4212 138 46.4212 142.651C46.4212 147.208 50.1233 151.005 54.7747 151.005C59.3312 151.005 63.1283 147.208 63.1283 142.651Z" fill="#231F20"/>
<path d="M105.655 142.651C105.655 141.607 104.801 140.752 103.757 140.752C102.713 140.752 101.858 141.607 101.858 142.651C101.858 143.695 102.713 144.55 103.757 144.55C104.801 144.55 105.655 143.695 105.655 142.651Z" fill="#231F20"/>
<path d="M161.757 142.651C161.757 137.715 157.77 133.728 152.834 133.728C147.898 133.728 143.911 137.715 143.911 142.651C143.911 147.587 147.898 151.574 152.834 151.574C157.77 151.574 161.757 147.587 161.757 142.651Z" fill="#231F20"/>
<path d="M205.613 142.651C205.613 140.563 203.905 138.854 201.816 138.854C199.728 138.854 198.019 140.563 198.019 142.651C198.019 144.739 199.728 146.448 201.816 146.448C203.905 146.448 205.613 144.739 205.613 142.651Z" fill="#231F20"/>
<path d="M254.121 142.651C254.121 140.847 252.697 139.423 250.893 139.423C249.09 139.423 247.666 140.847 247.666 142.651C247.666 144.455 249.09 145.878 250.893 145.878C252.602 145.878 254.121 144.455 254.121 142.651Z" fill="#231F20"/>
<path d="M301.869 142.651C301.869 141.512 300.92 140.658 299.876 140.658C298.736 140.658 297.882 141.607 297.882 142.651C297.882 143.79 298.831 144.644 299.876 144.644C300.92 144.644 301.869 143.79 301.869 142.651Z" fill="#231F20"/>
<path d="M357.211 142.651C357.211 138.095 353.509 134.297 348.858 134.297C344.301 134.297 340.504 138 340.504 142.651C340.504 147.208 344.206 151.005 348.858 151.005C353.509 151.005 357.211 147.208 357.211 142.651Z" fill="#231F20"/>
<path d="M403.441 142.651C403.441 139.613 400.972 137.05 397.84 137.05C394.802 137.05 392.239 139.518 392.239 142.651C392.239 145.689 394.707 148.252 397.84 148.252C400.972 148.252 403.441 145.689 403.441 142.651Z" fill="#231F20"/>
<path d="M452.518 142.651C452.518 139.518 449.955 137.05 446.917 137.05C443.784 137.05 441.316 139.613 441.316 142.651C441.316 145.784 443.784 148.252 446.917 148.252C449.955 148.252 452.518 145.784 452.518 142.651Z" fill="#231F20"/>
<path d="M503.303 142.651C503.303 138.569 499.981 135.152 495.804 135.152C491.722 135.152 488.305 138.474 488.305 142.651C488.305 146.733 491.627 150.15 495.804 150.15C499.981 150.055 503.303 146.733 503.303 142.651Z" fill="#231F20"/>
<path d="M552.191 142.651C552.191 138.664 548.963 135.342 544.881 135.342C540.894 135.342 537.572 138.569 537.572 142.651C537.572 146.638 540.8 149.961 544.881 149.961C548.963 149.961 552.191 146.638 552.191 142.651Z" fill="#231F20"/>
<path d="M599.654 142.651C599.654 139.519 597.091 136.861 593.959 136.861C590.731 136.861 588.168 139.424 588.168 142.651C588.168 145.784 590.731 148.442 593.959 148.442C597.091 148.347 599.654 145.784 599.654 142.651Z" fill="#231F20"/>
<path d="M645.314 142.651C645.314 141.322 644.27 140.278 642.941 140.278C641.612 140.278 640.568 141.322 640.568 142.651C640.568 143.98 641.612 145.024 642.941 145.024C644.27 145.024 645.314 143.98 645.314 142.651Z" fill="#231F20"/>
<path d="M697.808 142.651C697.808 139.424 695.15 136.766 691.923 136.766C688.695 136.766 686.037 139.424 686.037 142.651C686.037 145.879 688.695 148.537 691.923 148.537C695.15 148.537 697.808 145.879 697.808 142.651Z" fill="#231F20"/>
<path d="M742.899 142.651C742.899 141.607 742.044 140.658 740.905 140.658C739.861 140.658 738.912 141.512 738.912 142.651C738.912 143.695 739.766 144.644 740.905 144.644C742.044 144.55 742.899 143.695 742.899 142.651Z" fill="#231F20"/>
<path d="M792.355 142.651C792.355 141.322 791.311 140.278 789.982 140.278C788.653 140.278 787.609 141.322 787.609 142.651C787.609 143.98 788.653 145.024 789.982 145.024C791.311 145.024 792.355 143.98 792.355 142.651Z" fill="#231F20"/>
<path d="M845.23 142.651C845.23 139.234 842.477 136.481 839.059 136.481C835.642 136.481 832.889 139.234 832.889 142.651C832.889 146.068 835.642 148.821 839.059 148.821C842.382 148.821 845.23 146.068 845.23 142.651Z" fill="#231F20"/>
<path d="M892.123 142.651C892.123 140.373 890.32 138.569 888.041 138.569C885.763 138.569 883.96 140.373 883.96 142.651C883.96 144.929 885.763 146.733 888.041 146.733C890.225 146.733 892.123 144.929 892.123 142.651Z" fill="#231F20"/>
<path d="M938.163 142.651C938.163 141.987 937.688 141.512 937.024 141.512C936.359 141.512 935.884 141.987 935.884 142.651C935.884 143.316 936.359 143.79 937.024 143.79C937.688 143.79 938.163 143.316 938.163 142.651Z" fill="#231F20"/>
<path d="M991.132 142.651C991.132 139.803 988.854 137.62 986.101 137.62C983.253 137.62 981.07 139.898 981.07 142.651C981.07 145.499 983.348 147.682 986.101 147.682C988.854 147.682 991.132 145.404 991.132 142.651Z" fill="#231F20"/>
<path d="M1041.06 142.651C1041.06 139.329 1038.31 136.576 1034.99 136.576C1031.67 136.576 1028.91 139.329 1028.91 142.651C1028.91 145.973 1031.67 148.726 1034.99 148.726C1038.41 148.726 1041.06 145.973 1041.06 142.651Z" fill="#231F20"/>
<path d="M1089.48 142.651C1089.48 139.708 1087.01 137.24 1084.07 137.24C1081.12 137.24 1078.65 139.708 1078.65 142.651C1078.65 145.594 1081.12 148.062 1084.07 148.062C1087.1 148.062 1089.48 145.594 1089.48 142.651Z" fill="#231F20"/>
<path d="M1139.69 142.651C1139.69 139.044 1136.75 136.101 1133.14 136.101C1129.54 136.101 1126.59 139.044 1126.59 142.651C1126.59 146.258 1129.54 149.201 1133.14 149.201C1136.75 149.201 1139.69 146.258 1139.69 142.651Z" fill="#231F20"/>
<path d="M1184.78 142.651C1184.78 141.132 1183.55 139.993 1182.12 139.993C1180.61 139.993 1179.47 141.227 1179.47 142.651C1179.47 144.17 1180.7 145.309 1182.12 145.309C1183.55 145.309 1184.78 144.17 1184.78 142.651Z" fill="#231F20"/>
<path d="M1232.63 142.651C1232.63 141.797 1231.96 141.132 1231.11 141.132C1230.25 141.132 1229.59 141.797 1229.59 142.651C1229.59 143.505 1230.25 144.17 1231.11 144.17C1231.96 144.17 1232.63 143.505 1232.63 142.651Z" fill="#231F20"/>
<path d="M1287.4 142.651C1287.4 138.664 1284.17 135.342 1280.09 135.342C1276.1 135.342 1272.78 138.569 1272.78 142.651C1272.78 146.638 1276.01 149.961 1280.09 149.961C1284.17 149.866 1287.4 146.638 1287.4 142.651Z" fill="#231F20"/>
<path d="M1331.92 142.651C1331.92 141.132 1330.68 139.898 1329.17 139.898C1327.65 139.898 1326.41 141.132 1326.41 142.651C1326.41 144.17 1327.65 145.404 1329.17 145.404C1330.68 145.404 1331.92 144.17 1331.92 142.651Z" fill="#231F20"/>
<path d="M1380.52 142.651C1380.52 141.322 1379.48 140.278 1378.15 140.278C1376.82 140.278 1375.77 141.322 1375.77 142.651C1375.77 143.98 1376.82 145.024 1378.15 145.024C1379.48 145.024 1380.52 143.98 1380.52 142.651Z" fill="#231F20"/>
<path d="M1433.68 142.651C1433.68 139.044 1430.74 136.101 1427.13 136.101C1423.52 136.101 1420.58 139.044 1420.58 142.651C1420.58 146.258 1423.52 149.201 1427.13 149.201C1430.74 149.106 1433.68 146.258 1433.68 142.651Z" fill="#231F20"/>
<path d="M9.02014 83.037C9.02014 81.2334 7.50131 79.7146 5.69771 79.7146C3.8941 79.7146 2.37527 81.2334 2.37527 83.037C2.37527 84.8406 3.8941 86.3595 5.69771 86.3595C7.59624 86.3595 9.02014 84.9356 9.02014 83.037Z" fill="#231F20"/>
<path d="M56.4834 83.037C56.4834 82.0878 55.7239 81.3284 54.7747 81.3284C53.8254 81.3284 53.0661 82.0878 53.0661 83.037C53.0661 83.9863 53.8254 84.7457 54.7747 84.7457C55.7239 84.7457 56.4834 83.9863 56.4834 83.037Z" fill="#231F20"/>
<path d="M109.547 83.037C109.547 79.8095 106.984 77.2465 103.757 77.2465C100.529 77.2465 97.9664 79.8095 97.9664 83.037C97.9664 86.2645 100.529 88.8275 103.757 88.8275C106.984 88.8275 109.547 86.2645 109.547 83.037Z" fill="#231F20"/>
<path d="M156.726 83.037C156.726 80.8537 154.922 79.145 152.834 79.145C150.651 79.145 148.942 80.9486 148.942 83.037C148.942 85.2203 150.746 86.929 152.834 86.929C154.922 87.0239 156.726 85.2203 156.726 83.037Z" fill="#231F20"/>
<path d="M209.505 83.0371C209.505 78.7654 206.088 75.348 201.816 75.348C197.545 75.348 194.127 78.7654 194.127 83.0371C194.127 87.3088 197.545 90.7261 201.816 90.7261C206.088 90.8211 209.505 87.3088 209.505 83.0371Z" fill="#231F20"/>
<path d="M254.121 83.037C254.121 81.2334 252.602 79.7146 250.798 79.7146C248.995 79.7146 247.476 81.2334 247.476 83.037C247.476 84.8406 248.995 86.3595 250.798 86.3595C252.602 86.3595 254.121 84.8406 254.121 83.037Z" fill="#231F20"/>
<path d="M302.154 83.0371C302.154 81.8031 301.11 80.7589 299.876 80.7589C298.641 80.7589 297.597 81.8031 297.597 83.0371C297.597 84.2712 298.641 85.3154 299.876 85.3154C301.11 85.3154 302.154 84.2712 302.154 83.0371Z" fill="#231F20"/>
<path d="M351.99 83.0371C351.99 81.3284 350.566 79.9045 348.858 79.9045C347.149 79.9045 345.725 81.3284 345.725 83.0371C345.725 84.7458 347.149 86.1697 348.858 86.1697C350.566 86.2646 351.99 84.8407 351.99 83.0371Z" fill="#231F20"/>
<path d="M403.061 83.037C403.061 80.1892 400.688 77.816 397.84 77.816C394.992 77.816 392.619 80.1892 392.619 83.037C392.619 85.8848 394.992 88.258 397.84 88.258C400.783 88.258 403.061 85.9797 403.061 83.037Z" fill="#231F20"/>
<path d="M453.372 83.037C453.372 79.4298 450.524 76.582 446.917 76.582C443.31 76.582 440.462 79.4298 440.462 83.037C440.462 86.6443 443.31 89.4921 446.917 89.4921C450.429 89.4921 453.372 86.6443 453.372 83.037Z" fill="#231F20"/>
<path d="M499.222 83.037C499.222 81.2334 497.703 79.7146 495.899 79.7146C494.096 79.7146 492.577 81.2334 492.577 83.037C492.577 84.8406 494.096 86.3595 495.899 86.3595C497.703 86.3595 499.222 84.8406 499.222 83.037Z" fill="#231F20"/>
<path d="M551.052 83.0371C551.052 79.6197 548.299 76.8668 544.881 76.8668C541.464 76.8668 538.711 79.6197 538.711 83.0371C538.711 86.4544 541.464 89.2073 544.881 89.2073C548.299 89.2073 551.052 86.4544 551.052 83.0371Z" fill="#231F20"/>
<path d="M599.085 83.037C599.085 80.1892 596.806 77.816 593.958 77.816C591.111 77.816 588.737 80.0943 588.737 83.037C588.737 85.8848 591.016 88.258 593.958 88.258C596.806 88.258 599.085 85.8848 599.085 83.037Z" fill="#231F20"/>
<path d="M650.44 83.037C650.44 78.9552 647.117 75.5378 642.941 75.5378C638.859 75.5378 635.441 78.8603 635.441 83.037C635.441 87.1189 638.764 90.5363 642.941 90.5363C647.023 90.5363 650.44 87.2138 650.44 83.037Z" fill="#231F20"/>
<path d="M696.195 83.037C696.195 80.6638 694.296 78.7653 692.018 78.7653C689.645 78.7653 687.746 80.6638 687.746 83.037C687.746 85.4101 689.645 87.3087 692.018 87.3087C694.296 87.3087 696.195 85.4101 696.195 83.037Z" fill="#231F20"/>
<path d="M745.367 83.037C745.367 80.6639 743.373 78.6704 741 78.6704C738.627 78.6704 736.633 80.6639 736.633 83.037C736.633 85.4102 738.627 87.4037 741 87.4037C743.373 87.4037 745.367 85.5051 745.367 83.037Z" fill="#231F20"/>
<path d="M791.311 83.0371C791.311 82.2777 790.742 81.7081 789.982 81.7081C789.223 81.7081 788.653 82.2777 788.653 83.0371C788.653 83.7965 789.223 84.3661 789.982 84.3661C790.742 84.3661 791.311 83.7965 791.311 83.0371Z" fill="#231F20"/>
<path d="M845.894 83.0371C845.894 79.24 842.856 76.1074 838.964 76.1074C835.167 76.1074 832.035 79.24 832.035 83.0371C832.035 86.8341 835.072 89.9667 838.964 89.9667C842.761 89.9667 845.894 86.8341 845.894 83.0371Z" fill="#231F20"/>
<path d="M895.73 83.0371C895.73 78.7654 892.313 75.348 888.041 75.348C883.77 75.348 880.352 78.7654 880.352 83.0371C880.352 87.3088 883.77 90.7261 888.041 90.7261C892.218 90.7261 895.73 87.3088 895.73 83.0371Z" fill="#231F20"/>
<path d="M938.353 83.0371C938.353 82.2777 937.783 81.7081 937.024 81.7081C936.264 81.7081 935.695 82.2777 935.695 83.0371C935.695 83.7965 936.264 84.3661 937.024 84.3661C937.783 84.3661 938.353 83.7965 938.353 83.0371Z" fill="#231F20"/>
<path d="M991.132 83.0371C991.132 80.2842 988.854 78.006 986.101 78.006C983.348 78.006 981.07 80.2842 981.07 83.0371C981.07 85.79 983.348 88.0682 986.101 88.0682C988.854 88.1631 991.132 85.8849 991.132 83.0371Z" fill="#231F20"/>
<path d="M1041.25 83.0371C1041.25 79.6197 1038.5 76.8668 1035.08 76.8668C1031.67 76.8668 1028.91 79.6197 1028.91 83.0371C1028.91 86.4544 1031.67 89.2073 1035.08 89.2073C1038.41 89.2073 1041.25 86.4544 1041.25 83.0371Z" fill="#231F20"/>
<path d="M1089.57 83.0371C1089.57 79.9995 1087.1 77.5314 1084.07 77.5314C1081.03 77.5314 1078.56 79.9995 1078.56 83.0371C1078.56 86.0748 1081.03 88.5429 1084.07 88.5429C1087.1 88.6378 1089.57 86.0748 1089.57 83.0371Z" fill="#231F20"/>
<path d="M1142.16 83.037C1142.16 78.0059 1138.08 73.9241 1133.05 73.9241C1128.02 73.9241 1123.93 78.0059 1123.93 83.037C1123.93 88.0681 1128.02 92.15 1133.05 92.15C1138.08 92.15 1142.16 88.0681 1142.16 83.037Z" fill="#231F20"/>
<path d="M1190 83.0371C1190 78.6705 1186.49 75.1582 1182.12 75.1582C1177.76 75.1582 1174.25 78.6705 1174.25 83.0371C1174.25 87.4037 1177.76 90.916 1182.12 90.916C1186.49 90.916 1190 87.4037 1190 83.0371Z" fill="#231F20"/>
<path d="M1233.1 83.037C1233.1 81.8979 1232.25 81.0436 1231.11 81.0436C1229.97 81.0436 1229.11 81.8979 1229.11 83.037C1229.11 84.1762 1229.97 85.0305 1231.11 85.0305C1232.25 85.0305 1233.1 84.1762 1233.1 83.037Z" fill="#231F20"/>
<path d="M1288.54 83.0371C1288.54 78.3857 1284.74 74.5886 1280.09 74.5886C1275.44 74.5886 1271.64 78.3857 1271.64 83.0371C1271.64 87.6885 1275.44 91.4856 1280.09 91.4856C1284.84 91.4856 1288.54 87.6885 1288.54 83.0371Z" fill="#231F20"/>
<path d="M1335.72 83.0371C1335.72 79.4299 1332.77 76.4872 1329.17 76.4872C1325.56 76.4872 1322.62 79.4299 1322.62 83.0371C1322.62 86.6443 1325.56 89.5871 1329.17 89.5871C1332.77 89.5871 1335.72 86.6443 1335.72 83.0371Z" fill="#231F20"/>
<path d="M1380.71 83.037C1380.71 81.6131 1379.57 80.474 1378.15 80.474C1376.72 80.474 1375.59 81.6131 1375.59 83.037C1375.59 84.4609 1376.72 85.6001 1378.15 85.6001C1379.57 85.6001 1380.71 84.4609 1380.71 83.037Z" fill="#231F20"/>
<path d="M1429.69 83.0371C1429.69 81.7081 1428.55 80.569 1427.23 80.569C1425.9 80.569 1424.76 81.7081 1424.76 83.0371C1424.76 84.366 1425.9 85.5052 1427.23 85.5052C1428.55 85.5052 1429.69 84.461 1429.69 83.0371Z" fill="#231F20"/>
<path d="M7.3114 23.518C7.3114 22.6637 6.55203 21.9043 5.69769 21.9043C4.84335 21.9043 4.08387 22.5688 4.08387 23.518C4.08387 24.3724 4.84335 25.1318 5.69769 25.1318C6.64696 25.0369 7.3114 24.3724 7.3114 23.518Z" fill="#231F20"/>
<path d="M60.5652 23.5181C60.5652 20.2906 58.0022 17.7275 54.7747 17.7275C51.5472 17.7275 48.9842 20.2906 48.9842 23.5181C48.9842 26.7456 51.5472 29.3086 54.7747 29.3086C58.0022 29.3086 60.5652 26.6506 60.5652 23.5181Z" fill="#231F20"/>
<path d="M108.598 23.518C108.598 20.8601 106.415 18.6768 103.757 18.6768C101.099 18.6768 98.9157 20.8601 98.9157 23.518C98.9157 26.176 101.099 28.3593 103.757 28.3593C106.415 28.2644 108.598 26.176 108.598 23.518Z" fill="#231F20"/>
<path d="M159.384 23.518C159.384 19.8159 156.441 16.8732 152.739 16.8732C149.037 16.8732 146.094 19.8159 146.094 23.518C146.094 27.2202 149.037 30.1629 152.739 30.1629C156.441 30.068 159.384 27.1253 159.384 23.518Z" fill="#231F20"/>
<path d="M205.328 23.518C205.328 21.5245 203.715 19.9108 201.721 19.9108C199.728 19.9108 198.114 21.5245 198.114 23.518C198.114 25.5114 199.728 27.1252 201.721 27.1252C203.81 27.0303 205.328 25.4165 205.328 23.518Z" fill="#231F20"/>
<path d="M259.247 23.5179C259.247 18.8665 255.45 15.0695 250.798 15.0695C246.147 15.0695 242.35 18.8665 242.35 23.5179C242.35 28.1693 246.147 31.9664 250.798 31.9664C255.45 31.9664 259.247 28.1693 259.247 23.5179Z" fill="#231F20"/>
<path d="M303.198 23.518C303.198 21.7144 301.679 20.1956 299.876 20.1956C298.072 20.1956 296.553 21.7144 296.553 23.518C296.553 25.3216 298.072 26.8404 299.876 26.8404C301.679 26.8404 303.198 25.3216 303.198 23.518Z" fill="#231F20"/>
<path d="M356.072 23.518C356.072 19.5311 352.845 16.3036 348.858 16.3036C344.871 16.3036 341.643 19.5311 341.643 23.518C341.643 27.5049 344.871 30.7324 348.858 30.7324C352.845 30.6375 356.072 27.41 356.072 23.518Z" fill="#231F20"/>
<path d="M400.213 23.518C400.213 22.2839 399.169 21.2397 397.935 21.2397C396.701 21.2397 395.657 22.2839 395.657 23.518C395.657 24.752 396.701 25.7962 397.935 25.7962C399.169 25.7962 400.213 24.752 400.213 23.518Z" fill="#231F20"/>
<path d="M449.67 23.518C449.67 21.9991 448.436 20.6702 446.822 20.6702C445.303 20.6702 443.974 21.9042 443.974 23.518C443.974 25.0368 445.208 26.3658 446.822 26.3658C448.436 26.2708 449.67 25.0368 449.67 23.518Z" fill="#231F20"/>
<path d="M501.025 23.518C501.025 20.6702 498.747 18.392 495.899 18.392C493.051 18.392 490.773 20.6702 490.773 23.518C490.773 26.3658 493.051 28.6441 495.899 28.6441C498.747 28.6441 501.025 26.2709 501.025 23.518Z" fill="#231F20"/>
<path d="M549.058 23.518C549.058 21.2397 547.16 19.3412 544.881 19.3412C542.603 19.3412 540.705 21.2397 540.705 23.518C540.705 25.7962 542.603 27.6947 544.881 27.6947C547.16 27.5998 549.058 25.7962 549.058 23.518Z" fill="#231F20"/>
<path d="M599.844 23.518C599.844 20.1955 597.186 17.5376 593.864 17.5376C590.541 17.5376 587.883 20.1955 587.883 23.518C587.883 26.8404 590.541 29.4984 593.864 29.4984C597.186 29.4984 599.844 26.7455 599.844 23.518Z" fill="#231F20"/>
<path d="M647.592 23.518C647.592 20.955 645.504 18.8666 642.941 18.8666C640.378 18.8666 638.289 20.955 638.289 23.518C638.289 26.081 640.378 28.1694 642.941 28.1694C645.504 28.1694 647.592 26.081 647.592 23.518Z" fill="#231F20"/>
<path d="M695.72 23.5179C695.72 21.4295 694.011 19.8158 692.018 19.8158C689.929 19.8158 688.316 21.5245 688.316 23.5179C688.316 25.6063 689.929 27.2201 692.018 27.2201C694.011 27.2201 695.72 25.5114 695.72 23.5179Z" fill="#231F20"/>
<path d="M749.448 23.5179C749.448 18.8665 745.651 15.0695 741 15.0695C736.349 15.0695 732.551 18.8665 732.551 23.5179C732.551 28.1693 736.349 31.9664 741 31.9664C745.651 31.9664 749.448 28.1693 749.448 23.5179Z" fill="#231F20"/>
<path d="M792.45 23.518C792.45 22.189 791.311 21.0499 789.982 21.0499C788.653 21.0499 787.514 22.189 787.514 23.518C787.514 24.847 788.653 25.9861 789.982 25.9861C791.311 25.9861 792.45 24.847 792.45 23.518Z" fill="#231F20"/>
<path d="M840.768 23.518C840.768 22.5687 840.009 21.8093 839.059 21.8093C838.11 21.8093 837.351 22.5687 837.351 23.518C837.351 24.4673 838.11 25.2267 839.059 25.2267C839.914 25.2267 840.768 24.4673 840.768 23.518Z" fill="#231F20"/>
<path d="M891.933 23.5181C891.933 21.3348 890.225 19.6261 888.041 19.6261C885.858 19.6261 884.149 21.3348 884.149 23.5181C884.149 25.7014 885.858 27.4101 888.041 27.4101C890.13 27.4101 891.933 25.6065 891.933 23.5181Z" fill="#231F20"/>
<path d="M945.757 23.518C945.757 18.6768 941.865 14.7848 937.024 14.7848C932.182 14.7848 928.29 18.6768 928.29 23.518C928.29 28.3593 932.182 32.2513 937.024 32.2513C941.865 32.2513 945.757 28.2644 945.757 23.518Z" fill="#231F20"/>
<path d="M991.037 23.5181C991.037 20.7652 988.854 18.5819 986.101 18.5819C983.348 18.5819 981.165 20.7652 981.165 23.5181C981.165 26.271 983.348 28.4543 986.101 28.4543C988.759 28.4543 991.037 26.176 991.037 23.5181Z" fill="#231F20"/>
<path d="M1041.63 23.518C1041.63 19.9107 1038.69 16.968 1035.08 16.968C1031.48 16.968 1028.53 19.9107 1028.53 23.518C1028.53 27.1252 1031.48 30.0679 1035.08 30.0679C1038.69 30.0679 1041.63 27.1252 1041.63 23.518Z" fill="#231F20"/>
<path d="M1085.87 23.518C1085.87 22.5687 1085.11 21.7144 1084.07 21.7144C1083.12 21.7144 1082.26 22.4738 1082.26 23.518C1082.26 24.4672 1083.02 25.3216 1084.07 25.3216C1085.11 25.2266 1085.87 24.4672 1085.87 23.518Z" fill="#231F20"/>
<path d="M1138.17 23.518C1138.17 20.6702 1135.9 18.392 1133.05 18.392C1130.2 18.392 1127.92 20.6702 1127.92 23.518C1127.92 26.3658 1130.2 28.6441 1133.05 28.6441C1135.9 28.5491 1138.17 26.2709 1138.17 23.518Z" fill="#231F20"/>
<path d="M1185.83 23.518C1185.83 21.4296 1184.12 19.7209 1182.03 19.7209C1179.94 19.7209 1178.23 21.4296 1178.23 23.518C1178.23 25.6064 1179.94 27.3151 1182.03 27.3151C1184.21 27.2202 1185.83 25.5115 1185.83 23.518Z" fill="#231F20"/>
<path d="M1235.76 23.518C1235.76 20.955 1233.67 18.8666 1231.11 18.8666C1228.54 18.8666 1226.46 20.955 1226.46 23.518C1226.46 26.081 1228.54 28.1694 1231.11 28.1694C1233.67 28.1694 1235.76 26.081 1235.76 23.518Z" fill="#231F20"/>
<path d="M1281.99 23.518C1281.99 22.4738 1281.13 21.6195 1280.09 21.6195C1279.04 21.6195 1278.19 22.4738 1278.19 23.518C1278.19 24.5622 1279.04 25.4166 1280.09 25.4166C1281.13 25.4166 1281.99 24.5622 1281.99 23.518Z" fill="#231F20"/>
<path d="M1335.43 23.5181C1335.43 20.0058 1332.58 17.2529 1329.17 17.2529C1325.65 17.2529 1322.9 20.1007 1322.9 23.5181C1322.9 27.0304 1325.75 29.7833 1329.17 29.7833C1332.58 29.7833 1335.43 26.9354 1335.43 23.5181Z" fill="#231F20"/>
<path d="M1383.84 23.518C1383.84 20.3854 1381.28 17.8224 1378.15 17.8224C1375.02 17.8224 1372.45 20.3854 1372.45 23.518C1372.45 26.6506 1375.02 29.2136 1378.15 29.2136C1381.28 29.1187 1383.84 26.5556 1383.84 23.518Z" fill="#231F20"/>
<path d="M1435.01 23.5181C1435.01 19.2464 1431.5 15.7341 1427.23 15.7341C1422.95 15.7341 1419.44 19.2464 1419.44 23.5181C1419.44 27.7898 1422.95 31.3021 1427.23 31.3021C1431.5 31.3021 1435.01 27.7898 1435.01 23.5181Z" fill="#231F20"/>
</g>
</g>
</svg>
