<svg width="1440" height="86" viewBox="0 0 1440 86" fill="none" xmlns="http://www.w3.org/2000/svg">
<path d="M1430.59 70.3003C1430.59 68.8436 1431.72 67.7107 1433.18 67.7107C1434.65 67.7107 1435.78 68.8436 1435.78 70.3003C1435.78 71.757 1434.65 72.89 1433.18 72.89C1431.72 72.89 1430.59 71.757 1430.59 70.3003Z" fill="#4C6071"/>
<path d="M1335.78 70.3004C1335.78 62.6933 1341.95 56.7048 1349.41 56.7048C1357.04 56.7048 1363.05 62.8551 1363.05 70.3004C1363.05 77.9074 1356.88 83.896 1349.41 83.896C1341.95 83.896 1335.78 77.7456 1335.78 70.3004Z" fill="#4C6071"/>
<path d="M1260.77 70.3003C1260.77 67.5488 1262.88 65.4447 1265.64 65.4447C1268.4 65.4447 1270.51 67.5488 1270.51 70.3003C1270.51 73.0518 1268.4 75.1559 1265.64 75.1559C1262.88 75.1559 1260.77 72.8899 1260.77 70.3003Z" fill="#4C6071"/>
<path d="M1169.21 70.3003C1169.21 63.3407 1174.89 57.8378 1181.71 57.8378C1188.69 57.8378 1194.21 63.5025 1194.21 70.3003C1194.21 77.26 1188.53 82.763 1181.71 82.763C1174.89 82.763 1169.21 77.26 1169.21 70.3003Z" fill="#4C6071"/>
<path d="M1087.71 70.3003C1087.71 64.6354 1092.42 59.9418 1098.1 59.9418C1103.79 59.9418 1108.49 64.4736 1108.49 70.3003C1108.49 75.9651 1103.95 80.6588 1098.1 80.6588C1092.26 80.497 1087.71 75.9651 1087.71 70.3003Z" fill="#4C6071"/>
<path d="M1010.76 70.3002C1010.76 68.5199 1012.22 67.0632 1014.01 67.0632C1015.79 67.0632 1017.25 68.5199 1017.25 70.3002C1017.25 72.0806 1015.79 73.5373 1014.01 73.5373C1012.22 73.5373 1010.76 72.0806 1010.76 70.3002Z" fill="#4C6071"/>
<path d="M928.452 69.6824C928.452 69.0484 928.98 68.52 929.614 68.52C930.248 68.52 930.777 69.0484 930.777 69.6824C930.777 70.3165 930.248 70.8449 929.614 70.8449C928.98 70.8449 928.452 70.3165 928.452 69.6824Z" fill="#4C6071"/>
<path d="M831.531 70.3003C831.531 62.0458 838.187 55.248 846.467 55.248C854.747 55.248 861.565 61.884 861.565 70.3003C861.565 78.5547 854.909 85.1907 846.467 85.1907C838.187 85.1907 831.531 78.5547 831.531 70.3003Z" fill="#4C6071"/>
<path d="M748.573 70.3003C748.573 62.5314 754.904 56.2192 762.697 56.2192C770.49 56.2192 776.821 62.5314 776.821 70.3003C776.821 78.0692 770.49 84.3814 762.697 84.3814C754.904 84.2196 748.573 78.0692 748.573 70.3003Z" fill="#4C6071"/>
<path d="M666.588 70.3003C666.588 63.5025 672.108 57.9995 678.926 57.9995C685.745 57.9995 691.265 63.5025 691.265 70.3003C691.265 77.0981 685.745 82.6011 678.926 82.6011C672.108 82.4393 666.588 76.9362 666.588 70.3003Z" fill="#4C6071"/>
<path d="M590.286 70.3003C590.286 67.7106 592.396 65.6066 594.994 65.6066C597.591 65.6066 599.702 67.7106 599.702 70.3003C599.702 72.8899 597.591 74.994 594.994 74.994C592.396 74.8322 590.286 72.728 590.286 70.3003Z" fill="#4C6071"/>
<path d="M500.022 70.3003C500.022 64.1499 505.054 59.2944 511.061 59.2944C517.23 59.2944 522.101 64.3118 522.101 70.3003C522.101 76.4507 517.068 81.3063 511.061 81.3063C505.054 81.3063 500.022 76.2888 500.022 70.3003Z" fill="#4C6071"/>
<path d="M419.011 70.3002C419.011 65.6065 422.745 61.884 427.453 61.884C432.161 61.884 435.895 65.6065 435.895 70.3002C435.895 74.994 432.161 78.7166 427.453 78.7166C422.745 78.7166 419.011 74.8321 419.011 70.3002Z" fill="#4C6071"/>
<path d="M330.695 70.3003C330.695 63.3406 336.377 57.6758 343.358 57.6758C350.339 57.6758 356.021 63.3406 356.021 70.3003C356.021 77.2599 350.339 82.9248 343.358 82.9248C336.54 82.9248 330.695 77.2599 330.695 70.3003Z" fill="#4C6071"/>
<path d="M255.529 70.3003C255.529 68.0343 257.477 66.0921 259.75 66.0921C262.023 66.0921 263.971 68.0343 263.971 70.3003C263.971 72.5662 262.023 74.5085 259.75 74.5085C257.315 74.5085 255.529 72.5662 255.529 70.3003Z" fill="#4C6071"/>
<path d="M160.557 70.3003C160.557 61.884 167.376 55.0862 175.818 55.0862C184.259 55.0862 191.078 61.884 191.078 70.3003C191.078 78.7166 184.259 85.5145 175.818 85.5145C167.538 85.5145 160.557 78.7166 160.557 70.3003Z" fill="#4C6071"/>
<path d="M88.8002 70.3002C88.8002 68.5199 90.2613 67.0632 92.0471 67.0632C93.8329 67.0632 95.294 68.5199 95.294 70.3002C95.294 72.0806 93.8329 73.5373 92.0471 73.5373C90.2613 73.3754 88.8002 72.0806 88.8002 70.3002Z" fill="#4C6071"/>
<path d="M3.08179 70.3003C3.08179 67.5488 5.35465 65.1211 8.27687 65.1211C11.0367 65.1211 13.4719 67.3869 13.4719 70.3003C13.4719 73.0517 11.1991 75.3177 8.27687 75.3177C5.35465 75.3177 3.08179 73.0517 3.08179 70.3003Z" fill="#4C6071"/>
<path d="M1418.57 14.7285C1418.57 6.6359 1425.23 0 1433.18 0C1441.3 0 1447.96 6.6359 1447.96 14.7285C1447.96 22.8211 1441.3 29.2952 1433.18 29.2952C1425.07 29.4571 1418.57 22.8211 1418.57 14.7285Z" fill="#4C6071"/>
<path d="M1339.67 14.7285C1339.67 9.38742 1344.06 5.01741 1349.41 5.01741C1354.77 5.01741 1359.15 9.38742 1359.15 14.7285C1359.15 20.0697 1354.77 24.4397 1349.41 24.4397C1344.06 24.4397 1339.67 20.0697 1339.67 14.7285Z" fill="#4C6071"/>
<path d="M1254.44 14.7285C1254.44 8.57808 1259.47 3.56071 1265.64 3.56071C1271.81 3.56071 1276.85 8.57808 1276.85 14.7285C1276.85 20.8788 1271.81 25.8963 1265.64 25.8963C1259.47 25.8963 1254.44 20.8788 1254.44 14.7285Z" fill="#4C6071"/>
<path d="M1171.81 11.3019C1171.81 7.70883 1174.77 4.85553 1178.25 4.85553C1181.85 4.85553 1184.7 7.81451 1184.7 11.3019C1184.7 14.895 1181.74 17.7483 1178.25 17.7483C1174.66 17.854 1171.81 14.895 1171.81 11.3019Z" fill="#4C6071"/>
<path d="M1086.25 14.7286C1086.25 8.25447 1091.45 3.07518 1097.94 3.07518C1104.43 3.07518 1109.63 8.25447 1109.63 14.7286C1109.63 21.2027 1104.43 26.3819 1097.94 26.3819C1091.45 26.3819 1086.25 21.2027 1086.25 14.7286Z" fill="#4C6071"/>
<path d="M1001.18 14.7285C1001.18 7.60703 1007.03 1.78035 1014.17 1.78035C1021.31 1.78035 1027.16 7.60703 1027.16 14.7285C1027.16 21.85 1021.31 27.6767 1014.17 27.6767C1007.03 27.6767 1001.18 21.85 1001.18 14.7285Z" fill="#4C6071"/>
<path d="M916.925 14.7285C916.925 7.44516 922.932 1.4566 930.237 1.4566C937.543 1.4566 943.55 7.44516 943.55 14.7285C943.55 22.0119 937.543 28.0004 930.237 28.0004C922.932 28.0004 916.925 22.0119 916.925 14.7285Z" fill="#4C6071"/>
<path d="M837.7 14.7285C837.7 9.87297 841.597 5.98857 846.467 5.98857C851.337 5.98857 855.234 9.87297 855.234 14.7285C855.234 19.5841 851.337 23.4686 846.467 23.4686C841.597 23.4686 837.7 19.5841 837.7 14.7285Z" fill="#4C6071"/>
<path d="M760.911 14.7285C760.911 13.7574 761.722 13.11 762.534 13.11C763.508 13.11 764.157 13.9193 764.157 14.7285C764.157 15.6996 763.345 16.347 762.534 16.347C761.722 16.5089 760.911 15.6996 760.911 14.7285Z" fill="#4C6071"/>
<path d="M674.543 14.7286C674.543 12.4626 676.491 10.5204 678.764 10.5204C681.037 10.5204 682.985 12.4626 682.985 14.7286C682.985 16.9945 681.037 18.9368 678.764 18.9368C676.491 18.9368 674.543 16.9945 674.543 14.7286Z" fill="#4C6071"/>
<path d="M584.604 14.7286C584.604 9.06374 589.312 4.37009 594.994 4.37009C600.676 4.37009 605.384 9.06374 605.384 14.7286C605.384 20.3934 600.676 25.0872 594.994 25.0872C589.312 25.0872 584.604 20.3934 584.604 14.7286Z" fill="#4C6071"/>
<path d="M507.652 14.7285C507.652 12.7863 509.275 11.3296 511.061 11.3296C513.009 11.3296 514.47 12.9481 514.47 14.7285C514.47 16.6707 512.847 18.1275 511.061 18.1275C509.275 18.2893 507.652 16.6707 507.652 14.7285Z" fill="#4C6071"/>
<path d="M422.583 14.7285C422.583 12.1388 424.693 10.0348 427.291 10.0348C429.888 10.0348 431.999 12.1388 431.999 14.7285C431.999 17.3181 429.888 19.4222 427.291 19.4222C424.693 19.4222 422.583 17.3181 422.583 14.7285Z" fill="#4C6071"/>
<path d="M331.345 14.7286C331.345 8.09262 336.864 2.58965 343.52 2.58965C350.177 2.58965 355.696 8.09262 355.696 14.7286C355.696 21.3645 350.177 26.8675 343.52 26.8675C336.864 26.8675 331.345 21.3645 331.345 14.7286Z" fill="#4C6071"/>
<path d="M257.964 14.1668C257.964 13.5327 258.493 13.11 259.021 13.11C259.655 13.11 260.078 13.6384 260.078 14.1668C260.078 14.8009 259.55 15.2236 259.021 15.2236C258.493 15.2236 257.964 14.8009 257.964 14.1668Z" fill="#4C6071"/>
<path d="M165.59 14.7285C165.59 9.06372 170.135 4.53188 175.818 4.53188C181.5 4.53188 186.045 9.06372 186.045 14.7285C186.045 20.3934 181.5 24.9252 175.818 24.9252C170.298 24.9252 165.59 20.3934 165.59 14.7285Z" fill="#4C6071"/>
<path d="M88.8002 14.7285C88.8002 12.9481 90.2613 11.4914 92.0471 11.4914C93.8329 11.4914 95.294 12.9481 95.294 14.7285C95.294 16.5088 93.8329 17.9655 92.0471 17.9655C90.2613 17.9655 88.8002 16.5088 88.8002 14.7285Z" fill="#4C6071"/>
<path d="M0.32196 14.7286C0.32196 10.3586 3.89355 6.79787 8.27688 6.79787C12.6602 6.79787 16.2318 10.3586 16.2318 14.7286C16.2318 19.0986 12.6602 22.6594 8.27688 22.6594C3.89355 22.6594 0.32196 19.0986 0.32196 14.7286Z" fill="#4C6071"/>
</svg>
