<svg width="134" height="57" viewBox="0 0 134 57" fill="none" xmlns="http://www.w3.org/2000/svg">
<path d="M10.8008 29.8281V30.3281H11.3008L19.1719 30.3282L19.177 30.3281C21.7996 30.3013 24.118 29.7319 26.1166 28.6036C28.1313 27.4735 29.6775 25.8507 30.7496 23.7477C31.8335 21.647 32.3672 19.2159 32.3672 16.4688L32.3672 14.6523L32.3672 14.6499C32.3538 11.9663 31.8127 9.5691 30.73 7.47099C29.6589 5.36999 28.1275 3.74137 26.14 2.59786C24.1538 1.45511 21.8782 0.890625 19.3281 0.890625H11.3008H10.8008V1.39062V29.8281ZM25.3625 23.7322L25.3611 23.7337C23.8734 25.4029 21.7754 26.2617 18.9961 26.2617H15.5508V4.97656H19.4234C22.0928 5.002 24.0901 5.86919 25.4884 7.53266L25.4883 7.53267L25.4909 7.53565C26.9122 9.19994 27.6562 11.5756 27.6562 14.7305V16.3906C27.6562 19.634 26.8681 22.0566 25.3625 23.7322Z" fill="white" stroke="black"/>
<path d="M77.7154 20.8627L77.7806 20.3047H77.2188H73.4492H73.021L72.9552 20.7278C72.5984 23.0211 71.8858 24.5271 70.8995 25.3646C69.9153 26.1982 68.4532 26.6523 66.4375 26.6523C64.2748 26.6523 62.6268 25.8138 61.4356 24.1293C60.2251 22.4175 59.5938 20.0757 59.5938 17.0547V14.3008C59.5938 11.0937 60.2592 8.69808 61.5215 7.04681C62.7864 5.40895 64.5163 4.58594 66.7695 4.58594C68.6369 4.58594 70.0162 5.07 70.9779 5.97373L70.9801 5.97577C71.9556 6.88159 72.6368 8.39252 72.9543 10.6024L73.0159 11.0312H73.4492H77.2188H77.7715L77.7162 10.4813C77.4073 7.40484 76.3051 4.95115 74.3747 3.17206C72.4404 1.37627 69.8877 0.5 66.7695 0.5C64.409 0.5 62.3103 1.06078 60.4903 2.1962C58.6695 3.31916 57.2664 4.93248 56.2787 7.0163L56.2787 7.0163L56.2775 7.0187C55.3036 9.10183 54.8242 11.5007 54.8242 14.2031V16.9375C54.8242 21.0573 55.8553 24.4047 57.9683 26.9266L57.9693 26.9278C60.1025 29.4575 62.9419 30.7188 66.4375 30.7188C69.6258 30.7188 72.2335 29.8797 74.208 28.1538L74.2082 28.1536C76.1956 26.4146 77.3527 23.9658 77.7154 20.8627Z" fill="white" stroke="black"/>
<path d="M117.375 17.1836H117.875V16.6836V13.6172V13.1172H117.375H105.551V4.97656H119.172H119.672V4.47656V1.39062V0.890625H119.172H101.301H100.801V1.39062V29.8281V30.3281H101.301H119.367H119.867V29.8281V26.7617V26.2617H119.367H105.551V17.1836H117.375Z" fill="white" stroke="black"/>
<mask id="path-4-outside-1_918:144" maskUnits="userSpaceOnUse" x="0" y="39.7422" width="134" height="17" fill="black">
<rect fill="white" y="39.7422" width="134" height="17"/>
<path d="M1 52.4432V41.3516H4.18748C5.12205 41.3516 5.96004 41.5598 6.70143 41.9763C7.44283 42.3876 8.01976 42.9793 8.43222 43.7512C8.84991 44.5232 9.05875 45.4018 9.05875 46.387V47.4078C9.05875 48.3982 8.85252 49.2768 8.44005 50.0436C8.02759 50.8105 7.44544 51.4021 6.6936 51.8186C5.94698 52.235 5.08811 52.4432 4.11699 52.4432H1ZM1.96329 42.1515V51.651H4.12482C5.32567 51.651 6.28896 51.265 7.0147 50.4931C7.74043 49.7161 8.10329 48.6673 8.10329 47.3469V46.3718C8.10329 45.0971 7.74565 44.0763 7.03036 43.3094C6.31507 42.5425 5.37266 42.1566 4.20314 42.1515H1.96329Z"/>
<path d="M14.5722 52.5956C13.8517 52.5956 13.1991 52.4229 12.6143 52.0776C12.0348 51.7322 11.5831 51.2523 11.2594 50.6378C10.9357 50.0182 10.7739 49.325 10.7739 48.5581V48.2306C10.7739 47.4383 10.9305 46.7248 11.2438 46.0899C11.5623 45.4551 12.0034 44.9574 12.5673 44.5968C13.1312 44.2312 13.7421 44.0483 14.3999 44.0483C15.4285 44.0483 16.243 44.3912 16.8434 45.0768C17.449 45.7573 17.7519 46.6892 17.7519 47.8725V48.3829H11.7058V48.5581C11.7058 49.4926 11.98 50.2722 12.5282 50.8968C13.0816 51.5164 13.776 51.8262 14.6114 51.8262C15.1126 51.8262 15.5538 51.7373 15.9349 51.5596C16.3213 51.3818 16.6711 51.0974 16.9844 50.7064L17.5717 51.1406C16.8826 52.1106 15.8827 52.5956 14.5722 52.5956ZM14.3999 44.8254C13.6951 44.8254 13.0999 45.0768 12.6143 45.5795C12.134 46.0823 11.8416 46.7578 11.7372 47.6059H16.8199V47.5069C16.7938 46.7146 16.5615 46.0696 16.1229 45.5719C15.6843 45.0742 15.11 44.8254 14.3999 44.8254ZM15.4415 40.7422H16.5771L14.768 42.8752H13.9457L15.4415 40.7422Z"/>
<path d="M22.7093 51.8262C23.3619 51.8262 23.9075 51.6485 24.3461 51.293C24.7899 50.9324 25.0301 50.4677 25.0666 49.8989H25.9673C25.9411 50.4017 25.7793 50.8613 25.4817 51.2777C25.1841 51.6891 24.7873 52.0116 24.2913 52.2452C23.8005 52.4788 23.2732 52.5956 22.7093 52.5956C21.5972 52.5956 20.7148 52.2198 20.0622 51.4682C19.4148 50.7165 19.0911 49.7059 19.0911 48.4362V48.162C19.0911 47.3494 19.2373 46.6308 19.5296 46.0061C19.822 45.3815 20.2397 44.899 20.7827 44.5587C21.3309 44.2185 21.9705 44.0483 22.7015 44.0483C23.6308 44.0483 24.3957 44.3175 24.9961 44.8558C25.6018 45.3942 25.9255 46.1026 25.9673 46.9812H25.0666C25.0248 46.3363 24.7847 45.8157 24.3461 45.4196C23.9128 45.0234 23.3645 44.8254 22.7015 44.8254C21.8556 44.8254 21.1978 45.1225 20.7279 45.7167C20.2632 46.3109 20.0309 47.1437 20.0309 48.2153V48.482C20.0309 49.5332 20.2632 50.3534 20.7279 50.9425C21.1978 51.5316 21.8583 51.8262 22.7093 51.8262Z"/>
<path d="M27.33 48.2001C27.33 47.4078 27.4866 46.6943 27.7999 46.0595C28.1183 45.4246 28.5647 44.932 29.1391 44.5816C29.7186 44.2261 30.3739 44.0483 31.1048 44.0483C32.2326 44.0483 33.1463 44.4343 33.8459 45.2063C34.5455 45.9731 34.8953 46.9914 34.8953 48.261V48.4515C34.8953 49.2488 34.7361 49.9674 34.4176 50.6073C34.1043 51.2422 33.6605 51.7322 33.0862 52.0776C32.5119 52.4229 31.8566 52.5956 31.1205 52.5956C29.9979 52.5956 29.0842 52.2122 28.3794 51.4453C27.6798 50.6734 27.33 49.6526 27.33 48.3829V48.2001ZM28.2698 48.4515C28.2698 49.4367 28.5308 50.2468 29.0529 50.8816C29.5802 51.5113 30.2694 51.8262 31.1205 51.8262C31.9663 51.8262 32.6502 51.5113 33.1724 50.8816C33.6997 50.2468 33.9634 49.4113 33.9634 48.3753V48.2001C33.9634 47.5703 33.8433 46.9939 33.6031 46.4708C33.3629 45.9477 33.0262 45.544 32.5928 45.2596C32.1595 44.9701 31.6635 44.8254 31.1048 44.8254C30.2694 44.8254 29.5881 45.1453 29.0607 45.7852C28.5334 46.42 28.2698 47.2529 28.2698 48.2839V48.4515Z"/>
<path d="M40.7534 44.9777C40.555 44.9422 40.3435 44.9244 40.119 44.9244C39.5343 44.9244 39.0383 45.0844 38.631 45.4043C38.229 45.7192 37.9418 46.1788 37.7695 46.7832V52.4432H36.8376V44.2007H37.7539L37.7695 45.511C38.2655 44.5359 39.0617 44.0483 40.1582 44.0483C40.4192 44.0483 40.6255 44.0814 40.7769 44.1474L40.7534 44.9777Z"/>
<path d="M56.1116 49.3353C55.9835 50.5034 55.5606 51.3972 54.843 52.0168C54.1305 52.6364 53.1796 52.9462 51.9904 52.9462C51.16 52.9462 50.4244 52.7405 49.7837 52.3291C49.148 51.9178 48.656 51.3363 48.3074 50.5847C47.9588 49.8279 47.782 48.9646 47.7769 47.9946V46.5548C47.7769 45.5695 47.9511 44.696 48.2997 43.9342C48.6483 43.1725 49.148 42.5859 49.799 42.1745C50.4552 41.7581 51.2087 41.5498 52.0596 41.5498C53.2591 41.5498 54.2048 41.8723 54.8968 42.5173C55.5939 43.1572 55.9989 44.0434 56.1116 45.176H55.1582C54.9224 43.2918 53.8895 42.3497 52.0596 42.3497C51.0446 42.3497 50.2347 42.7255 49.6299 43.4772C49.0302 44.2288 48.7303 45.2674 48.7303 46.5929V47.9489C48.7303 49.2287 49.0225 50.2495 49.6068 51.0113C50.1963 51.773 50.9908 52.1539 51.9904 52.1539C52.9797 52.1539 53.7255 51.9203 54.2279 51.4531C54.7302 50.9808 55.0403 50.2749 55.1582 49.3353H56.1116Z"/>
<path d="M57.6879 48.5507C57.6879 47.7584 57.8417 47.0449 58.1492 46.4101C58.4619 45.7752 58.9002 45.2826 59.464 44.9322C60.033 44.5767 60.6763 44.3989 61.3939 44.3989C62.5011 44.3989 63.3982 44.7849 64.0851 45.5569C64.7719 46.3237 65.1154 47.342 65.1154 48.6116V48.8021C65.1154 49.5994 64.959 50.318 64.6463 50.9579C64.3388 51.5927 63.9031 52.0828 63.3392 52.4282C62.7754 52.7735 62.1321 52.9462 61.4093 52.9462C60.3072 52.9462 59.4102 52.5628 58.7182 51.7959C58.0313 51.0239 57.6879 50.0032 57.6879 48.7335V48.5507ZM58.6105 48.8021C58.6105 49.7873 58.8668 50.5973 59.3794 51.2322C59.8972 51.8619 60.5738 52.1768 61.4093 52.1768C62.2397 52.1768 62.9112 51.8619 63.4238 51.2322C63.9415 50.5973 64.2004 49.7619 64.2004 48.7259V48.5507C64.2004 47.9209 64.0825 47.3445 63.8467 46.8214C63.6109 46.2983 63.2803 45.8946 62.8548 45.6102C62.4294 45.3207 61.9424 45.176 61.3939 45.176C60.5738 45.176 59.9048 45.4959 59.3871 46.1358C58.8694 46.7706 58.6105 47.6035 58.6105 48.6345V48.8021Z"/>
<path d="M68.0525 52.7938H67.1299V41.0928H68.0525V52.7938Z"/>
<path d="M70.0517 48.5507C70.0517 47.7584 70.2054 47.0449 70.513 46.4101C70.8257 45.7752 71.2639 45.2826 71.8278 44.9322C72.3968 44.5767 73.0401 44.3989 73.7577 44.3989C74.8649 44.3989 75.762 44.7849 76.4488 45.5569C77.1357 46.3237 77.4791 47.342 77.4791 48.6116V48.8021C77.4791 49.5994 77.3228 50.318 77.0101 50.9579C76.7026 51.5927 76.2669 52.0828 75.703 52.4282C75.1392 52.7735 74.4958 52.9462 73.7731 52.9462C72.671 52.9462 71.774 52.5628 71.082 51.7959C70.3951 51.0239 70.0517 50.0032 70.0517 48.7335V48.5507ZM70.9743 48.8021C70.9743 49.7873 71.2306 50.5973 71.7432 51.2322C72.2609 51.8619 72.9376 52.1768 73.7731 52.1768C74.6035 52.1768 75.275 51.8619 75.7876 51.2322C76.3053 50.5973 76.5642 49.7619 76.5642 48.7259V48.5507C76.5642 47.9209 76.4463 47.3445 76.2105 46.8214C75.9747 46.2983 75.6441 45.8946 75.2186 45.6102C74.7932 45.3207 74.3062 45.176 73.7577 45.176C72.9376 45.176 72.2686 45.4959 71.7509 46.1358C71.2332 46.7706 70.9743 47.6035 70.9743 48.6345V48.8021Z"/>
<path d="M83.2305 45.3283C83.0357 45.2928 82.8281 45.275 82.6077 45.275C82.0336 45.275 81.5466 45.435 81.1468 45.7549C80.7521 46.0698 80.4701 46.5294 80.301 47.1338V52.7938H79.386V44.5513H80.2856L80.301 45.8616C80.7879 44.8865 81.5697 44.3989 82.6461 44.3989C82.9024 44.3989 83.1049 44.4319 83.2535 44.498L83.2305 45.3283Z"/>
<path d="M96.543 47.4916H91.2156V51.9366H97.3409V52.7149H90.2534V41.8193H97.3018V42.6051H91.2156V46.7134H96.543V47.4916Z"/>
<path d="M101.816 47.9032L104.1 44.6181H105.211L102.34 48.5917L105.336 52.7149H104.233L101.823 49.2876L99.4139 52.7149H98.3109L101.299 48.5917L98.4283 44.6181H99.5313L101.816 47.9032Z"/>
<path d="M113.753 48.7488C113.753 50.011 113.461 51.0137 112.877 51.7571C112.293 52.4954 111.511 52.8646 110.53 52.8646C109.372 52.8646 108.486 52.4754 107.87 51.6972V55.8279H106.939V44.6181H107.808L107.855 45.763C108.465 44.8999 109.349 44.4684 110.507 44.4684C111.518 44.4684 112.311 44.8351 112.885 45.5684C113.464 46.3018 113.753 47.3195 113.753 48.6216V48.7488ZM112.814 48.5917C112.814 47.559 112.593 46.7433 112.149 46.1446C111.706 45.546 111.088 45.2467 110.295 45.2467C109.722 45.2467 109.229 45.3789 108.817 45.6433C108.405 45.9077 108.089 46.2918 107.87 46.7957V50.6795C108.095 51.1434 108.415 51.4976 108.833 51.7421C109.25 51.9865 109.743 52.1088 110.311 52.1088C111.099 52.1088 111.711 51.8094 112.149 51.2108C112.593 50.6071 112.814 49.7341 112.814 48.5917Z"/>
<path d="M119.112 52.8646C118.392 52.8646 117.74 52.6949 117.156 52.3557C116.577 52.0165 116.126 51.545 115.803 50.9414C115.479 50.3327 115.318 49.6518 115.318 48.8985V48.5767C115.318 47.7984 115.474 47.0975 115.787 46.4739C116.105 45.8503 116.546 45.3614 117.109 45.0072C117.672 44.648 118.283 44.4684 118.94 44.4684C119.967 44.4684 120.781 44.8051 121.38 45.4786C121.985 46.1471 122.288 47.0626 122.288 48.225V48.7263H116.249V48.8985C116.249 49.8164 116.522 50.5822 117.07 51.1958C117.623 51.8044 118.316 52.1088 119.151 52.1088C119.652 52.1088 120.092 52.0215 120.473 51.8469C120.859 51.6722 121.208 51.3929 121.521 51.0087L122.108 51.4353C121.42 52.3881 120.421 52.8646 119.112 52.8646ZM118.94 45.2317C118.236 45.2317 117.641 45.4786 117.156 45.9725C116.676 46.4664 116.384 47.1299 116.28 47.9631H121.357V47.8658C121.331 47.0875 121.099 46.4539 120.661 45.965C120.223 45.4761 119.649 45.2317 118.94 45.2317Z"/>
<path d="M128.022 45.3813C127.824 45.3464 127.613 45.329 127.388 45.329C126.804 45.329 126.309 45.4861 125.902 45.8004C125.5 46.1097 125.214 46.5612 125.041 47.1549V52.7149H124.111V44.6181H125.026L125.041 45.9052C125.537 44.9473 126.332 44.4684 127.427 44.4684C127.688 44.4684 127.894 44.5008 128.045 44.5657L128.022 45.3813Z"/>
<path d="M131.354 42.5452V44.6181H133.107V45.3514H131.354V50.7468C131.354 51.1958 131.438 51.5301 131.605 51.7496C131.777 51.9691 132.061 52.0788 132.458 52.0788C132.614 52.0788 132.867 52.0539 133.216 52.004L133.255 52.7374C133.01 52.8222 132.677 52.8646 132.254 52.8646C131.613 52.8646 131.146 52.6875 130.854 52.3333C130.562 51.9741 130.416 51.4477 130.416 50.7543V45.3514H128.859V44.6181H130.416V42.5452H131.354Z"/>
</mask>
<path d="M1 52.4432V41.3516H4.18748C5.12205 41.3516 5.96004 41.5598 6.70143 41.9763C7.44283 42.3876 8.01976 42.9793 8.43222 43.7512C8.84991 44.5232 9.05875 45.4018 9.05875 46.387V47.4078C9.05875 48.3982 8.85252 49.2768 8.44005 50.0436C8.02759 50.8105 7.44544 51.4021 6.6936 51.8186C5.94698 52.235 5.08811 52.4432 4.11699 52.4432H1ZM1.96329 42.1515V51.651H4.12482C5.32567 51.651 6.28896 51.265 7.0147 50.4931C7.74043 49.7161 8.10329 48.6673 8.10329 47.3469V46.3718C8.10329 45.0971 7.74565 44.0763 7.03036 43.3094C6.31507 42.5425 5.37266 42.1566 4.20314 42.1515H1.96329Z" fill="white"/>
<path d="M14.5722 52.5956C13.8517 52.5956 13.1991 52.4229 12.6143 52.0776C12.0348 51.7322 11.5831 51.2523 11.2594 50.6378C10.9357 50.0182 10.7739 49.325 10.7739 48.5581V48.2306C10.7739 47.4383 10.9305 46.7248 11.2438 46.0899C11.5623 45.4551 12.0034 44.9574 12.5673 44.5968C13.1312 44.2312 13.7421 44.0483 14.3999 44.0483C15.4285 44.0483 16.243 44.3912 16.8434 45.0768C17.449 45.7573 17.7519 46.6892 17.7519 47.8725V48.3829H11.7058V48.5581C11.7058 49.4926 11.98 50.2722 12.5282 50.8968C13.0816 51.5164 13.776 51.8262 14.6114 51.8262C15.1126 51.8262 15.5538 51.7373 15.9349 51.5596C16.3213 51.3818 16.6711 51.0974 16.9844 50.7064L17.5717 51.1406C16.8826 52.1106 15.8827 52.5956 14.5722 52.5956ZM14.3999 44.8254C13.6951 44.8254 13.0999 45.0768 12.6143 45.5795C12.134 46.0823 11.8416 46.7578 11.7372 47.6059H16.8199V47.5069C16.7938 46.7146 16.5615 46.0696 16.1229 45.5719C15.6843 45.0742 15.11 44.8254 14.3999 44.8254ZM15.4415 40.7422H16.5771L14.768 42.8752H13.9457L15.4415 40.7422Z" fill="white"/>
<path d="M22.7093 51.8262C23.3619 51.8262 23.9075 51.6485 24.3461 51.293C24.7899 50.9324 25.0301 50.4677 25.0666 49.8989H25.9673C25.9411 50.4017 25.7793 50.8613 25.4817 51.2777C25.1841 51.6891 24.7873 52.0116 24.2913 52.2452C23.8005 52.4788 23.2732 52.5956 22.7093 52.5956C21.5972 52.5956 20.7148 52.2198 20.0622 51.4682C19.4148 50.7165 19.0911 49.7059 19.0911 48.4362V48.162C19.0911 47.3494 19.2373 46.6308 19.5296 46.0061C19.822 45.3815 20.2397 44.899 20.7827 44.5587C21.3309 44.2185 21.9705 44.0483 22.7015 44.0483C23.6308 44.0483 24.3957 44.3175 24.9961 44.8558C25.6018 45.3942 25.9255 46.1026 25.9673 46.9812H25.0666C25.0248 46.3363 24.7847 45.8157 24.3461 45.4196C23.9128 45.0234 23.3645 44.8254 22.7015 44.8254C21.8556 44.8254 21.1978 45.1225 20.7279 45.7167C20.2632 46.3109 20.0309 47.1437 20.0309 48.2153V48.482C20.0309 49.5332 20.2632 50.3534 20.7279 50.9425C21.1978 51.5316 21.8583 51.8262 22.7093 51.8262Z" fill="white"/>
<path d="M27.33 48.2001C27.33 47.4078 27.4866 46.6943 27.7999 46.0595C28.1183 45.4246 28.5647 44.932 29.1391 44.5816C29.7186 44.2261 30.3739 44.0483 31.1048 44.0483C32.2326 44.0483 33.1463 44.4343 33.8459 45.2063C34.5455 45.9731 34.8953 46.9914 34.8953 48.261V48.4515C34.8953 49.2488 34.7361 49.9674 34.4176 50.6073C34.1043 51.2422 33.6605 51.7322 33.0862 52.0776C32.5119 52.4229 31.8566 52.5956 31.1205 52.5956C29.9979 52.5956 29.0842 52.2122 28.3794 51.4453C27.6798 50.6734 27.33 49.6526 27.33 48.3829V48.2001ZM28.2698 48.4515C28.2698 49.4367 28.5308 50.2468 29.0529 50.8816C29.5802 51.5113 30.2694 51.8262 31.1205 51.8262C31.9663 51.8262 32.6502 51.5113 33.1724 50.8816C33.6997 50.2468 33.9634 49.4113 33.9634 48.3753V48.2001C33.9634 47.5703 33.8433 46.9939 33.6031 46.4708C33.3629 45.9477 33.0262 45.544 32.5928 45.2596C32.1595 44.9701 31.6635 44.8254 31.1048 44.8254C30.2694 44.8254 29.5881 45.1453 29.0607 45.7852C28.5334 46.42 28.2698 47.2529 28.2698 48.2839V48.4515Z" fill="white"/>
<path d="M40.7534 44.9777C40.555 44.9422 40.3435 44.9244 40.119 44.9244C39.5343 44.9244 39.0383 45.0844 38.631 45.4043C38.229 45.7192 37.9418 46.1788 37.7695 46.7832V52.4432H36.8376V44.2007H37.7539L37.7695 45.511C38.2655 44.5359 39.0617 44.0483 40.1582 44.0483C40.4192 44.0483 40.6255 44.0814 40.7769 44.1474L40.7534 44.9777Z" fill="white"/>
<path d="M56.1116 49.3353C55.9835 50.5034 55.5606 51.3972 54.843 52.0168C54.1305 52.6364 53.1796 52.9462 51.9904 52.9462C51.16 52.9462 50.4244 52.7405 49.7837 52.3291C49.148 51.9178 48.656 51.3363 48.3074 50.5847C47.9588 49.8279 47.782 48.9646 47.7769 47.9946V46.5548C47.7769 45.5695 47.9511 44.696 48.2997 43.9342C48.6483 43.1725 49.148 42.5859 49.799 42.1745C50.4552 41.7581 51.2087 41.5498 52.0596 41.5498C53.2591 41.5498 54.2048 41.8723 54.8968 42.5173C55.5939 43.1572 55.9989 44.0434 56.1116 45.176H55.1582C54.9224 43.2918 53.8895 42.3497 52.0596 42.3497C51.0446 42.3497 50.2347 42.7255 49.6299 43.4772C49.0302 44.2288 48.7303 45.2674 48.7303 46.5929V47.9489C48.7303 49.2287 49.0225 50.2495 49.6068 51.0113C50.1963 51.773 50.9908 52.1539 51.9904 52.1539C52.9797 52.1539 53.7255 51.9203 54.2279 51.4531C54.7302 50.9808 55.0403 50.2749 55.1582 49.3353H56.1116Z" fill="white"/>
<path d="M57.6879 48.5507C57.6879 47.7584 57.8417 47.0449 58.1492 46.4101C58.4619 45.7752 58.9002 45.2826 59.464 44.9322C60.033 44.5767 60.6763 44.3989 61.3939 44.3989C62.5011 44.3989 63.3982 44.7849 64.0851 45.5569C64.7719 46.3237 65.1154 47.342 65.1154 48.6116V48.8021C65.1154 49.5994 64.959 50.318 64.6463 50.9579C64.3388 51.5927 63.9031 52.0828 63.3392 52.4282C62.7754 52.7735 62.1321 52.9462 61.4093 52.9462C60.3072 52.9462 59.4102 52.5628 58.7182 51.7959C58.0313 51.0239 57.6879 50.0032 57.6879 48.7335V48.5507ZM58.6105 48.8021C58.6105 49.7873 58.8668 50.5973 59.3794 51.2322C59.8972 51.8619 60.5738 52.1768 61.4093 52.1768C62.2397 52.1768 62.9112 51.8619 63.4238 51.2322C63.9415 50.5973 64.2004 49.7619 64.2004 48.7259V48.5507C64.2004 47.9209 64.0825 47.3445 63.8467 46.8214C63.6109 46.2983 63.2803 45.8946 62.8548 45.6102C62.4294 45.3207 61.9424 45.176 61.3939 45.176C60.5738 45.176 59.9048 45.4959 59.3871 46.1358C58.8694 46.7706 58.6105 47.6035 58.6105 48.6345V48.8021Z" fill="white"/>
<path d="M68.0525 52.7938H67.1299V41.0928H68.0525V52.7938Z" fill="white"/>
<path d="M70.0517 48.5507C70.0517 47.7584 70.2054 47.0449 70.513 46.4101C70.8257 45.7752 71.2639 45.2826 71.8278 44.9322C72.3968 44.5767 73.0401 44.3989 73.7577 44.3989C74.8649 44.3989 75.762 44.7849 76.4488 45.5569C77.1357 46.3237 77.4791 47.342 77.4791 48.6116V48.8021C77.4791 49.5994 77.3228 50.318 77.0101 50.9579C76.7026 51.5927 76.2669 52.0828 75.703 52.4282C75.1392 52.7735 74.4958 52.9462 73.7731 52.9462C72.671 52.9462 71.774 52.5628 71.082 51.7959C70.3951 51.0239 70.0517 50.0032 70.0517 48.7335V48.5507ZM70.9743 48.8021C70.9743 49.7873 71.2306 50.5973 71.7432 51.2322C72.2609 51.8619 72.9376 52.1768 73.7731 52.1768C74.6035 52.1768 75.275 51.8619 75.7876 51.2322C76.3053 50.5973 76.5642 49.7619 76.5642 48.7259V48.5507C76.5642 47.9209 76.4463 47.3445 76.2105 46.8214C75.9747 46.2983 75.6441 45.8946 75.2186 45.6102C74.7932 45.3207 74.3062 45.176 73.7577 45.176C72.9376 45.176 72.2686 45.4959 71.7509 46.1358C71.2332 46.7706 70.9743 47.6035 70.9743 48.6345V48.8021Z" fill="white"/>
<path d="M83.2305 45.3283C83.0357 45.2928 82.8281 45.275 82.6077 45.275C82.0336 45.275 81.5466 45.435 81.1468 45.7549C80.7521 46.0698 80.4701 46.5294 80.301 47.1338V52.7938H79.386V44.5513H80.2856L80.301 45.8616C80.7879 44.8865 81.5697 44.3989 82.6461 44.3989C82.9024 44.3989 83.1049 44.4319 83.2535 44.498L83.2305 45.3283Z" fill="white"/>
<path d="M96.543 47.4916H91.2156V51.9366H97.3409V52.7149H90.2534V41.8193H97.3018V42.6051H91.2156V46.7134H96.543V47.4916Z" fill="white"/>
<path d="M101.816 47.9032L104.1 44.6181H105.211L102.34 48.5917L105.336 52.7149H104.233L101.823 49.2876L99.4139 52.7149H98.3109L101.299 48.5917L98.4283 44.6181H99.5313L101.816 47.9032Z" fill="white"/>
<path d="M113.753 48.7488C113.753 50.011 113.461 51.0137 112.877 51.7571C112.293 52.4954 111.511 52.8646 110.53 52.8646C109.372 52.8646 108.486 52.4754 107.87 51.6972V55.8279H106.939V44.6181H107.808L107.855 45.763C108.465 44.8999 109.349 44.4684 110.507 44.4684C111.518 44.4684 112.311 44.8351 112.885 45.5684C113.464 46.3018 113.753 47.3195 113.753 48.6216V48.7488ZM112.814 48.5917C112.814 47.559 112.593 46.7433 112.149 46.1446C111.706 45.546 111.088 45.2467 110.295 45.2467C109.722 45.2467 109.229 45.3789 108.817 45.6433C108.405 45.9077 108.089 46.2918 107.87 46.7957V50.6795C108.095 51.1434 108.415 51.4976 108.833 51.7421C109.25 51.9865 109.743 52.1088 110.311 52.1088C111.099 52.1088 111.711 51.8094 112.149 51.2108C112.593 50.6071 112.814 49.7341 112.814 48.5917Z" fill="white"/>
<path d="M119.112 52.8646C118.392 52.8646 117.74 52.6949 117.156 52.3557C116.577 52.0165 116.126 51.545 115.803 50.9414C115.479 50.3327 115.318 49.6518 115.318 48.8985V48.5767C115.318 47.7984 115.474 47.0975 115.787 46.4739C116.105 45.8503 116.546 45.3614 117.109 45.0072C117.672 44.648 118.283 44.4684 118.94 44.4684C119.967 44.4684 120.781 44.8051 121.38 45.4786C121.985 46.1471 122.288 47.0626 122.288 48.225V48.7263H116.249V48.8985C116.249 49.8164 116.522 50.5822 117.07 51.1958C117.623 51.8044 118.316 52.1088 119.151 52.1088C119.652 52.1088 120.092 52.0215 120.473 51.8469C120.859 51.6722 121.208 51.3929 121.521 51.0087L122.108 51.4353C121.42 52.3881 120.421 52.8646 119.112 52.8646ZM118.94 45.2317C118.236 45.2317 117.641 45.4786 117.156 45.9725C116.676 46.4664 116.384 47.1299 116.28 47.9631H121.357V47.8658C121.331 47.0875 121.099 46.4539 120.661 45.965C120.223 45.4761 119.649 45.2317 118.94 45.2317Z" fill="white"/>
<path d="M128.022 45.3813C127.824 45.3464 127.613 45.329 127.388 45.329C126.804 45.329 126.309 45.4861 125.902 45.8004C125.5 46.1097 125.214 46.5612 125.041 47.1549V52.7149H124.111V44.6181H125.026L125.041 45.9052C125.537 44.9473 126.332 44.4684 127.427 44.4684C127.688 44.4684 127.894 44.5008 128.045 44.5657L128.022 45.3813Z" fill="white"/>
<path d="M131.354 42.5452V44.6181H133.107V45.3514H131.354V50.7468C131.354 51.1958 131.438 51.5301 131.605 51.7496C131.777 51.9691 132.061 52.0788 132.458 52.0788C132.614 52.0788 132.867 52.0539 133.216 52.004L133.255 52.7374C133.01 52.8222 132.677 52.8646 132.254 52.8646C131.613 52.8646 131.146 52.6875 130.854 52.3333C130.562 51.9741 130.416 51.4477 130.416 50.7543V45.3514H128.859V44.6181H130.416V42.5452H131.354Z" fill="white"/>
<path d="M1 52.4432V41.3516H4.18748C5.12205 41.3516 5.96004 41.5598 6.70143 41.9763C7.44283 42.3876 8.01976 42.9793 8.43222 43.7512C8.84991 44.5232 9.05875 45.4018 9.05875 46.387V47.4078C9.05875 48.3982 8.85252 49.2768 8.44005 50.0436C8.02759 50.8105 7.44544 51.4021 6.6936 51.8186C5.94698 52.235 5.08811 52.4432 4.11699 52.4432H1ZM1.96329 42.1515V51.651H4.12482C5.32567 51.651 6.28896 51.265 7.0147 50.4931C7.74043 49.7161 8.10329 48.6673 8.10329 47.3469V46.3718C8.10329 45.0971 7.74565 44.0763 7.03036 43.3094C6.31507 42.5425 5.37266 42.1566 4.20314 42.1515H1.96329Z" stroke="white" stroke-width="0.6" mask="url(#path-4-outside-1_918:144)"/>
<path d="M14.5722 52.5956C13.8517 52.5956 13.1991 52.4229 12.6143 52.0776C12.0348 51.7322 11.5831 51.2523 11.2594 50.6378C10.9357 50.0182 10.7739 49.325 10.7739 48.5581V48.2306C10.7739 47.4383 10.9305 46.7248 11.2438 46.0899C11.5623 45.4551 12.0034 44.9574 12.5673 44.5968C13.1312 44.2312 13.7421 44.0483 14.3999 44.0483C15.4285 44.0483 16.243 44.3912 16.8434 45.0768C17.449 45.7573 17.7519 46.6892 17.7519 47.8725V48.3829H11.7058V48.5581C11.7058 49.4926 11.98 50.2722 12.5282 50.8968C13.0816 51.5164 13.776 51.8262 14.6114 51.8262C15.1126 51.8262 15.5538 51.7373 15.9349 51.5596C16.3213 51.3818 16.6711 51.0974 16.9844 50.7064L17.5717 51.1406C16.8826 52.1106 15.8827 52.5956 14.5722 52.5956ZM14.3999 44.8254C13.6951 44.8254 13.0999 45.0768 12.6143 45.5795C12.134 46.0823 11.8416 46.7578 11.7372 47.6059H16.8199V47.5069C16.7938 46.7146 16.5615 46.0696 16.1229 45.5719C15.6843 45.0742 15.11 44.8254 14.3999 44.8254ZM15.4415 40.7422H16.5771L14.768 42.8752H13.9457L15.4415 40.7422Z" stroke="white" stroke-width="0.6" mask="url(#path-4-outside-1_918:144)"/>
<path d="M22.7093 51.8262C23.3619 51.8262 23.9075 51.6485 24.3461 51.293C24.7899 50.9324 25.0301 50.4677 25.0666 49.8989H25.9673C25.9411 50.4017 25.7793 50.8613 25.4817 51.2777C25.1841 51.6891 24.7873 52.0116 24.2913 52.2452C23.8005 52.4788 23.2732 52.5956 22.7093 52.5956C21.5972 52.5956 20.7148 52.2198 20.0622 51.4682C19.4148 50.7165 19.0911 49.7059 19.0911 48.4362V48.162C19.0911 47.3494 19.2373 46.6308 19.5296 46.0061C19.822 45.3815 20.2397 44.899 20.7827 44.5587C21.3309 44.2185 21.9705 44.0483 22.7015 44.0483C23.6308 44.0483 24.3957 44.3175 24.9961 44.8558C25.6018 45.3942 25.9255 46.1026 25.9673 46.9812H25.0666C25.0248 46.3363 24.7847 45.8157 24.3461 45.4196C23.9128 45.0234 23.3645 44.8254 22.7015 44.8254C21.8556 44.8254 21.1978 45.1225 20.7279 45.7167C20.2632 46.3109 20.0309 47.1437 20.0309 48.2153V48.482C20.0309 49.5332 20.2632 50.3534 20.7279 50.9425C21.1978 51.5316 21.8583 51.8262 22.7093 51.8262Z" stroke="white" stroke-width="0.6" mask="url(#path-4-outside-1_918:144)"/>
<path d="M27.33 48.2001C27.33 47.4078 27.4866 46.6943 27.7999 46.0595C28.1183 45.4246 28.5647 44.932 29.1391 44.5816C29.7186 44.2261 30.3739 44.0483 31.1048 44.0483C32.2326 44.0483 33.1463 44.4343 33.8459 45.2063C34.5455 45.9731 34.8953 46.9914 34.8953 48.261V48.4515C34.8953 49.2488 34.7361 49.9674 34.4176 50.6073C34.1043 51.2422 33.6605 51.7322 33.0862 52.0776C32.5119 52.4229 31.8566 52.5956 31.1205 52.5956C29.9979 52.5956 29.0842 52.2122 28.3794 51.4453C27.6798 50.6734 27.33 49.6526 27.33 48.3829V48.2001ZM28.2698 48.4515C28.2698 49.4367 28.5308 50.2468 29.0529 50.8816C29.5802 51.5113 30.2694 51.8262 31.1205 51.8262C31.9663 51.8262 32.6502 51.5113 33.1724 50.8816C33.6997 50.2468 33.9634 49.4113 33.9634 48.3753V48.2001C33.9634 47.5703 33.8433 46.9939 33.6031 46.4708C33.3629 45.9477 33.0262 45.544 32.5928 45.2596C32.1595 44.9701 31.6635 44.8254 31.1048 44.8254C30.2694 44.8254 29.5881 45.1453 29.0607 45.7852C28.5334 46.42 28.2698 47.2529 28.2698 48.2839V48.4515Z" stroke="white" stroke-width="0.6" mask="url(#path-4-outside-1_918:144)"/>
<path d="M40.7534 44.9777C40.555 44.9422 40.3435 44.9244 40.119 44.9244C39.5343 44.9244 39.0383 45.0844 38.631 45.4043C38.229 45.7192 37.9418 46.1788 37.7695 46.7832V52.4432H36.8376V44.2007H37.7539L37.7695 45.511C38.2655 44.5359 39.0617 44.0483 40.1582 44.0483C40.4192 44.0483 40.6255 44.0814 40.7769 44.1474L40.7534 44.9777Z" stroke="white" stroke-width="0.6" mask="url(#path-4-outside-1_918:144)"/>
<path d="M56.1116 49.3353C55.9835 50.5034 55.5606 51.3972 54.843 52.0168C54.1305 52.6364 53.1796 52.9462 51.9904 52.9462C51.16 52.9462 50.4244 52.7405 49.7837 52.3291C49.148 51.9178 48.656 51.3363 48.3074 50.5847C47.9588 49.8279 47.782 48.9646 47.7769 47.9946V46.5548C47.7769 45.5695 47.9511 44.696 48.2997 43.9342C48.6483 43.1725 49.148 42.5859 49.799 42.1745C50.4552 41.7581 51.2087 41.5498 52.0596 41.5498C53.2591 41.5498 54.2048 41.8723 54.8968 42.5173C55.5939 43.1572 55.9989 44.0434 56.1116 45.176H55.1582C54.9224 43.2918 53.8895 42.3497 52.0596 42.3497C51.0446 42.3497 50.2347 42.7255 49.6299 43.4772C49.0302 44.2288 48.7303 45.2674 48.7303 46.5929V47.9489C48.7303 49.2287 49.0225 50.2495 49.6068 51.0113C50.1963 51.773 50.9908 52.1539 51.9904 52.1539C52.9797 52.1539 53.7255 51.9203 54.2279 51.4531C54.7302 50.9808 55.0403 50.2749 55.1582 49.3353H56.1116Z" stroke="white" stroke-width="0.6" mask="url(#path-4-outside-1_918:144)"/>
<path d="M57.6879 48.5507C57.6879 47.7584 57.8417 47.0449 58.1492 46.4101C58.4619 45.7752 58.9002 45.2826 59.464 44.9322C60.033 44.5767 60.6763 44.3989 61.3939 44.3989C62.5011 44.3989 63.3982 44.7849 64.0851 45.5569C64.7719 46.3237 65.1154 47.342 65.1154 48.6116V48.8021C65.1154 49.5994 64.959 50.318 64.6463 50.9579C64.3388 51.5927 63.9031 52.0828 63.3392 52.4282C62.7754 52.7735 62.1321 52.9462 61.4093 52.9462C60.3072 52.9462 59.4102 52.5628 58.7182 51.7959C58.0313 51.0239 57.6879 50.0032 57.6879 48.7335V48.5507ZM58.6105 48.8021C58.6105 49.7873 58.8668 50.5973 59.3794 51.2322C59.8972 51.8619 60.5738 52.1768 61.4093 52.1768C62.2397 52.1768 62.9112 51.8619 63.4238 51.2322C63.9415 50.5973 64.2004 49.7619 64.2004 48.7259V48.5507C64.2004 47.9209 64.0825 47.3445 63.8467 46.8214C63.6109 46.2983 63.2803 45.8946 62.8548 45.6102C62.4294 45.3207 61.9424 45.176 61.3939 45.176C60.5738 45.176 59.9048 45.4959 59.3871 46.1358C58.8694 46.7706 58.6105 47.6035 58.6105 48.6345V48.8021Z" stroke="white" stroke-width="0.6" mask="url(#path-4-outside-1_918:144)"/>
<path d="M68.0525 52.7938H67.1299V41.0928H68.0525V52.7938Z" stroke="white" stroke-width="0.6" mask="url(#path-4-outside-1_918:144)"/>
<path d="M70.0517 48.5507C70.0517 47.7584 70.2054 47.0449 70.513 46.4101C70.8257 45.7752 71.2639 45.2826 71.8278 44.9322C72.3968 44.5767 73.0401 44.3989 73.7577 44.3989C74.8649 44.3989 75.762 44.7849 76.4488 45.5569C77.1357 46.3237 77.4791 47.342 77.4791 48.6116V48.8021C77.4791 49.5994 77.3228 50.318 77.0101 50.9579C76.7026 51.5927 76.2669 52.0828 75.703 52.4282C75.1392 52.7735 74.4958 52.9462 73.7731 52.9462C72.671 52.9462 71.774 52.5628 71.082 51.7959C70.3951 51.0239 70.0517 50.0032 70.0517 48.7335V48.5507ZM70.9743 48.8021C70.9743 49.7873 71.2306 50.5973 71.7432 51.2322C72.2609 51.8619 72.9376 52.1768 73.7731 52.1768C74.6035 52.1768 75.275 51.8619 75.7876 51.2322C76.3053 50.5973 76.5642 49.7619 76.5642 48.7259V48.5507C76.5642 47.9209 76.4463 47.3445 76.2105 46.8214C75.9747 46.2983 75.6441 45.8946 75.2186 45.6102C74.7932 45.3207 74.3062 45.176 73.7577 45.176C72.9376 45.176 72.2686 45.4959 71.7509 46.1358C71.2332 46.7706 70.9743 47.6035 70.9743 48.6345V48.8021Z" stroke="white" stroke-width="0.6" mask="url(#path-4-outside-1_918:144)"/>
<path d="M83.2305 45.3283C83.0357 45.2928 82.8281 45.275 82.6077 45.275C82.0336 45.275 81.5466 45.435 81.1468 45.7549C80.7521 46.0698 80.4701 46.5294 80.301 47.1338V52.7938H79.386V44.5513H80.2856L80.301 45.8616C80.7879 44.8865 81.5697 44.3989 82.6461 44.3989C82.9024 44.3989 83.1049 44.4319 83.2535 44.498L83.2305 45.3283Z" stroke="white" stroke-width="0.6" mask="url(#path-4-outside-1_918:144)"/>
<path d="M96.543 47.4916H91.2156V51.9366H97.3409V52.7149H90.2534V41.8193H97.3018V42.6051H91.2156V46.7134H96.543V47.4916Z" stroke="white" stroke-width="0.6" mask="url(#path-4-outside-1_918:144)"/>
<path d="M101.816 47.9032L104.1 44.6181H105.211L102.34 48.5917L105.336 52.7149H104.233L101.823 49.2876L99.4139 52.7149H98.3109L101.299 48.5917L98.4283 44.6181H99.5313L101.816 47.9032Z" stroke="white" stroke-width="0.6" mask="url(#path-4-outside-1_918:144)"/>
<path d="M113.753 48.7488C113.753 50.011 113.461 51.0137 112.877 51.7571C112.293 52.4954 111.511 52.8646 110.53 52.8646C109.372 52.8646 108.486 52.4754 107.87 51.6972V55.8279H106.939V44.6181H107.808L107.855 45.763C108.465 44.8999 109.349 44.4684 110.507 44.4684C111.518 44.4684 112.311 44.8351 112.885 45.5684C113.464 46.3018 113.753 47.3195 113.753 48.6216V48.7488ZM112.814 48.5917C112.814 47.559 112.593 46.7433 112.149 46.1446C111.706 45.546 111.088 45.2467 110.295 45.2467C109.722 45.2467 109.229 45.3789 108.817 45.6433C108.405 45.9077 108.089 46.2918 107.87 46.7957V50.6795C108.095 51.1434 108.415 51.4976 108.833 51.7421C109.25 51.9865 109.743 52.1088 110.311 52.1088C111.099 52.1088 111.711 51.8094 112.149 51.2108C112.593 50.6071 112.814 49.7341 112.814 48.5917Z" stroke="white" stroke-width="0.6" mask="url(#path-4-outside-1_918:144)"/>
<path d="M119.112 52.8646C118.392 52.8646 117.74 52.6949 117.156 52.3557C116.577 52.0165 116.126 51.545 115.803 50.9414C115.479 50.3327 115.318 49.6518 115.318 48.8985V48.5767C115.318 47.7984 115.474 47.0975 115.787 46.4739C116.105 45.8503 116.546 45.3614 117.109 45.0072C117.672 44.648 118.283 44.4684 118.94 44.4684C119.967 44.4684 120.781 44.8051 121.38 45.4786C121.985 46.1471 122.288 47.0626 122.288 48.225V48.7263H116.249V48.8985C116.249 49.8164 116.522 50.5822 117.07 51.1958C117.623 51.8044 118.316 52.1088 119.151 52.1088C119.652 52.1088 120.092 52.0215 120.473 51.8469C120.859 51.6722 121.208 51.3929 121.521 51.0087L122.108 51.4353C121.42 52.3881 120.421 52.8646 119.112 52.8646ZM118.94 45.2317C118.236 45.2317 117.641 45.4786 117.156 45.9725C116.676 46.4664 116.384 47.1299 116.28 47.9631H121.357V47.8658C121.331 47.0875 121.099 46.4539 120.661 45.965C120.223 45.4761 119.649 45.2317 118.94 45.2317Z" stroke="white" stroke-width="0.6" mask="url(#path-4-outside-1_918:144)"/>
<path d="M128.022 45.3813C127.824 45.3464 127.613 45.329 127.388 45.329C126.804 45.329 126.309 45.4861 125.902 45.8004C125.5 46.1097 125.214 46.5612 125.041 47.1549V52.7149H124.111V44.6181H125.026L125.041 45.9052C125.537 44.9473 126.332 44.4684 127.427 44.4684C127.688 44.4684 127.894 44.5008 128.045 44.5657L128.022 45.3813Z" stroke="white" stroke-width="0.6" mask="url(#path-4-outside-1_918:144)"/>
<path d="M131.354 42.5452V44.6181H133.107V45.3514H131.354V50.7468C131.354 51.1958 131.438 51.5301 131.605 51.7496C131.777 51.9691 132.061 52.0788 132.458 52.0788C132.614 52.0788 132.867 52.0539 133.216 52.004L133.255 52.7374C133.01 52.8222 132.677 52.8646 132.254 52.8646C131.613 52.8646 131.146 52.6875 130.854 52.3333C130.562 51.9741 130.416 51.4477 130.416 50.7543V45.3514H128.859V44.6181H130.416V42.5452H131.354Z" stroke="white" stroke-width="0.6" mask="url(#path-4-outside-1_918:144)"/>
</svg>
