<svg width="1440" height="656" fill="none" xmlns="http://www.w3.org/2000/svg"><g opacity=".1"><mask id="a" style="mask-type:alpha" maskUnits="userSpaceOnUse" x="0" y="0" width="1440" height="656"><path fill="#4C7169" d="M0 0h1440v656H0z"/></mask><g mask="url(#a)" fill="#231F20"><path d="M10.16 619.278a4.457 4.457 0 00-4.462-4.462 4.457 4.457 0 00-4.462 4.462 4.457 4.457 0 004.462 4.462 4.457 4.457 0 004.461-4.462zm46.893 0c0-1.329-1.044-2.278-2.278-2.278-1.33 0-2.279 1.044-2.279 2.278s1.045 2.278 2.279 2.278 2.278-1.044 2.278-2.278zm51.925 0a5.206 5.206 0 00-5.221-5.221 5.206 5.206 0 00-5.221 5.221 5.206 5.206 0 005.221 5.221 5.206 5.206 0 005.221-5.221zm51.545 0c0-4.272-3.512-7.784-7.784-7.784s-7.784 3.512-7.784 7.784 3.512 7.784 7.784 7.784a7.758 7.758 0 007.784-7.784zm43.571 0c0-1.234-1.044-2.278-2.278-2.278s-2.278 1.044-2.278 2.278 1.044 2.278 2.278 2.278 2.278-1.044 2.278-2.278zm56.007 0c0-5.126-4.177-9.303-9.303-9.303-5.126 0-9.302 4.177-9.302 9.303 0 5.126 4.176 9.303 9.302 9.303 5.126-.095 9.303-4.177 9.303-9.303zm44.236 0c0-2.468-1.993-4.556-4.556-4.556-2.469 0-4.557 1.993-4.557 4.556 0 2.468 1.993 4.557 4.557 4.557 2.563-.095 4.556-2.089 4.556-4.557zm46.704 0a2.148 2.148 0 00-2.183-2.183 2.149 2.149 0 00-2.184 2.183c0 1.234.95 2.183 2.184 2.183 1.139 0 2.183-1.044 2.183-2.183zm55.627 0a8.71 8.71 0 00-8.733-8.733 8.71 8.71 0 00-8.733 8.733 8.71 8.71 0 008.733 8.733c4.746 0 8.733-3.892 8.733-8.733zm44.236 0a4.052 4.052 0 00-4.082-4.082 4.052 4.052 0 00-4.082 4.082 4.052 4.052 0 004.082 4.082c2.278-.095 4.082-1.899 4.082-4.082zm46.134 0c0-.57-.474-1.139-1.139-1.139-.569 0-1.139.475-1.139 1.139 0 .57.475 1.139 1.139 1.139.57 0 1.139-.569 1.139-1.139zm51.451 0a3.606 3.606 0 00-3.608-3.607 3.606 3.606 0 00-3.607 3.607 3.605 3.605 0 003.607 3.607 3.605 3.605 0 003.608-3.607zm46.798 0c0-.759-.569-1.329-1.329-1.329-.759 0-1.329.57-1.329 1.329s.57 1.329 1.329 1.329c.76 0 1.329-.57 1.329-1.329zm53.539 0c0-3.227-2.658-5.885-5.885-5.885-3.228 0-5.886 2.658-5.886 5.885 0 3.228 2.658 5.886 5.886 5.886 3.227 0 5.885-2.658 5.885-5.886zm44.711 0c0-.854-.76-1.614-1.614-1.614-.854 0-1.614.76-1.614 1.614 0 .854.76 1.614 1.614 1.614a1.6 1.6 0 001.614-1.614zm56.006 0a8.508 8.508 0 00-8.543-8.543 8.508 8.508 0 00-8.543 8.543 8.508 8.508 0 008.543 8.543 8.508 8.508 0 008.543-8.543zm46.42 0a5.956 5.956 0 00-5.981-5.98 5.955 5.955 0 00-5.98 5.98 5.956 5.956 0 005.98 5.981c3.323-.095 5.981-2.753 5.981-5.981zm46.798 0a3.808 3.808 0 00-3.797-3.797 3.809 3.809 0 00-3.797 3.797 3.809 3.809 0 003.797 3.797 3.808 3.808 0 003.797-3.797zm52.305 0a7.009 7.009 0 00-7.024-7.025 7.01 7.01 0 00-7.025 7.025 7.01 7.01 0 007.025 7.025c3.797 0 7.024-3.133 7.024-7.025zm44.616 0a2.653 2.653 0 00-2.658-2.658 2.653 2.653 0 00-2.658 2.658 2.653 2.653 0 002.658 2.658c1.424 0 2.658-1.234 2.658-2.658zm53.159 0a6.807 6.807 0 00-6.835-6.835 6.807 6.807 0 00-6.835 6.835 6.807 6.807 0 006.835 6.835 6.807 6.807 0 006.835-6.835zm47.079 0c0-2.658-2.18-4.841-4.84-4.841-2.65 0-4.84 2.183-4.84 4.841 0 2.658 2.19 4.841 4.84 4.841 2.66 0 4.84-2.183 4.84-4.841zm53.16 0c0-4.936-4.08-9.018-9.01-9.018-5.04 0-9.02 4.082-9.02 9.018 0 4.936 3.98 9.018 9.02 9.018 5.03 0 9.01-4.082 9.01-9.018zm43.29 0c0-1.803-1.52-3.322-3.32-3.322-1.81 0-3.33 1.519-3.33 3.322 0 1.804 1.52 3.323 3.33 3.323 1.9 0 3.32-1.519 3.32-3.323zm54.68 0a8.916 8.916 0 00-8.93-8.923 8.914 8.914 0 00-8.92 8.923 8.914 8.914 0 008.92 8.923c4.94 0 8.93-3.987 8.93-8.923zm47.08 0a7.006 7.006 0 00-7.02-7.025c-3.9 0-7.03 3.133-7.03 7.025a7.009 7.009 0 007.03 7.025c3.89 0 7.02-3.133 7.02-7.025zm46.99 0c0-2.753-2.28-5.031-5.03-5.031-2.75 0-5.03 2.278-5.03 5.031 0 2.753 2.28 5.031 5.03 5.031 2.85 0 5.03-2.278 5.03-5.031zm45 0c0-.569-.48-.949-.95-.949-.57 0-.95.474-.95.949 0 .57.47.949.95.949.47 0 .95-.474.95-.949zm55.05 0a7.006 7.006 0 00-7.02-7.025 7.015 7.015 0 00-7.03 7.025 7.015 7.015 0 007.03 7.025c3.89 0 7.02-3.133 7.02-7.025zm46.99 0c0-2.753-2.28-5.031-5.03-5.031-2.75 0-5.03 2.278-5.03 5.031 0 2.753 2.28 5.031 5.03 5.031 2.85 0 5.03-2.278 5.03-5.031zm-1422-59.614a4.355 4.355 0 00-4.367-4.367 4.355 4.355 0 00-4.367 4.367 4.355 4.355 0 004.367 4.367c2.373.095 4.366-1.899 4.366-4.367zm52.02 0c0-4.082-3.323-7.404-7.405-7.404-4.082 0-7.404 3.322-7.404 7.404s3.322 7.404 7.404 7.404c4.082.095 7.404-3.227 7.404-7.404zm47.083 0a5.51 5.51 0 00-5.506-5.506 5.51 5.51 0 00-5.506 5.506 5.51 5.51 0 005.506 5.506 5.51 5.51 0 005.506-5.506zm46.229 0a2.653 2.653 0 00-2.658-2.658c-1.424 0-2.658 1.234-2.658 2.658s1.234 2.658 2.658 2.658a2.653 2.653 0 002.658-2.658zm48.792 0a2.45 2.45 0 00-2.468-2.468 2.45 2.45 0 00-2.468 2.468 2.45 2.45 0 002.468 2.468c1.424.095 2.468-1.044 2.468-2.468zm52.78 0c0-3.512-2.848-6.265-6.266-6.265-3.417 0-6.265 2.848-6.265 6.265s2.848 6.265 6.265 6.265c3.513 0 6.266-2.753 6.266-6.265zm47.083 0c0-2.373-1.993-4.367-4.366-4.367-2.374 0-4.367 1.994-4.367 4.367s1.993 4.367 4.367 4.367c2.468 0 4.366-1.899 4.366-4.367zm53.824 0c0-5.031-4.082-9.113-9.113-9.113s-9.113 4.082-9.113 9.113 4.082 9.113 9.113 9.113 9.113-4.082 9.113-9.113zm45.47 0a5.511 5.511 0 00-5.506-5.506 5.51 5.51 0 00-5.506 5.506 5.51 5.51 0 005.506 5.506c3.037.095 5.506-2.373 5.506-5.506zm44.615 0c0-.664-.569-1.234-1.234-1.234-.664 0-1.234.57-1.234 1.234 0 .665.57 1.234 1.234 1.234.759 0 1.234-.569 1.234-1.234zm56.956 0c0-5.031-4.082-9.113-9.113-9.113s-9.113 4.082-9.113 9.113 4.082 9.113 9.113 9.113 9.113-4.082 9.113-9.113zm43.572 0c0-2.088-1.614-3.702-3.703-3.702-2.088 0-3.702 1.614-3.702 3.702s1.614 3.702 3.702 3.702c2.089 0 3.703-1.614 3.703-3.702zm50.975 0c0-3.132-2.563-5.695-5.695-5.695-3.133 0-5.696 2.563-5.696 5.695 0 3.133 2.563 5.696 5.696 5.696 3.227 0 5.695-2.563 5.695-5.696zm45.375 0c0-1.139-.949-1.993-1.993-1.993-1.139 0-1.994.949-1.994 1.993 0 1.139.95 1.994 1.994 1.994 1.139.094 1.993-.855 1.993-1.994zm50.216 0c0-1.709-1.423-3.133-3.132-3.133s-3.133 1.424-3.133 3.133 1.424 3.133 3.133 3.133c1.709.095 3.132-1.329 3.132-3.133zm54.773 0c0-4.936-3.987-9.018-9.018-9.018-4.936 0-9.018 3.987-9.018 9.018 0 4.936 3.987 9.018 9.018 9.018 5.031 0 9.018-4.082 9.018-9.018zm42.812 0a2.755 2.755 0 00-2.753-2.753 2.755 2.755 0 00-2.753 2.753 2.755 2.755 0 002.753 2.753 2.755 2.755 0 002.753-2.753zm55.152 0a8.912 8.912 0 00-8.923-8.923c-4.936 0-8.828 3.987-8.828 8.923s3.987 8.923 8.828 8.923a8.912 8.912 0 008.923-8.923zm46.04 0c0-3.227-2.658-5.885-5.885-5.885-3.228 0-5.886 2.658-5.886 5.885 0 3.228 2.658 5.886 5.886 5.886 3.227.095 5.885-2.563 5.885-5.886zm46.894 0a3.809 3.809 0 00-3.797-3.797 3.808 3.808 0 00-3.797 3.797 3.807 3.807 0 003.797 3.797 3.808 3.808 0 003.797-3.797zm53.064 0c0-4.272-3.513-7.784-7.784-7.784-4.272 0-7.784 3.512-7.784 7.784s3.512 7.784 7.784 7.784a7.758 7.758 0 007.784-7.784zm44.905 0a3.713 3.713 0 00-3.71-3.702c-1.99 0-3.7 1.614-3.7 3.702 0 1.994 1.61 3.702 3.7 3.702 2 0 3.71-1.614 3.71-3.702zm49.55 0c0-2.373-1.9-4.271-4.27-4.271a4.256 4.256 0 00-4.28 4.271c0 2.373 1.9 4.272 4.28 4.272 2.37 0 4.27-1.899 4.27-4.272zm51.45 0c0-3.702-3.04-6.74-6.74-6.74s-6.74 3.038-6.74 6.74c0 3.702 3.04 6.74 6.74 6.74s6.74-3.038 6.74-6.74zm49.55 0a7.214 7.214 0 00-7.22-7.214 7.211 7.211 0 00-7.21 7.214 7.212 7.212 0 007.21 7.215c3.99 0 7.22-3.228 7.22-7.215zm46.32 0c0-2.468-1.99-4.556-4.55-4.556-2.47 0-4.56 1.993-4.56 4.556 0 2.468 2.09 4.557 4.56 4.557 2.46 0 4.55-1.994 4.55-4.557zm52.88 0c0-4.651-3.8-8.448-8.45-8.448-4.65 0-8.45 3.797-8.45 8.448s3.8 8.449 8.45 8.449c4.65 0 8.45-3.798 8.45-8.449zm47.08 0c0-3.607-2.94-6.455-6.45-6.455-3.61 0-6.46 2.943-6.46 6.455 0 3.607 2.94 6.455 6.46 6.455 3.6.095 6.45-2.848 6.45-6.455zm47.94 0c0-2.943-2.37-5.411-5.41-5.411-2.94 0-5.41 2.468-5.41 5.411 0 2.943 2.47 5.411 5.41 5.411 3.04 0 5.41-2.373 5.41-5.411zm51.54 0a7.856 7.856 0 00-7.87-7.879 7.858 7.858 0 00-7.88 7.879 7.858 7.858 0 007.88 7.879c4.27 0 7.87-3.512 7.87-7.879zM7.406 500.145a1.6 1.6 0 00-1.613-1.614c-.855 0-1.614.76-1.614 1.614 0 .854.76 1.614 1.614 1.614.854 0 1.613-.76 1.613-1.614zm56.292 0a8.913 8.913 0 00-8.923-8.923 8.913 8.913 0 00-8.923 8.923 8.913 8.913 0 008.923 8.923c4.936-.095 8.923-4.082 8.923-8.923zm44.805 0c0-2.658-2.088-4.746-4.746-4.746-2.658 0-4.747 2.088-4.747 4.746 0 2.658 2.089 4.746 4.747 4.746s4.746-2.183 4.746-4.746zm53.539 0c0-5.126-4.177-9.303-9.303-9.303-5.126 0-9.303 4.177-9.303 9.303 0 5.126 4.177 9.303 9.303 9.303 5.221 0 9.303-4.177 9.303-9.303zm41.103 0c0-.759-.569-1.329-1.329-1.329-.759 0-1.329.57-1.329 1.329 0 .76.57 1.329 1.329 1.329.665-.095 1.329-.664 1.329-1.329zm50.881 0a3.201 3.201 0 00-3.228-3.228 3.201 3.201 0 00-3.227 3.228 3.2 3.2 0 003.227 3.227c1.804 0 3.228-1.518 3.228-3.227zm53.159 0c0-4.082-3.322-7.309-7.309-7.309-4.082 0-7.31 3.322-7.31 7.309 0 4.082 3.323 7.309 7.31 7.309 3.987 0 7.309-3.322 7.309-7.309zm49.836 0c0-4.556-3.607-8.164-8.163-8.164-4.557 0-8.164 3.703-8.164 8.164 0 4.557 3.702 8.164 8.164 8.164 4.556 0 8.163-3.702 8.163-8.164zm46.894 0c0-3.322-2.753-6.075-6.075-6.075s-6.075 2.753-6.075 6.075c0 3.323 2.753 6.075 6.075 6.075a6.056 6.056 0 006.075-6.075zm48.033 0a5.104 5.104 0 00-5.126-5.126 5.104 5.104 0 00-5.126 5.126 5.104 5.104 0 005.126 5.126c2.848-.095 5.126-2.373 5.126-5.126zm48.413 0a4.457 4.457 0 00-4.462-4.462 4.456 4.456 0 00-4.461 4.462 4.456 4.456 0 004.461 4.462 4.457 4.457 0 004.462-4.462zm49.362 0c0-2.658-2.184-4.841-4.842-4.841-2.658 0-4.841 2.183-4.841 4.841 0 2.658 2.183 4.841 4.841 4.841 2.658-.095 4.842-2.183 4.842-4.841zm45.564 0c0-.759-.569-1.329-1.329-1.329-.759 0-1.329.57-1.329 1.329 0 .76.57 1.329 1.329 1.329.665 0 1.329-.569 1.329-1.329zm51.356 0c0-2.088-1.709-3.702-3.702-3.702-2.089 0-3.702 1.709-3.702 3.702 0 2.088 1.708 3.702 3.702 3.702 2.088 0 3.702-1.709 3.702-3.702zm54.298 0c0-4.936-3.987-9.018-9.018-9.018-4.936 0-9.018 3.987-9.018 9.018 0 4.936 3.987 9.018 9.018 9.018 5.031-.095 9.018-4.082 9.018-9.018zm41.008 0a.95.95 0 00-.949-.949.95.95 0 00-.949.949c0 .57.474.949.949.949s.949-.474.949-.949zm57.336 0c0-5.126-4.177-9.303-9.303-9.303-5.126 0-9.303 4.177-9.303 9.303 0 5.126 4.177 9.303 9.303 9.303 5.126-.095 9.303-4.177 9.303-9.303zm41.388 0a1.6 1.6 0 00-1.614-1.614 1.6 1.6 0 00-1.613 1.614c0 .854.759 1.614 1.613 1.614.855 0 1.614-.76 1.614-1.614zm51.071 0c0-2.088-1.709-3.702-3.702-3.702-2.089 0-3.703 1.709-3.703 3.702 0 2.088 1.614 3.702 3.703 3.702 1.993 0 3.702-1.709 3.702-3.702zm48.033 0a2.755 2.755 0 00-2.753-2.753 2.755 2.755 0 00-2.753 2.753 2.755 2.755 0 002.753 2.753 2.755 2.755 0 002.753-2.753zm47.368 0c0-.664-.475-1.139-1.139-1.139-.665 0-1.139.475-1.139 1.139s.474 1.139 1.139 1.139c.664 0 1.139-.569 1.139-1.139zm50.405 0c0-1.424-1.14-2.468-2.47-2.468a2.455 2.455 0 00-2.47 2.468c0 1.424 1.14 2.468 2.47 2.468 1.33 0 2.47-1.139 2.47-2.468zm50.12 0a3.602 3.602 0 00-3.6-3.607c-2 0-3.61 1.614-3.61 3.607a3.603 3.603 0 003.61 3.607c1.99-.095 3.6-1.708 3.6-3.607zm53.64 0c0-4.556-3.71-8.259-8.26-8.259-4.56 0-8.26 3.703-8.26 8.259 0 4.556 3.7 8.259 8.26 8.259 4.55-.095 8.26-3.797 8.26-8.259zm47.27 0c0-3.607-2.94-6.55-6.55-6.55s-6.55 2.943-6.55 6.55c0 3.607 2.94 6.55 6.55 6.55 3.7-.095 6.55-2.943 6.55-6.55zm48.32 0c0-3.133-2.57-5.791-5.7-5.791a5.751 5.751 0 00-5.79 5.791c0 3.133 2.56 5.696 5.79 5.696 3.13 0 5.7-2.563 5.7-5.696zm50.69 0c0-4.082-3.32-7.404-7.41-7.404-4.08 0-7.4 3.322-7.4 7.404s3.32 7.404 7.4 7.404c4.09 0 7.41-3.322 7.41-7.404zm44.23 0c0-1.424-1.23-2.658-2.65-2.658a2.651 2.651 0 00-2.66 2.658c0 1.424 1.23 2.658 2.66 2.658 1.42 0 2.65-1.234 2.65-2.658zm55.44 0c0-5.031-4.08-9.113-9.11-9.113-5.03 0-9.11 4.082-9.11 9.113s4.08 9.113 9.11 9.113c5.03 0 9.11-4.082 9.11-9.113zm48.13 0c0-4.556-3.7-8.259-8.26-8.259s-8.26 3.703-8.26 8.259c0 4.556 3.7 8.259 8.26 8.259 4.56-.095 8.26-3.703 8.26-8.259zM9.78 440.531c0-2.183-1.804-3.987-3.987-3.987-2.184 0-3.987 1.804-3.987 3.987s1.803 3.987 3.987 3.987c2.183 0 3.986-1.804 3.986-3.987zm53.918 0a8.913 8.913 0 00-8.923-8.923 8.913 8.913 0 00-8.923 8.923 8.913 8.913 0 008.923 8.923 8.913 8.913 0 008.923-8.923zm46.419 0a6.36 6.36 0 10-12.721.001 6.36 6.36 0 0012.721-.001zm45.945 0c0-1.803-1.519-3.322-3.323-3.322-1.803 0-3.322 1.519-3.322 3.322 0 1.804 1.519 3.323 3.322 3.323a3.302 3.302 0 003.323-3.323zm51.64 0c0-3.227-2.658-5.885-5.886-5.885-3.227 0-5.885 2.658-5.885 5.885 0 3.228 2.658 5.886 5.885 5.886 3.228 0 5.886-2.658 5.886-5.886zm49.551 0c0-3.607-2.942-6.455-6.455-6.455-3.607 0-6.455 2.848-6.455 6.455s2.943 6.455 6.455 6.455c3.608 0 6.455-2.848 6.455-6.455zm51.071 0c0-4.651-3.797-8.543-8.543-8.543-4.652 0-8.544 3.797-8.544 8.543 0 4.652 3.797 8.544 8.544 8.544 4.746 0 8.543-3.892 8.543-8.544zm43.571 0c0-1.709-1.329-3.038-3.037-3.038a2.999 2.999 0 00-3.038 3.038 2.999 2.999 0 003.038 3.038c1.708 0 3.037-1.329 3.037-3.038zm48.033 0a2.106 2.106 0 00-2.088-2.088 2.106 2.106 0 00-2.088 2.088c0 1.139.949 2.088 2.088 2.088a2.106 2.106 0 002.088-2.088zm49.837 0c0-1.614-1.234-2.848-2.848-2.848-1.614 0-2.848 1.234-2.848 2.848 0 1.519 1.234 2.848 2.848 2.848 1.519 0 2.848-1.329 2.848-2.848zm50.311 0c0-2.278-1.899-4.177-4.177-4.177-2.278 0-4.177 1.899-4.177 4.177 0 2.278 1.899 4.177 4.177 4.177 2.278 0 4.177-1.899 4.177-4.177zm48.982 0c0-2.278-1.898-4.177-4.177-4.177-2.278 0-4.176 1.899-4.176 4.177 0 2.278 1.898 4.177 4.176 4.177 2.279 0 4.177-1.899 4.177-4.177zm50.311 0a5.51 5.51 0 00-5.505-5.506 5.51 5.51 0 00-5.506 5.506 5.51 5.51 0 005.506 5.506 5.51 5.51 0 005.505-5.506zm49.932 0a6.36 6.36 0 10-12.721.001 6.36 6.36 0 0012.721-.001zm46.704 0a4.052 4.052 0 00-4.082-4.082 4.052 4.052 0 00-4.082 4.082 4.052 4.052 0 004.082 4.082 4.052 4.052 0 004.082-4.082zm46.324 0c0-.759-.665-1.424-1.424-1.424-.759 0-1.424.665-1.424 1.424 0 .759.665 1.424 1.424 1.424.854 0 1.424-.665 1.424-1.424zm53.349 0c0-3.132-2.563-5.695-5.696-5.695-3.132 0-5.695 2.563-5.695 5.695 0 3.133 2.563 5.696 5.695 5.696 3.133 0 5.696-2.563 5.696-5.696zm47.083 0c0-2.088-1.708-3.702-3.702-3.702-2.088 0-3.702 1.709-3.702 3.702 0 2.088 1.614 3.702 3.702 3.702 1.994 0 3.702-1.614 3.702-3.702zm46.23 0c0-.57-.475-1.044-1.045-1.044-.569 0-1.044.474-1.044 1.044 0 .57.475 1.044 1.044 1.044.665 0 1.045-.474 1.045-1.044zm53.349 0a5.308 5.308 0 00-5.316-5.316 5.307 5.307 0 00-5.316 5.316 5.307 5.307 0 005.316 5.316 5.308 5.308 0 005.316-5.316zm50.121 0c0-3.512-2.848-6.455-6.455-6.455-3.512 0-6.455 2.848-6.455 6.455 0 3.512 2.848 6.455 6.455 6.455s6.455-2.943 6.455-6.455zm51.069 0c0-4.651-3.8-8.448-8.45-8.448-4.65 0-8.45 3.797-8.45 8.448s3.8 8.449 8.45 8.449c4.65 0 8.45-3.798 8.45-8.449zm48.7 0c0-4.461-3.61-8.164-8.16-8.164-4.47 0-8.17 3.608-8.17 8.164 0 4.462 3.61 8.164 8.17 8.164 4.46 0 8.16-3.702 8.16-8.164zm50.03 0c0-5.031-4.09-9.113-9.12-9.113-5.03 0-9.11 4.082-9.11 9.113s4.08 9.113 9.11 9.113c5.03 0 9.12-4.082 9.12-9.113zm46.79 0c0-3.797-3.13-6.93-6.93-6.93-3.79 0-6.93 3.133-6.93 6.93 0 3.797 3.14 6.93 6.93 6.93 3.8 0 6.93-3.133 6.93-6.93zm45.47 0a3.396 3.396 0 00-3.41-3.417c-1.9 0-3.42 1.519-3.42 3.417a3.404 3.404 0 003.42 3.417c1.9 0 3.41-1.518 3.41-3.417zm48.8 0a3.205 3.205 0 00-3.23-3.228c-1.8 0-3.23 1.424-3.23 3.228a3.205 3.205 0 003.23 3.228c1.8 0 3.23-1.424 3.23-3.228zm47.36 0c0-.854-.66-1.519-1.51-1.519-.86 0-1.52.665-1.52 1.519 0 .854.66 1.519 1.52 1.519.85 0 1.51-.665 1.51-1.519zm56.77 0c0-5.126-4.18-9.303-9.3-9.303-5.13 0-9.3 4.177-9.3 9.303 0 5.126 4.17 9.303 9.3 9.303 5.12 0 9.3-4.177 9.3-9.303zm48.41 0a8.708 8.708 0 00-8.73-8.733 8.708 8.708 0 00-8.73 8.733 8.708 8.708 0 008.73 8.733c4.84 0 8.73-3.892 8.73-8.733zM14.43 380.917a8.71 8.71 0 00-8.732-8.733 8.71 8.71 0 00-8.734 8.733c0 4.746 3.892 8.733 8.734 8.733a8.71 8.71 0 008.733-8.733zm42.718 0a2.35 2.35 0 00-2.373-2.373 2.35 2.35 0 00-2.373 2.373 2.35 2.35 0 002.373 2.373c1.329.095 2.373-1.044 2.373-2.373zm51.355 0c0-2.658-2.088-4.746-4.746-4.746-2.658 0-4.747 2.088-4.747 4.746 0 2.658 2.089 4.746 4.747 4.746s4.746-2.088 4.746-4.746zm51.071 0a6.807 6.807 0 00-6.835-6.835 6.807 6.807 0 00-6.835 6.835 6.807 6.807 0 006.835 6.835 6.807 6.807 0 006.835-6.835zm45.28 0c0-1.708-1.329-3.037-3.038-3.037a2.999 2.999 0 00-3.037 3.037c0 1.709 1.424 3.038 3.037 3.038 1.709.095 3.038-1.329 3.038-3.038zm48.033 0a2.107 2.107 0 00-2.089-2.088 2.106 2.106 0 00-2.088 2.088c0 1.139.949 2.089 2.088 2.089 1.14 0 2.089-.95 2.089-2.089zm48.507 0a1.5 1.5 0 00-1.518-1.519 1.5 1.5 0 00-1.519 1.519 1.5 1.5 0 001.519 1.519c.854.095 1.518-.665 1.518-1.519zm56.007 0a8.508 8.508 0 00-8.543-8.543 8.508 8.508 0 00-8.544 8.543 8.508 8.508 0 008.544 8.543c4.651 0 8.543-3.797 8.543-8.543zm44.995 0c0-2.563-2.088-4.556-4.556-4.556-2.563 0-4.557 2.088-4.557 4.556 0 2.563 2.089 4.557 4.557 4.557 2.563 0 4.556-1.994 4.556-4.557zm47.369 0a2.958 2.958 0 00-2.943-2.943 2.958 2.958 0 00-2.943 2.943 2.958 2.958 0 002.943 2.943c1.709 0 2.943-1.329 2.943-2.943zm50.596 0a4.456 4.456 0 00-4.462-4.461 4.456 4.456 0 00-4.461 4.461 4.456 4.456 0 004.461 4.462c2.468.095 4.462-1.994 4.462-4.462zm47.178 0a2.552 2.552 0 00-2.563-2.563 2.552 2.552 0 00-2.563 2.563 2.552 2.552 0 002.563 2.563c1.329.095 2.563-1.139 2.563-2.563zm52.495 0c0-3.322-2.753-6.075-6.076-6.075-3.322 0-6.075 2.753-6.075 6.075 0 3.323 2.753 6.075 6.075 6.075a6.057 6.057 0 006.076-6.075zm50.596 0a7.657 7.657 0 00-7.689-7.689 7.657 7.657 0 00-7.689 7.689 7.657 7.657 0 007.689 7.689c4.271.095 7.689-3.417 7.689-7.689zm50.216 0a8.913 8.913 0 00-8.923-8.923 8.913 8.913 0 00-8.923 8.923 8.913 8.913 0 008.923 8.923 8.913 8.913 0 008.923-8.923zm44.521 0c0-2.373-1.994-4.367-4.367-4.367s-4.367 1.994-4.367 4.367 1.994 4.367 4.367 4.367a4.356 4.356 0 004.367-4.367zm49.931 0a5.307 5.307 0 00-5.316-5.316 5.307 5.307 0 00-5.316 5.316 5.307 5.307 0 005.316 5.316 5.307 5.307 0 005.316-5.316zm47.463 0c0-2.088-1.708-3.702-3.702-3.702-2.088 0-3.702 1.709-3.702 3.702 0 2.089 1.709 3.702 3.702 3.702 1.994.095 3.702-1.613 3.702-3.702zm48.223 0a2.958 2.958 0 00-2.943-2.943 2.957 2.957 0 00-2.942 2.943 2.957 2.957 0 002.942 2.943c1.614.095 2.943-1.234 2.943-2.943zm51.546 0c0-3.038-2.469-5.506-5.411-5.506-3.038 0-5.411 2.468-5.411 5.506 0 3.038 2.468 5.411 5.411 5.411 2.942.095 5.411-2.373 5.411-5.411zm51.639 0c0-4.461-3.607-8.069-8.163-8.069a8.062 8.062 0 00-8.069 8.069 8.062 8.062 0 008.069 8.069c4.556.095 8.163-3.512 8.163-8.069zm46.231 0a5.306 5.306 0 00-5.32-5.316 5.304 5.304 0 00-5.31 5.316 5.304 5.304 0 005.31 5.316c2.95.095 5.32-2.373 5.32-5.316zm45.37 0a1.7 1.7 0 00-1.7-1.709c-.95 0-1.71.76-1.71 1.709 0 .949.76 1.709 1.71 1.709.94 0 1.7-.76 1.7-1.709zm48.99 0c0-.949-.76-1.709-1.71-1.709s-1.71.76-1.71 1.709c0 .949.76 1.709 1.71 1.709s1.71-.76 1.71-1.709zm49.45 0c0-1.139-.95-2.088-2.09-2.088-1.13 0-2.08.949-2.08 2.088 0 1.139.95 2.089 2.08 2.089 1.14 0 2.09-.855 2.09-2.089zm52.21 0a5.304 5.304 0 00-5.31-5.316 5.306 5.306 0 00-5.32 5.316 5.306 5.306 0 005.32 5.316c2.94.095 5.31-2.278 5.31-5.316zm48.7 0a4.9 4.9 0 00-4.94-4.936 4.899 4.899 0 00-4.93 4.936 4.899 4.899 0 004.93 4.936c2.66.095 4.94-2.183 4.94-4.936zm51.55 0a7.46 7.46 0 00-7.5-7.499c-4.18 0-7.5 3.322-7.5 7.499a7.453 7.453 0 007.5 7.499c4.08.095 7.5-3.322 7.5-7.499zm47.93 0c0-3.607-2.84-6.455-6.45-6.455-3.61 0-6.46 2.848-6.46 6.455s2.85 6.455 6.46 6.455 6.45-2.848 6.45-6.455zm45 0a2.353 2.353 0 00-2.37-2.373 2.355 2.355 0 00-2.38 2.373 2.355 2.355 0 002.38 2.373c1.23.095 2.37-1.044 2.37-2.373zM11.868 321.398c0-3.322-2.753-6.075-6.075-6.075-3.323 0-6.076 2.753-6.076 6.075s2.753 6.075 6.076 6.075c3.322 0 6.075-2.753 6.075-6.075zm51.07 0c0-4.461-3.607-8.164-8.163-8.164-4.557 0-8.164 3.608-8.164 8.164 0 4.462 3.607 8.164 8.164 8.164 4.461 0 8.163-3.702 8.163-8.164zm41.768 0a.95.95 0 00-.949-.949.95.95 0 00-.949.949c0 .57.474.949.949.949a.95.95 0 00.949-.949zm55.627 0a7.454 7.454 0 00-7.499-7.499 7.454 7.454 0 00-7.499 7.499 7.454 7.454 0 007.499 7.499c4.082 0 7.499-3.417 7.499-7.499zm46.514 0c0-2.753-2.278-5.031-5.031-5.031-2.753 0-5.031 2.278-5.031 5.031 0 2.753 2.278 5.031 5.031 5.031 2.753 0 5.031-2.278 5.031-5.031zm47.464 0a3.403 3.403 0 00-3.418-3.417 3.403 3.403 0 00-3.417 3.417 3.403 3.403 0 003.417 3.417c1.804 0 3.418-1.518 3.418-3.417zm49.457 0c0-2.183-1.709-3.892-3.892-3.892-2.184 0-3.892 1.709-3.892 3.892s1.708 3.892 3.892 3.892c2.088 0 3.892-1.804 3.892-3.892zm47.463 0a2.45 2.45 0 00-2.468-2.468 2.45 2.45 0 00-2.468 2.468 2.45 2.45 0 002.468 2.468c1.424-.095 2.468-1.139 2.468-2.468zm55.152 0c0-4.651-3.797-8.448-8.448-8.448-4.652 0-8.449 3.797-8.449 8.448s3.797 8.449 8.449 8.449c4.651 0 8.448-3.798 8.448-8.449zm44.901 0c0-2.373-1.994-4.367-4.367-4.367s-4.367 1.994-4.367 4.367 1.994 4.367 4.367 4.367 4.367-1.994 4.367-4.367zm51.64 0a7.009 7.009 0 00-7.025-7.024 7.008 7.008 0 00-7.024 7.024 7.009 7.009 0 007.024 7.025c3.892-.095 7.025-3.228 7.025-7.025zm49.172 0a7.211 7.211 0 00-7.215-7.214 7.21 7.21 0 00-7.214 7.214 7.21 7.21 0 007.214 7.214 7.211 7.211 0 007.215-7.214zm46.039 0c0-2.278-1.898-4.177-4.176-4.177-2.374 0-4.177 1.899-4.177 4.177 0 2.278 1.898 4.177 4.177 4.177 2.278 0 4.176-1.899 4.176-4.177zm51.261 0c0-3.607-2.943-6.455-6.455-6.455-3.608 0-6.455 2.943-6.455 6.455 0 3.607 2.942 6.455 6.455 6.455 3.607 0 6.455-2.848 6.455-6.455zm46.988 0a4.456 4.456 0 00-4.461-4.461 4.456 4.456 0 00-4.462 4.461 4.457 4.457 0 004.462 4.462c2.468-.095 4.461-1.994 4.461-4.462zm50.786 0c0-3.417-2.753-6.265-6.265-6.265-3.417 0-6.265 2.753-6.265 6.265 0 3.417 2.753 6.265 6.265 6.265 3.512-.095 6.265-2.848 6.265-6.265zm48.887 0a6.056 6.056 0 00-6.075-6.075 6.057 6.057 0 00-6.075 6.075 6.057 6.057 0 006.075 6.075 6.056 6.056 0 006.075-6.075zm51.451 0c0-4.651-3.797-8.448-8.449-8.448-4.651 0-8.448 3.797-8.448 8.448s3.797 8.449 8.448 8.449c4.652 0 8.449-3.798 8.449-8.449zm45.375 0a4.903 4.903 0 00-4.936-4.936 4.903 4.903 0 00-4.937 4.936 4.903 4.903 0 004.937 4.936c2.752 0 4.936-2.278 4.936-4.936zm46.704 0a2.552 2.552 0 00-2.563-2.563 2.552 2.552 0 00-2.563 2.563 2.552 2.552 0 002.563 2.563 2.552 2.552 0 002.563-2.563zm51.545 0c0-2.753-2.278-5.031-5.031-5.031-2.753 0-5.031 2.278-5.031 5.031 0 2.753 2.278 5.031 5.031 5.031 2.753 0 5.031-2.278 5.031-5.031zm46.988 0c0-1.709-1.42-3.132-3.13-3.132s-3.13 1.423-3.13 3.132 1.42 3.133 3.13 3.133c1.8-.095 3.13-1.424 3.13-3.133zm51.45 0a5.51 5.51 0 00-5.5-5.506 5.512 5.512 0 00-5.51 5.506 5.512 5.512 0 005.51 5.506 5.51 5.51 0 005.5-5.506zm50.03 0c0-3.607-2.95-6.55-6.55-6.55-3.61 0-6.55 2.943-6.55 6.55 0 3.607 2.94 6.55 6.55 6.55 3.6 0 6.55-2.943 6.55-6.55zm47.46 0a4.9 4.9 0 00-4.94-4.936 4.899 4.899 0 00-4.93 4.936 4.899 4.899 0 004.93 4.936c2.66 0 4.94-2.278 4.94-4.936zm46.8 0a2.651 2.651 0 00-2.66-2.658 2.654 2.654 0 00-2.66 2.658 2.657 2.657 0 002.66 2.658c1.43 0 2.66-1.234 2.66-2.658zm50.41 0a4.058 4.058 0 00-4.09-4.082 4.056 4.056 0 00-4.08 4.082 4.056 4.056 0 004.08 4.082c2.19 0 4.09-1.804 4.09-4.082zm52.21 0c0-4.082-3.33-7.309-7.31-7.309-4.09 0-7.31 3.322-7.31 7.309 0 4.082 3.32 7.309 7.31 7.309 3.98 0 7.31-3.322 7.31-7.309zm47.46 0a5.751 5.751 0 00-5.79-5.791 5.751 5.751 0 00-5.79 5.791c0 3.227 2.56 5.79 5.79 5.79s5.79-2.563 5.79-5.79zm47.18 0c0-2.183-1.81-3.987-3.99-3.987s-3.99 1.804-3.99 3.987 1.81 3.987 3.99 3.987c2.28 0 3.99-1.804 3.99-3.987zM8.925 261.784a3.2 3.2 0 00-3.227-3.227 3.2 3.2 0 00-3.228 3.227 3.201 3.201 0 003.228 3.228 3.201 3.201 0 003.227-3.228zm54.013 0c0-4.556-3.702-8.258-8.258-8.258-4.557 0-8.259 3.702-8.259 8.258 0 4.557 3.702 8.259 8.259 8.259 4.651 0 8.258-3.702 8.258-8.259zm49.078 0c0-4.556-3.703-8.258-8.259-8.258-4.557 0-8.259 3.702-8.259 8.258 0 4.557 3.702 8.259 8.259 8.259 4.556 0 8.259-3.702 8.259-8.259zm44.046 0a3.2 3.2 0 00-3.228-3.227 3.2 3.2 0 00-3.227 3.227 3.201 3.201 0 003.227 3.228c1.709 0 3.228-1.424 3.228-3.228zm47.938 0c0-1.234-.95-2.183-2.184-2.183a2.148 2.148 0 00-2.183 2.183c0 1.234.949 2.183 2.183 2.183a2.149 2.149 0 002.184-2.183zm48.412 0c0-.854-.759-1.614-1.614-1.614-.854 0-1.613.76-1.613 1.614 0 .855.759 1.614 1.613 1.614.855 0 1.614-.759 1.614-1.614zm55.817 0c0-4.651-3.797-8.448-8.448-8.448-4.652 0-8.449 3.797-8.449 8.448s3.797 8.449 8.449 8.449c4.746 0 8.448-3.798 8.448-8.449zm44.616 0c0-2.183-1.804-3.987-3.987-3.987-2.184 0-3.987 1.804-3.987 3.987s1.803 3.987 3.987 3.987c2.183 0 3.987-1.804 3.987-3.987zm53.159 0a8.063 8.063 0 00-8.069-8.069 8.062 8.062 0 00-8.069 8.069 8.062 8.062 0 008.069 8.069c4.366.095 8.069-3.607 8.069-8.069zm43.381 0a2.45 2.45 0 00-2.468-2.468 2.45 2.45 0 00-2.468 2.468 2.45 2.45 0 002.468 2.468c1.329.095 2.468-1.044 2.468-2.468zm51.45 0c0-2.753-2.278-5.031-5.031-5.031-2.753 0-5.031 2.278-5.031 5.031 0 2.753 2.278 5.031 5.031 5.031 2.848 0 5.031-2.278 5.031-5.031zm50.312 0c0-3.512-2.848-6.265-6.266-6.265-3.512 0-6.265 2.848-6.265 6.265 0 3.512 2.848 6.265 6.265 6.265 3.513 0 6.266-2.753 6.266-6.265zm44.14 0c0-.759-.664-1.424-1.423-1.424-.76 0-1.424.665-1.424 1.424 0 .759.664 1.424 1.424 1.424.854 0 1.423-.665 1.423-1.424zm51.641 0c0-2.183-1.804-3.987-3.987-3.987-2.184 0-3.987 1.804-3.987 3.987s1.803 3.987 3.987 3.987c2.183 0 3.987-1.804 3.987-3.987zm48.982 0c0-2.183-1.804-3.987-3.987-3.987s-3.987 1.804-3.987 3.987 1.804 3.987 3.987 3.987 3.987-1.804 3.987-3.987zm48.887 0c0-2.183-1.709-3.892-3.892-3.892s-3.892 1.709-3.892 3.892 1.709 3.892 3.892 3.892 3.892-1.709 3.892-3.892zm46.989 0c0-.949-.76-1.804-1.804-1.804-.949 0-1.803.76-1.803 1.804 0 .949.759 1.804 1.803 1.804.949 0 1.804-.76 1.804-1.804zm48.318 0c0-.569-.475-1.139-1.14-1.139-.569 0-1.139.475-1.139 1.139 0 .57.475 1.139 1.139 1.139.665 0 1.14-.474 1.14-1.139zm52.969 0c0-2.753-2.279-5.031-5.032-5.031-2.752 0-5.031 2.278-5.031 5.031 0 2.753 2.279 5.031 5.031 5.031 2.753 0 5.032-2.183 5.032-5.031zm50.975 0a7.008 7.008 0 00-7.024-7.024 7.009 7.009 0 00-7.025 7.024 7.01 7.01 0 007.025 7.025c3.892.095 7.024-3.133 7.024-7.025zm48.033 0a5.955 5.955 0 00-5.98-5.98 5.956 5.956 0 00-5.981 5.98 5.955 5.955 0 005.981 5.98c3.227 0 5.98-2.657 5.98-5.98zm52.209 0c0-5.126-4.18-9.208-9.21-9.208-5.12 0-9.2 4.177-9.2 9.208 0 5.126 4.17 9.208 9.2 9.208 5.03.095 9.21-4.082 9.21-9.208zm44.9 0a5.104 5.104 0 00-5.12-5.126 5.107 5.107 0 00-5.13 5.126 5.107 5.107 0 005.13 5.126c2.84 0 5.12-2.278 5.12-5.126zm48.03 0a4.05 4.05 0 00-4.08-4.082 4.05 4.05 0 00-4.08 4.082 4.05 4.05 0 004.08 4.082c2.19 0 4.08-1.804 4.08-4.082zm50.79 0c0-3.322-2.66-5.98-5.98-5.98a5.957 5.957 0 00-5.98 5.98c0 3.323 2.66 5.98 5.98 5.98 3.32 0 5.98-2.657 5.98-5.98zm49.74 0a6.601 6.601 0 00-6.64-6.645 6.604 6.604 0 00-6.65 6.645 6.604 6.604 0 006.65 6.645c3.7 0 6.64-2.943 6.64-6.645zm50.79 0c0-4.651-3.8-8.354-8.36-8.354-4.65 0-8.35 3.798-8.35 8.354 0 4.651 3.8 8.354 8.35 8.354 4.56 0 8.36-3.703 8.36-8.354zm42.81 0c0-1.234-.95-2.183-2.18-2.183-1.24 0-2.19.949-2.19 2.183s.95 2.183 2.19 2.183c1.23 0 2.18-.949 2.18-2.183zm54.77 0c0-4.367-3.51-7.974-7.97-7.974-4.37 0-7.98 3.512-7.98 7.974a7.967 7.967 0 007.98 7.974c4.36 0 7.97-3.607 7.97-7.974zm50.22 0c0-5.031-4.08-9.113-9.11-9.113-5.04 0-9.12 4.082-9.12 9.113s4.08 9.113 9.12 9.113c5.03.095 9.11-4.082 9.11-9.113zM8.07 202.265c0-1.234-1.043-2.278-2.277-2.278-1.235 0-2.279 1.044-2.279 2.278s1.044 2.278 2.279 2.278c1.234 0 2.278-1.044 2.278-2.278zm55.533 0c0-4.936-3.987-8.828-8.828-8.828-4.936 0-8.828 3.987-8.828 8.828 0 4.936 3.986 8.828 8.828 8.828 4.84 0 8.828-3.987 8.828-8.828zm48.982 0c0-4.841-3.892-8.828-8.828-8.828-4.841 0-8.828 3.987-8.828 8.828 0 4.841 3.987 8.828 8.828 8.828 4.936-.095 8.828-3.987 8.828-8.828zm43.666 0a3.402 3.402 0 00-3.417-3.417 3.403 3.403 0 00-3.417 3.417 3.403 3.403 0 003.417 3.417c1.804 0 3.417-1.613 3.417-3.417zm49.932 0a4.356 4.356 0 00-4.367-4.367c-2.373 0-4.366 1.994-4.366 4.367a4.355 4.355 0 004.366 4.367c2.373-.095 4.367-1.994 4.367-4.367zm49.836 0c0-2.848-2.373-5.221-5.221-5.221-2.847 0-5.221 2.373-5.221 5.221s2.374 5.221 5.221 5.221c2.943-.095 5.221-2.373 5.221-5.221zm46.989 0a3.2 3.2 0 00-3.227-3.227 3.2 3.2 0 00-3.228 3.227 3.201 3.201 0 003.228 3.228c1.803-.095 3.227-1.519 3.227-3.228zm52.779 0a6.907 6.907 0 00-6.929-6.93 6.908 6.908 0 00-6.93 6.93 6.908 6.908 0 006.93 6.93c3.797 0 6.929-3.133 6.929-6.93zm49.172 0c0-3.892-3.227-7.119-7.119-7.119s-7.12 3.227-7.12 7.119 3.228 7.12 7.12 7.12c3.987-.095 7.119-3.228 7.119-7.12zm43.762 0c0-.949-.855-1.804-1.804-1.804a1.803 1.803 0 00-1.804 1.804c0 .949.76 1.804 1.804 1.804.949-.095 1.804-.855 1.804-1.804zm51.355 0c0-2.278-1.899-4.177-4.177-4.177-2.278 0-4.177 1.899-4.177 4.177 0 2.278 1.899 4.177 4.177 4.177 2.278-.095 4.177-1.899 4.177-4.177zm51.071 0c0-3.417-2.753-6.265-6.266-6.265-3.417 0-6.265 2.753-6.265 6.265 0 3.417 2.753 6.265 6.265 6.265 3.513-.095 6.266-2.848 6.266-6.265zm50.785 0c0-4.367-3.607-7.974-7.973-7.974-4.367 0-7.974 3.607-7.974 7.974s3.512 7.974 7.974 7.974c4.366-.095 7.973-3.607 7.973-7.974zm46.325 0a5.308 5.308 0 00-5.316-5.316 5.307 5.307 0 00-5.316 5.316 5.307 5.307 0 005.316 5.316 5.308 5.308 0 005.316-5.316zm51.735 0a8.063 8.063 0 00-8.069-8.069 8.062 8.062 0 00-8.069 8.069 8.062 8.062 0 008.069 8.069c4.461-.095 8.069-3.702 8.069-8.069zm44.52 0a3.605 3.605 0 00-3.607-3.607 3.606 3.606 0 00-3.607 3.607 3.605 3.605 0 003.607 3.607c1.994-.095 3.607-1.708 3.607-3.607zm50.027 0c0-2.563-2.089-4.557-4.557-4.557-2.563 0-4.556 2.089-4.556 4.557 0 2.563 2.088 4.556 4.556 4.556 2.563 0 4.557-2.088 4.557-4.556zm49.836 0c0-2.943-2.373-5.411-5.411-5.411-2.942 0-5.41 2.373-5.41 5.411 0 2.943 2.373 5.411 5.41 5.411 3.038-.095 5.411-2.468 5.411-5.411zm47.084 0a3.403 3.403 0 00-3.417-3.417 3.403 3.403 0 00-3.418 3.417 3.403 3.403 0 003.418 3.417c1.898 0 3.417-1.613 3.417-3.417zm51.26 0c0-3.133-2.563-5.696-5.695-5.696-3.133 0-5.696 2.563-5.696 5.696 0 3.133 2.563 5.696 5.696 5.696 3.132 0 5.695-2.563 5.695-5.696zm52.59 0c0-5.126-4.177-9.303-9.303-9.303-5.126 0-9.303 4.177-9.303 9.303 0 5.126 4.177 9.303 9.303 9.303 5.221 0 9.303-4.177 9.303-9.303zm45.371 0c0-3.133-2.46-5.601-5.6-5.601-3.13 0-5.6 2.468-5.6 5.601s2.47 5.601 5.6 5.601c3.04 0 5.6-2.563 5.6-5.601zm48.13 0c0-2.658-2.09-4.746-4.74-4.746-2.66 0-4.75 2.088-4.75 4.746 0 2.658 2.09 4.746 4.75 4.746 2.65 0 4.74-2.183 4.74-4.746zm47.27 0a2.951 2.951 0 00-2.94-2.943 2.958 2.958 0 00-2.94 2.943 2.958 2.958 0 002.94 2.943c1.62 0 2.94-1.329 2.94-2.943zm49.56 0c0-1.993-1.62-3.512-3.52-3.512a3.504 3.504 0 00-3.51 3.512 3.508 3.508 0 003.51 3.512c1.9 0 3.52-1.613 3.52-3.512zm50.5 0c0-2.753-2.28-5.031-5.03-5.031-2.76 0-5.03 2.278-5.03 5.031 0 2.753 2.27 5.031 5.03 5.031 2.75-.095 5.03-2.278 5.03-5.031zm51.73 0c0-4.272-3.51-7.784-7.78-7.784-4.27 0-7.79 3.512-7.79 7.784s3.52 7.784 7.79 7.784c4.27-.095 7.78-3.512 7.78-7.784zm49.36 0c0-4.461-3.6-8.069-8.06-8.069a8.058 8.058 0 00-8.07 8.069c0 4.462 3.6 8.069 8.07 8.069 4.46-.095 8.06-3.702 8.06-8.069zm50.13 0c0-5.031-4.09-9.208-9.21-9.208-5.03 0-9.21 4.082-9.21 9.208 0 5.031 4.08 9.208 9.21 9.208 5.12-.095 9.21-4.177 9.21-9.208zm44.71 0c0-2.658-2.19-4.841-4.84-4.841-2.66 0-4.85 2.183-4.85 4.841 0 2.658 2.19 4.841 4.85 4.841 2.65 0 4.84-2.183 4.84-4.841zM14.716 142.651a8.913 8.913 0 00-8.923-8.923 8.913 8.913 0 00-8.924 8.923 8.913 8.913 0 008.924 8.923 8.913 8.913 0 008.923-8.923zm48.412 0c0-4.556-3.702-8.354-8.353-8.354a8.306 8.306 0 00-8.354 8.354c0 4.557 3.702 8.354 8.354 8.354 4.556 0 8.353-3.797 8.353-8.354zm42.527 0a1.904 1.904 0 00-1.898-1.899 1.905 1.905 0 00-1.899 1.899c0 1.044.855 1.899 1.899 1.899a1.904 1.904 0 001.898-1.899zm56.102 0a8.913 8.913 0 00-8.923-8.923 8.913 8.913 0 00-8.923 8.923 8.913 8.913 0 008.923 8.923 8.913 8.913 0 008.923-8.923zm43.856 0a3.808 3.808 0 00-3.797-3.797 3.809 3.809 0 00-3.797 3.797 3.809 3.809 0 003.797 3.797 3.808 3.808 0 003.797-3.797zm48.508 0a3.201 3.201 0 00-3.228-3.228 3.201 3.201 0 00-3.227 3.228 3.2 3.2 0 003.227 3.227c1.709 0 3.228-1.423 3.228-3.227zm47.748 0c0-1.139-.949-1.993-1.993-1.993-1.14 0-1.994.949-1.994 1.993 0 1.139.949 1.993 1.994 1.993 1.044 0 1.993-.854 1.993-1.993zm55.342 0c0-4.556-3.702-8.354-8.353-8.354-4.557 0-8.354 3.703-8.354 8.354 0 4.557 3.702 8.354 8.354 8.354 4.651 0 8.353-3.797 8.353-8.354zm46.23 0c0-3.038-2.469-5.601-5.601-5.601-3.038 0-5.601 2.468-5.601 5.601 0 3.038 2.468 5.601 5.601 5.601 3.132 0 5.601-2.563 5.601-5.601zm49.077 0c0-3.133-2.563-5.601-5.601-5.601-3.133 0-5.601 2.563-5.601 5.601 0 3.133 2.468 5.601 5.601 5.601 3.038 0 5.601-2.468 5.601-5.601zm50.785 0c0-4.082-3.322-7.499-7.499-7.499-4.082 0-7.499 3.322-7.499 7.499 0 4.082 3.322 7.499 7.499 7.499 4.177-.095 7.499-3.417 7.499-7.499zm48.888 0c0-3.987-3.228-7.309-7.31-7.309-3.987 0-7.309 3.227-7.309 7.309 0 3.987 3.228 7.31 7.309 7.31 4.082 0 7.31-3.323 7.31-7.31zm47.463 0c0-3.132-2.563-5.79-5.695-5.79a5.753 5.753 0 00-5.791 5.79c0 3.133 2.563 5.791 5.791 5.791 3.132-.095 5.695-2.658 5.695-5.791zm45.66 0a2.35 2.35 0 00-2.373-2.373 2.35 2.35 0 00-2.373 2.373 2.35 2.35 0 002.373 2.373 2.35 2.35 0 002.373-2.373zm52.494 0c0-3.227-2.658-5.885-5.885-5.885-3.228 0-5.886 2.658-5.886 5.885 0 3.228 2.658 5.886 5.886 5.886 3.227 0 5.885-2.658 5.885-5.886zm45.091 0c0-1.044-.855-1.993-1.994-1.993-1.044 0-1.993.854-1.993 1.993 0 1.044.854 1.993 1.993 1.993 1.139-.094 1.994-.949 1.994-1.993zm49.456 0a2.35 2.35 0 00-2.373-2.373 2.35 2.35 0 00-2.373 2.373 2.35 2.35 0 002.373 2.373 2.35 2.35 0 002.373-2.373zm52.875 0a6.158 6.158 0 00-6.171-6.17 6.158 6.158 0 00-6.17 6.17 6.158 6.158 0 006.17 6.17c3.323 0 6.171-2.753 6.171-6.17zm46.893 0a4.052 4.052 0 00-4.082-4.082 4.051 4.051 0 00-4.081 4.082 4.051 4.051 0 004.081 4.082c2.184 0 4.082-1.804 4.082-4.082zm46.04 0c0-.664-.475-1.139-1.139-1.139-.665 0-1.14.475-1.14 1.139 0 .665.475 1.139 1.14 1.139.664 0 1.139-.474 1.139-1.139zm52.969 0c0-2.848-2.278-5.031-5.031-5.031-2.848 0-5.031 2.278-5.031 5.031 0 2.848 2.278 5.031 5.031 5.031 2.753 0 5.031-2.278 5.031-5.031zm49.928 0c0-3.322-2.75-6.075-6.07-6.075-3.32 0-6.08 2.753-6.08 6.075s2.76 6.075 6.08 6.075a6.05 6.05 0 006.07-6.075zm48.42 0c0-2.943-2.47-5.411-5.41-5.411-2.95 0-5.42 2.468-5.42 5.411 0 2.943 2.47 5.411 5.42 5.411 3.03 0 5.41-2.468 5.41-5.411zm50.21 0c0-3.607-2.94-6.55-6.55-6.55-3.6 0-6.55 2.943-6.55 6.55 0 3.607 2.95 6.55 6.55 6.55 3.61 0 6.55-2.943 6.55-6.55zm45.09 0a2.651 2.651 0 00-2.66-2.658c-1.51 0-2.65 1.234-2.65 2.658a2.649 2.649 0 002.65 2.658c1.43 0 2.66-1.139 2.66-2.658zm47.85 0c0-.854-.67-1.519-1.52-1.519-.86 0-1.52.665-1.52 1.519 0 .854.66 1.519 1.52 1.519.85 0 1.52-.665 1.52-1.519zm54.77 0c0-3.987-3.23-7.309-7.31-7.309-3.99 0-7.31 3.227-7.31 7.309 0 3.987 3.23 7.31 7.31 7.31 4.08-.095 7.31-3.323 7.31-7.31zm44.52 0a2.758 2.758 0 00-2.75-2.753 2.76 2.76 0 00-2.76 2.753 2.76 2.76 0 002.76 2.753c1.51 0 2.75-1.234 2.75-2.753zm48.6 0a2.347 2.347 0 00-2.37-2.373 2.355 2.355 0 00-2.38 2.373 2.355 2.355 0 002.38 2.373c1.33 0 2.37-1.044 2.37-2.373zm53.16 0c0-3.607-2.94-6.55-6.55-6.55s-6.55 2.943-6.55 6.55c0 3.607 2.94 6.55 6.55 6.55 3.61-.095 6.55-2.943 6.55-6.55zM9.02 83.037c0-1.804-1.519-3.322-3.322-3.322-1.804 0-3.323 1.518-3.323 3.322s1.52 3.322 3.323 3.322c1.898 0 3.322-1.423 3.322-3.322zm47.463 0c0-.95-.76-1.709-1.708-1.709-.95 0-1.709.76-1.709 1.709 0 .95.76 1.709 1.709 1.709.949 0 1.708-.76 1.708-1.709zm53.064 0a5.753 5.753 0 00-5.79-5.79 5.753 5.753 0 00-5.79 5.79 5.753 5.753 0 005.79 5.79 5.753 5.753 0 005.79-5.79zm47.179 0c0-2.183-1.804-3.892-3.892-3.892-2.183 0-3.892 1.804-3.892 3.892 0 2.183 1.804 3.892 3.892 3.892 2.088.095 3.892-1.709 3.892-3.892zm52.779 0a7.657 7.657 0 00-7.689-7.689 7.658 7.658 0 00-7.689 7.69 7.657 7.657 0 007.689 7.688c4.272.095 7.689-3.417 7.689-7.689zm44.616 0c0-1.804-1.519-3.322-3.323-3.322-1.803 0-3.322 1.518-3.322 3.322s1.519 3.322 3.322 3.322c1.804 0 3.323-1.518 3.323-3.322zm48.033 0c0-1.234-1.044-2.278-2.278-2.278-1.235 0-2.279 1.044-2.279 2.278s1.044 2.278 2.279 2.278c1.234 0 2.278-1.044 2.278-2.278zm49.836 0c0-1.709-1.424-3.133-3.132-3.133-1.709 0-3.133 1.424-3.133 3.133s1.424 3.133 3.133 3.133c1.708.095 3.132-1.33 3.132-3.133zm51.071 0c0-2.848-2.373-5.221-5.221-5.221s-5.221 2.373-5.221 5.221 2.373 5.221 5.221 5.221c2.943 0 5.221-2.278 5.221-5.221zm50.311 0c0-3.607-2.848-6.455-6.455-6.455s-6.455 2.848-6.455 6.455 2.848 6.455 6.455 6.455c3.512 0 6.455-2.848 6.455-6.455zm45.85 0c0-1.804-1.519-3.322-3.323-3.322-1.803 0-3.322 1.518-3.322 3.322s1.519 3.322 3.322 3.322c1.804 0 3.323-1.518 3.323-3.322zm51.83 0a6.158 6.158 0 00-6.171-6.17 6.158 6.158 0 00-6.17 6.17 6.158 6.158 0 006.17 6.17 6.158 6.158 0 006.171-6.17zm48.033 0c0-2.848-2.279-5.221-5.127-5.221a5.206 5.206 0 00-5.221 5.221 5.206 5.206 0 005.221 5.221c2.848 0 5.127-2.373 5.127-5.221zm51.355 0c0-4.082-3.323-7.5-7.499-7.5-4.082 0-7.5 3.323-7.5 7.5 0 4.082 3.323 7.5 7.5 7.5 4.082 0 7.499-3.323 7.499-7.5zm45.755 0c0-2.373-1.899-4.272-4.177-4.272a4.254 4.254 0 00-4.272 4.272 4.254 4.254 0 004.272 4.272c2.278 0 4.177-1.899 4.177-4.272zm49.172 0c0-2.373-1.994-4.367-4.367-4.367s-4.367 1.994-4.367 4.367 1.994 4.367 4.367 4.367a4.355 4.355 0 004.367-4.367zm45.944 0c0-.76-.569-1.329-1.329-1.329-.759 0-1.329.57-1.329 1.33 0 .758.57 1.328 1.329 1.328.76 0 1.329-.57 1.329-1.329zm54.583 0a6.908 6.908 0 00-6.93-6.93c-3.797 0-6.929 3.133-6.929 6.93a6.907 6.907 0 006.929 6.93c3.797 0 6.93-3.133 6.93-6.93zm49.836 0a7.657 7.657 0 00-7.689-7.689 7.658 7.658 0 00-7.689 7.69 7.657 7.657 0 007.689 7.688c4.177 0 7.689-3.417 7.689-7.689zm42.623 0c0-.76-.57-1.329-1.329-1.329-.76 0-1.329.57-1.329 1.33 0 .758.569 1.328 1.329 1.328.759 0 1.329-.57 1.329-1.329zm52.779 0c0-2.753-2.278-5.031-5.031-5.031-2.753 0-5.031 2.278-5.031 5.031 0 2.753 2.278 5.031 5.031 5.031 2.753.095 5.031-2.183 5.031-5.03zm50.118 0c0-3.417-2.75-6.17-6.17-6.17a6.162 6.162 0 00-6.17 6.17c0 3.417 2.76 6.17 6.17 6.17 3.33 0 6.17-2.753 6.17-6.17zm48.32 0a5.51 5.51 0 00-5.5-5.506 5.512 5.512 0 00-5.51 5.506 5.512 5.512 0 005.51 5.506c3.03.095 5.5-2.468 5.5-5.506zm52.59 0c0-5.031-4.08-9.113-9.11-9.113-5.03 0-9.12 4.082-9.12 9.113s4.09 9.113 9.12 9.113c5.03 0 9.11-4.082 9.11-9.113zm47.84 0a7.858 7.858 0 00-7.88-7.879 7.856 7.856 0 00-7.87 7.88 7.856 7.856 0 007.87 7.878c4.37 0 7.88-3.512 7.88-7.879zm43.1 0c0-1.14-.85-1.993-1.99-1.993-1.14 0-2 .854-2 1.993 0 1.14.86 1.993 2 1.993 1.14 0 1.99-.854 1.99-1.993zm55.44 0c0-4.651-3.8-8.448-8.45-8.448-4.65 0-8.45 3.797-8.45 8.448s3.8 8.449 8.45 8.449c4.75 0 8.45-3.797 8.45-8.449zm47.18 0c0-3.607-2.95-6.55-6.55-6.55-3.61 0-6.55 2.943-6.55 6.55 0 3.607 2.94 6.55 6.55 6.55 3.6 0 6.55-2.943 6.55-6.55zm44.99 0a2.552 2.552 0 00-2.56-2.563c-1.43 0-2.56 1.14-2.56 2.563a2.546 2.546 0 002.56 2.563c1.42 0 2.56-1.14 2.56-2.563zm48.98 0c0-1.329-1.14-2.468-2.46-2.468-1.33 0-2.47 1.14-2.47 2.468 0 1.329 1.14 2.468 2.47 2.468a2.45 2.45 0 002.46-2.468zM7.311 23.518c0-.854-.759-1.614-1.613-1.614a1.6 1.6 0 00-1.614 1.614c0 .854.76 1.614 1.614 1.614.949-.095 1.613-.76 1.613-1.614zm53.254 0a5.753 5.753 0 00-5.79-5.79 5.753 5.753 0 00-5.79 5.79 5.753 5.753 0 005.79 5.79c3.227 0 5.79-2.657 5.79-5.79zm48.033 0c0-2.658-2.183-4.841-4.841-4.841-2.658 0-4.841 2.183-4.841 4.841 0 2.658 2.183 4.841 4.841 4.841 2.658-.095 4.841-2.183 4.841-4.841zm50.786 0a6.604 6.604 0 00-6.645-6.645 6.604 6.604 0 00-6.645 6.645 6.604 6.604 0 006.645 6.645c3.702-.095 6.645-3.038 6.645-6.645zm45.944 0a3.605 3.605 0 00-3.607-3.607 3.606 3.606 0 00-3.607 3.607 3.606 3.606 0 003.607 3.607c2.089-.095 3.607-1.709 3.607-3.607zm53.919 0c0-4.652-3.797-8.449-8.449-8.449-4.651 0-8.448 3.797-8.448 8.449 0 4.651 3.797 8.448 8.448 8.448 4.652 0 8.449-3.797 8.449-8.448zm43.951 0c0-1.804-1.519-3.322-3.322-3.322-1.804 0-3.323 1.518-3.323 3.322s1.519 3.322 3.323 3.322c1.803 0 3.322-1.518 3.322-3.322zm52.874 0a7.21 7.21 0 00-7.214-7.214 7.212 7.212 0 00-7.215 7.214 7.212 7.212 0 007.215 7.214c3.987-.095 7.214-3.322 7.214-7.214zm44.141 0c0-1.234-1.044-2.278-2.278-2.278s-2.278 1.044-2.278 2.278 1.044 2.278 2.278 2.278 2.278-1.044 2.278-2.278zm49.457 0c0-1.519-1.234-2.848-2.848-2.848-1.519 0-2.848 1.234-2.848 2.848 0 1.519 1.234 2.848 2.848 2.848 1.614-.095 2.848-1.33 2.848-2.848zm51.355 0a5.105 5.105 0 00-5.126-5.126 5.105 5.105 0 00-5.126 5.126 5.105 5.105 0 005.126 5.126c2.848 0 5.126-2.373 5.126-5.126zm48.033 0c0-2.278-1.898-4.177-4.177-4.177-2.278 0-4.176 1.899-4.176 4.177 0 2.278 1.898 4.177 4.176 4.177 2.279-.095 4.177-1.899 4.177-4.177zm50.786 0a5.955 5.955 0 00-5.98-5.98 5.956 5.956 0 00-5.981 5.98 5.956 5.956 0 005.981 5.98c3.322 0 5.98-2.753 5.98-5.98zm47.748 0a4.659 4.659 0 00-4.651-4.651 4.66 4.66 0 00-4.652 4.651 4.66 4.66 0 004.652 4.651 4.659 4.659 0 004.651-4.651zm48.128 0c0-2.088-1.709-3.702-3.702-3.702-2.089 0-3.702 1.709-3.702 3.702 0 2.088 1.613 3.702 3.702 3.702 1.993 0 3.702-1.709 3.702-3.702zm53.728 0c0-4.652-3.797-8.449-8.448-8.449s-8.449 3.797-8.449 8.449c0 4.651 3.798 8.448 8.449 8.448s8.448-3.797 8.448-8.448zm43.002 0c0-1.329-1.139-2.468-2.468-2.468s-2.468 1.139-2.468 2.468 1.139 2.468 2.468 2.468 2.468-1.139 2.468-2.468zm48.318 0c0-.95-.759-1.709-1.709-1.709-.949 0-1.708.76-1.708 1.709 0 .95.759 1.709 1.708 1.709.855 0 1.709-.76 1.709-1.709zm51.165 0c0-2.183-1.708-3.892-3.892-3.892-2.183 0-3.892 1.709-3.892 3.892s1.709 3.892 3.892 3.892c2.089 0 3.892-1.803 3.892-3.892zm53.824 0a8.71 8.71 0 00-8.733-8.733 8.71 8.71 0 00-8.734 8.733 8.71 8.71 0 008.734 8.733c4.841 0 8.733-3.987 8.733-8.733zm45.28 0a4.902 4.902 0 00-4.936-4.936 4.902 4.902 0 00-4.936 4.936 4.902 4.902 0 004.936 4.936c2.658 0 4.936-2.278 4.936-4.936zm50.593 0c0-3.607-2.94-6.55-6.55-6.55-3.6 0-6.55 2.943-6.55 6.55 0 3.607 2.95 6.55 6.55 6.55 3.61 0 6.55-2.943 6.55-6.55zm44.24 0c0-.95-.76-1.804-1.8-1.804-.95 0-1.81.76-1.81 1.804 0 .95.76 1.804 1.81 1.804 1.04-.095 1.8-.855 1.8-1.804zm52.3 0a5.098 5.098 0 00-5.12-5.126 5.107 5.107 0 00-5.13 5.126 5.107 5.107 0 005.13 5.126c2.85-.095 5.12-2.373 5.12-5.126zm47.66 0a3.81 3.81 0 00-3.8-3.797 3.81 3.81 0 00-3.8 3.797 3.81 3.81 0 003.8 3.797c2.18-.095 3.8-1.803 3.8-3.797zm49.93 0a4.66 4.66 0 00-4.65-4.651 4.653 4.653 0 00-4.65 4.651 4.653 4.653 0 004.65 4.651 4.66 4.66 0 004.65-4.651zm46.23 0c0-1.044-.86-1.899-1.9-1.899-1.05 0-1.9.855-1.9 1.899s.85 1.899 1.9 1.899c1.04 0 1.9-.855 1.9-1.899zm53.44 0c0-3.512-2.85-6.265-6.26-6.265a6.258 6.258 0 00-6.27 6.265c0 3.512 2.85 6.265 6.27 6.265 3.41 0 6.26-2.848 6.26-6.265zm48.41 0c0-3.133-2.56-5.696-5.69-5.696-3.13 0-5.7 2.563-5.7 5.696 0 3.133 2.57 5.696 5.7 5.696 3.13-.095 5.69-2.658 5.69-5.696zm51.17 0c0-4.272-3.51-7.784-7.78-7.784-4.28 0-7.79 3.512-7.79 7.784s3.51 7.784 7.79 7.784c4.27 0 7.78-3.512 7.78-7.784z"/></g></g></svg>