<svg width="1440" height="86" fill="none" xmlns="http://www.w3.org/2000/svg"><path d="M1430.59 70.3c0-1.456 1.13-2.59 2.59-2.59 1.47 0 2.6 1.134 2.6 2.59 0 1.457-1.13 2.59-2.6 2.59a2.555 2.555 0 01-2.59-2.59zm-94.81 0c0-7.607 6.17-13.595 13.63-13.595 7.63 0 13.64 6.15 13.64 13.595 0 7.607-6.17 13.596-13.64 13.596-7.46 0-13.63-6.15-13.63-13.596zm-75.01 0c0-2.751 2.11-4.855 4.87-4.855 2.76 0 4.87 2.104 4.87 4.855 0 2.752-2.11 4.856-4.87 4.856-2.76 0-4.87-2.266-4.87-4.856zm-91.56 0c0-6.96 5.68-12.462 12.5-12.462 6.98 0 12.5 5.664 12.5 12.462 0 6.96-5.68 12.463-12.5 12.463s-12.5-5.503-12.5-12.463zm-81.5 0c0-5.665 4.71-10.358 10.39-10.358 5.69 0 10.39 4.532 10.39 10.358 0 5.665-4.54 10.359-10.39 10.359-5.84-.162-10.39-4.694-10.39-10.359zm-76.95 0c0-1.78 1.46-3.237 3.25-3.237a3.25 3.25 0 013.24 3.237 3.25 3.25 0 01-3.24 3.237 3.251 3.251 0 01-3.25-3.237zm-82.308-.618c0-.634.528-1.162 1.162-1.162.634 0 1.163.528 1.163 1.162 0 .635-.529 1.163-1.163 1.163a1.172 1.172 0 01-1.162-1.163zm-96.921.618c0-8.254 6.656-15.052 14.936-15.052 8.28 0 15.098 6.636 15.098 15.052 0 8.255-6.656 14.89-15.098 14.89-8.28 0-14.936-6.635-14.936-14.89zm-82.958 0c0-7.769 6.331-14.08 14.124-14.08s14.124 6.311 14.124 14.08c0 7.77-6.331 14.081-14.124 14.081-7.793-.161-14.124-6.312-14.124-14.08zm-81.985 0c0-6.797 5.52-12.3 12.338-12.3 6.819 0 12.339 5.502 12.339 12.3 0 6.798-5.52 12.301-12.339 12.301-6.818-.162-12.338-5.665-12.338-12.3zm-76.302 0c0-2.59 2.11-4.693 4.708-4.693 2.597 0 4.708 2.104 4.708 4.693 0 2.59-2.111 4.694-4.708 4.694-2.598-.162-4.708-2.266-4.708-4.694zm-90.264 0c0-6.15 5.032-11.006 11.039-11.006 6.169 0 11.04 5.018 11.04 11.006 0 6.15-5.033 11.006-11.04 11.006-6.007 0-11.039-5.017-11.039-11.006zm-81.011 0c0-4.694 3.734-8.416 8.442-8.416s8.442 3.722 8.442 8.416c0 4.694-3.734 8.417-8.442 8.417s-8.442-3.885-8.442-8.417zm-88.316 0c0-6.96 5.682-12.624 12.663-12.624s12.663 5.665 12.663 12.624c0 6.96-5.682 12.625-12.663 12.625-6.818 0-12.663-5.665-12.663-12.625zm-75.166 0c0-2.266 1.948-4.208 4.221-4.208s4.221 1.942 4.221 4.208-1.948 4.209-4.221 4.209c-2.435 0-4.221-1.943-4.221-4.209zm-94.972 0c0-8.416 6.819-15.214 15.261-15.214 8.441 0 15.26 6.798 15.26 15.214 0 8.417-6.819 15.215-15.26 15.215-8.28 0-15.261-6.798-15.261-15.215zm-71.757 0a3.252 3.252 0 013.247-3.237 3.252 3.252 0 013.247 3.237 3.252 3.252 0 01-3.247 3.237c-1.786-.162-3.247-1.456-3.247-3.237zm-85.718 0c0-2.751 2.273-5.179 5.195-5.179 2.76 0 5.195 2.266 5.195 5.18 0 2.75-2.273 5.017-5.195 5.017S3.082 73.052 3.082 70.3zM1418.57 14.729c0-8.093 6.66-14.729 14.61-14.729 8.12 0 14.78 6.636 14.78 14.729 0 8.092-6.66 14.566-14.78 14.566-8.11.162-14.61-6.474-14.61-14.567zm-78.9 0c0-5.342 4.39-9.712 9.74-9.712 5.36 0 9.74 4.37 9.74 9.712 0 5.34-4.38 9.71-9.74 9.71-5.35 0-9.74-4.37-9.74-9.71zm-85.23 0c0-6.15 5.03-11.168 11.2-11.168 6.17 0 11.21 5.017 11.21 11.168 0 6.15-5.04 11.167-11.21 11.167-6.17 0-11.2-5.017-11.2-11.168zm-82.63-3.427c0-3.593 2.96-6.446 6.44-6.446 3.6 0 6.45 2.959 6.45 6.446 0 3.593-2.96 6.446-6.45 6.446-3.59.106-6.44-2.853-6.44-6.446zm-85.56 3.427c0-6.475 5.2-11.654 11.69-11.654 6.49 0 11.69 5.18 11.69 11.654s-5.2 11.653-11.69 11.653c-6.49 0-11.69-5.18-11.69-11.653zm-85.07 0c0-7.122 5.85-12.949 12.99-12.949 7.14 0 12.99 5.827 12.99 12.949 0 7.121-5.85 12.948-12.99 12.948-7.14 0-12.99-5.827-12.99-12.948zm-84.255 0c0-7.284 6.007-13.272 13.312-13.272 7.306 0 13.313 5.988 13.313 13.271 0 7.284-6.007 13.272-13.313 13.272-7.305 0-13.312-5.988-13.312-13.271zm-79.225 0c0-4.856 3.897-8.74 8.767-8.74 4.87 0 8.767 3.884 8.767 8.74 0 4.855-3.897 8.74-8.767 8.74-4.87 0-8.767-3.885-8.767-8.74zm-76.789 0c0-.972.811-1.619 1.623-1.619.974 0 1.623.81 1.623 1.619 0 .97-.812 1.618-1.623 1.618-.812.162-1.623-.647-1.623-1.619zm-86.368 0c0-2.266 1.948-4.209 4.221-4.209s4.221 1.943 4.221 4.209c0 2.265-1.948 4.208-4.221 4.208s-4.221-1.943-4.221-4.208zm-89.939 0c0-5.665 4.708-10.359 10.39-10.359s10.39 4.694 10.39 10.359c0 5.664-4.708 10.358-10.39 10.358s-10.39-4.694-10.39-10.358zm-76.952 0c0-1.943 1.623-3.4 3.409-3.4 1.948 0 3.409 1.62 3.409 3.4 0 1.942-1.623 3.399-3.409 3.399-1.786.161-3.409-1.457-3.409-3.4zm-85.069 0c0-2.59 2.11-4.694 4.708-4.694 2.597 0 4.708 2.104 4.708 4.694s-2.111 4.693-4.708 4.693c-2.598 0-4.708-2.104-4.708-4.694zm-91.238 0c0-6.636 5.519-12.14 12.175-12.14 6.657 0 12.176 5.504 12.176 12.14 0 6.636-5.519 12.139-12.176 12.139-6.656 0-12.175-5.503-12.175-12.14zm-73.381-.562a1.06 1.06 0 011.057-1.057 1.06 1.06 0 011.057 1.057c0 .634-.528 1.057-1.057 1.057a1.06 1.06 0 01-1.057-1.057zm-92.374.562c0-5.665 4.545-10.197 10.228-10.197 5.682 0 10.227 4.532 10.227 10.197 0 5.664-4.545 10.196-10.227 10.196-5.52 0-10.228-4.532-10.228-10.197zm-76.79 0a3.252 3.252 0 013.247-3.238 3.252 3.252 0 013.247 3.238 3.252 3.252 0 01-3.247 3.236A3.252 3.252 0 0188.8 14.73zm-88.478 0c0-4.37 3.572-7.931 7.955-7.931s7.955 3.56 7.955 7.93c0 4.37-3.572 7.931-7.955 7.931S.322 19.1.322 14.73z" fill="#4C6071"/></svg>