<svg width="134" height="57" fill="none" xmlns="http://www.w3.org/2000/svg"><path d="M10.8 29.828v.5h8.377c2.623-.027 4.941-.596 6.94-1.724 2.014-1.13 3.56-2.753 4.633-4.856 1.084-2.101 1.617-4.532 1.617-7.28V14.65c-.013-2.684-.554-5.08-1.637-7.179-1.071-2.101-2.602-3.73-4.59-4.873C24.154 1.455 21.878.89 19.328.89h-8.527v28.937zm14.563-6.096l-.002.002c-1.488 1.669-3.586 2.528-6.365 2.528h-3.445V4.977h3.872c2.67.025 4.667.892 6.065 2.556h0l.003.003c1.421 1.664 2.165 4.04 2.165 7.194v1.66c0 3.244-.788 5.667-2.293 7.342zm52.352-2.869l.066-.558h-4.76l-.066.423c-.357 2.293-1.07 3.8-2.055 4.637-.985.833-2.447 1.287-4.463 1.287-2.162 0-3.81-.838-5.001-2.523-1.21-1.712-1.842-4.053-1.842-7.074V14.3c0-3.207.665-5.603 1.928-7.254 1.264-1.638 2.994-2.461 5.247-2.461 1.868 0 3.247.484 4.209 1.388l.002.002c.976.906 1.657 2.417 1.974 4.626l.062.43h4.756l-.056-.55c-.309-3.077-1.41-5.53-3.341-7.31C72.44 1.376 69.888.5 66.769.5c-2.36 0-4.459.56-6.279 1.696-1.82 1.123-3.224 2.736-4.211 4.82h0l-.002.003c-.973 2.083-1.453 4.482-1.453 7.184v2.735c0 4.12 1.031 7.467 3.144 9.989h.001c2.133 2.53 4.973 3.792 8.468 3.792 3.189 0 5.797-.84 7.771-2.565h0c1.988-1.74 3.145-4.188 3.507-7.291zm39.66-3.679h.5v-4.067h-12.324v-8.14h14.121V.89h-18.871v29.437h19.066v-4.066h-14.316v-9.078h11.824z" fill="#fff" stroke="#000"/><mask id="a" maskUnits="userSpaceOnUse" x="0" y="39.742" width="134" height="17" fill="#000"><path fill="#fff" d="M0 39.742h134v17H0z"/><path d="M1 52.443V41.352h3.187c.935 0 1.773.208 2.514.624a4.295 4.295 0 011.731 1.775c.418.772.627 1.65.627 2.636v1.02c0 .991-.206 1.87-.619 2.637a4.33 4.33 0 01-1.746 1.775c-.747.416-1.606.624-2.577.624H1zm.963-10.291v9.499h2.162c1.2 0 2.164-.386 2.89-1.158.725-.777 1.088-1.826 1.088-3.146v-.975c0-1.275-.357-2.296-1.073-3.063-.715-.767-1.657-1.152-2.827-1.157h-2.24zm12.609 10.444c-.72 0-1.373-.173-1.958-.518a3.584 3.584 0 01-1.355-1.44c-.323-.62-.485-1.313-.485-2.08v-.327c0-.793.157-1.506.47-2.141a3.698 3.698 0 011.323-1.493 3.305 3.305 0 011.833-.549c1.028 0 1.843.343 2.443 1.029.606.68.909 1.612.909 2.796v.51h-6.046v.175c0 .935.274 1.714.822 2.339.554.62 1.248.93 2.083.93.502 0 .943-.09 1.324-.267.386-.178.736-.463 1.05-.854l.587.435c-.69.97-1.69 1.455-3 1.455zm-.172-7.77c-.705 0-1.3.25-1.786.754-.48.502-.772 1.178-.877 2.026h5.083v-.1c-.026-.791-.259-1.436-.697-1.934-.439-.498-1.013-.747-1.723-.747zm1.041-4.084h1.136l-1.809 2.133h-.822l1.495-2.133zm7.269 11.084c.652 0 1.197-.178 1.636-.533a1.88 1.88 0 00.72-1.394h.901a2.555 2.555 0 01-.485 1.379 3.03 3.03 0 01-1.19.967 3.636 3.636 0 01-1.583.35c-1.112 0-1.994-.375-2.647-1.127-.647-.752-.97-1.762-.97-3.032v-.274c0-.813.145-1.531.438-2.156.292-.624.71-1.107 1.253-1.447.548-.34 1.188-.51 1.918-.51.93 0 1.695.269 2.295.807.606.538.93 1.247.971 2.125h-.9c-.042-.645-.282-1.165-.72-1.561-.434-.397-.983-.595-1.646-.595-.845 0-1.503.297-1.973.892-.465.594-.697 1.427-.697 2.498v.267c0 1.051.232 1.871.697 2.46.47.59 1.13.884 1.981.884zm4.62-3.626c0-.792.157-1.506.47-2.14a3.553 3.553 0 011.34-1.478c.579-.356 1.234-.534 1.965-.534 1.128 0 2.041.386 2.74 1.158.7.767 1.05 1.785 1.05 3.055v.19c0 .798-.159 1.516-.477 2.156a3.454 3.454 0 01-1.332 1.47c-.574.346-1.23.519-1.965.519-1.123 0-2.037-.384-2.742-1.15-.7-.773-1.049-1.793-1.049-3.063V48.2zm.94.252c0 .985.26 1.795.783 2.43.527.63 1.216.944 2.067.944.846 0 1.53-.315 2.052-.944.528-.635.791-1.47.791-2.507V48.2c0-.63-.12-1.206-.36-1.73-.24-.522-.577-.926-1.01-1.21a2.616 2.616 0 00-1.488-.435c-.836 0-1.517.32-2.044.96-.528.635-.791 1.468-.791 2.499v.168zm12.483-3.474a3.601 3.601 0 00-.634-.054c-.585 0-1.08.16-1.488.48-.402.315-.69.775-.861 1.38v5.66h-.932V44.2h.916l.016 1.31c.495-.975 1.292-1.463 2.388-1.463.261 0 .468.033.619.1l-.024.83zm15.359 4.357c-.129 1.168-.551 2.062-1.269 2.682-.713.62-1.663.93-2.853.93-.83 0-1.566-.207-2.206-.618-.636-.411-1.128-.993-1.477-1.744-.348-.757-.525-1.62-.53-2.59v-1.44c0-.986.174-1.859.523-2.62.348-.763.848-1.35 1.499-1.76.656-.417 1.41-.625 2.26-.625 1.2 0 2.146.322 2.838.967.697.64 1.102 1.526 1.215 2.659h-.954c-.236-1.884-1.269-2.826-3.098-2.826-1.015 0-1.825.375-2.43 1.127-.6.752-.9 1.79-.9 3.116v1.356c0 1.28.293 2.3.877 3.062.59.762 1.384 1.143 2.383 1.143.99 0 1.735-.234 2.238-.7.502-.473.812-1.18.93-2.119h.954zm1.576-.785c0-.792.154-1.505.461-2.14a3.532 3.532 0 011.315-1.478 3.567 3.567 0 011.93-.533c1.107 0 2.004.386 2.691 1.158.687.767 1.03 1.785 1.03 3.055v.19c0 .797-.156 1.516-.469 2.156a3.431 3.431 0 01-1.307 1.47c-.564.346-1.207.518-1.93.518-1.102 0-1.999-.383-2.69-1.15-.688-.772-1.031-1.793-1.031-3.063v-.182zm.922.252c0 .985.257 1.795.77 2.43.517.63 1.194.945 2.03.945.83 0 1.501-.315 2.014-.945.517-.635.776-1.47.776-2.506v-.175a4.16 4.16 0 00-.353-1.73c-.236-.523-.567-.926-.992-1.21a2.535 2.535 0 00-1.461-.435c-.82 0-1.49.32-2.007.96-.518.635-.776 1.467-.776 2.498v.168zm9.442 3.992h-.922V41.093h.922v11.7zm2-4.244c0-.792.153-1.505.461-2.14a3.531 3.531 0 011.315-1.478 3.567 3.567 0 011.93-.533c1.107 0 2.004.386 2.69 1.158.688.767 1.031 1.785 1.031 3.055v.19c0 .797-.156 1.516-.469 2.156a3.431 3.431 0 01-1.307 1.47c-.564.346-1.207.518-1.93.518-1.102 0-1.999-.383-2.691-1.15-.687-.772-1.03-1.793-1.03-3.063v-.182zm.922.252c0 .985.257 1.795.77 2.43.517.63 1.194.945 2.03.945.83 0 1.501-.315 2.014-.945.517-.635.776-1.47.776-2.506v-.175a4.16 4.16 0 00-.353-1.73c-.236-.523-.567-.926-.992-1.21a2.535 2.535 0 00-1.461-.435c-.82 0-1.49.32-2.007.96-.518.635-.777 1.467-.777 2.498v.168zm12.256-3.474a3.473 3.473 0 00-.622-.053c-.574 0-1.061.16-1.461.48-.395.315-.677.774-.846 1.379v5.66h-.915V44.55h.9l.015 1.31c.487-.974 1.269-1.462 2.345-1.462.256 0 .459.033.608.099l-.023.83zm13.313 2.164h-5.327v4.445h6.125v.778h-7.088V41.819h7.049v.786h-6.086v4.108h5.327v.779zm5.273.411l2.284-3.285h1.111l-2.871 3.974 2.996 4.123h-1.103l-2.41-3.427-2.41 3.427h-1.102l2.988-4.123-2.87-3.974h1.102l2.285 3.285zm11.937.846c0 1.262-.292 2.265-.876 3.008-.584.738-1.366 1.108-2.347 1.108-1.158 0-2.044-.39-2.66-1.168v4.13h-.931V44.619h.869l.047 1.145c.61-.863 1.494-1.295 2.652-1.295 1.011 0 1.804.367 2.378 1.1.579.734.868 1.752.868 3.054v.127zm-.939-.157c0-1.033-.221-1.849-.665-2.447-.443-.599-1.061-.898-1.854-.898-.573 0-1.066.132-1.478.396-.412.265-.728.649-.947 1.153v3.883c.225.464.545.819.963 1.063.417.245.91.367 1.478.367.788 0 1.4-.3 1.838-.898.444-.604.665-1.477.665-2.62zm6.298 4.273c-.72 0-1.372-.17-1.956-.51a3.541 3.541 0 01-1.353-1.414c-.324-.608-.485-1.29-.485-2.043v-.321c0-.779.156-1.48.469-2.103a3.654 3.654 0 011.322-1.467 3.341 3.341 0 011.831-.539c1.027 0 1.841.337 2.44 1.01.605.67.908 1.585.908 2.747v.501h-6.039v.172c0 .918.273 1.684.821 2.298.553.608 1.246.913 2.081.913.501 0 .941-.087 1.322-.262.386-.175.735-.454 1.048-.838l.587.426c-.688.953-1.687 1.43-2.996 1.43zm-.172-7.633c-.704 0-1.299.247-1.784.74-.48.494-.772 1.158-.876 1.991h5.077v-.097c-.026-.779-.258-1.412-.696-1.901-.438-.489-1.012-.733-1.721-.733zm9.082.149a3.65 3.65 0 00-.634-.052c-.584 0-1.079.157-1.486.471-.402.31-.688.761-.861 1.355v5.56h-.93v-8.097h.915l.015 1.287c.496-.958 1.291-1.437 2.386-1.437.261 0 .467.033.618.098l-.023.815zm3.332-2.836v2.073h1.753v.733h-1.753v5.396c0 .449.084.783.251 1.003.172.22.456.329.853.329.156 0 .409-.025.758-.075l.039.733c-.245.085-.578.128-1.001.128-.641 0-1.108-.178-1.4-.532-.292-.359-.438-.885-.438-1.579v-5.403h-1.557v-.733h1.557v-2.073h.938z"/></mask><path d="M1 52.443V41.352h3.187c.935 0 1.773.208 2.514.624a4.295 4.295 0 011.731 1.775c.418.772.627 1.65.627 2.636v1.02c0 .991-.206 1.87-.619 2.637a4.33 4.33 0 01-1.746 1.775c-.747.416-1.606.624-2.577.624H1zm.963-10.291v9.499h2.162c1.2 0 2.164-.386 2.89-1.158.725-.777 1.088-1.826 1.088-3.146v-.975c0-1.275-.357-2.296-1.073-3.063-.715-.767-1.657-1.152-2.827-1.157h-2.24zm12.609 10.444c-.72 0-1.373-.173-1.958-.518a3.584 3.584 0 01-1.355-1.44c-.323-.62-.485-1.313-.485-2.08v-.327c0-.793.157-1.506.47-2.141a3.698 3.698 0 011.323-1.493 3.305 3.305 0 011.833-.549c1.028 0 1.843.343 2.443 1.029.606.68.909 1.612.909 2.796v.51h-6.046v.175c0 .935.274 1.714.822 2.339.554.62 1.248.93 2.083.93.502 0 .943-.09 1.324-.267.386-.178.736-.463 1.05-.854l.587.435c-.69.97-1.69 1.455-3 1.455zm-.172-7.77c-.705 0-1.3.25-1.786.754-.48.502-.772 1.178-.877 2.026h5.083v-.1c-.026-.791-.259-1.436-.697-1.934-.439-.498-1.013-.747-1.723-.747zm1.041-4.084h1.136l-1.809 2.133h-.822l1.495-2.133zm7.269 11.084c.652 0 1.197-.178 1.636-.533a1.88 1.88 0 00.72-1.394h.901a2.555 2.555 0 01-.485 1.379 3.03 3.03 0 01-1.19.967 3.636 3.636 0 01-1.583.35c-1.112 0-1.994-.375-2.647-1.127-.647-.752-.97-1.762-.97-3.032v-.274c0-.813.145-1.531.438-2.156.292-.624.71-1.107 1.253-1.447.548-.34 1.188-.51 1.918-.51.93 0 1.695.269 2.295.807.606.538.93 1.247.971 2.125h-.9c-.042-.645-.282-1.165-.72-1.561-.434-.397-.983-.595-1.646-.595-.845 0-1.503.297-1.973.892-.465.594-.697 1.427-.697 2.498v.267c0 1.051.232 1.871.697 2.46.47.59 1.13.884 1.981.884zm4.62-3.626c0-.792.157-1.506.47-2.14a3.553 3.553 0 011.34-1.478c.579-.356 1.234-.534 1.965-.534 1.128 0 2.041.386 2.74 1.158.7.767 1.05 1.785 1.05 3.055v.19c0 .798-.159 1.516-.477 2.156a3.454 3.454 0 01-1.332 1.47c-.574.346-1.23.519-1.965.519-1.123 0-2.037-.384-2.742-1.15-.7-.773-1.049-1.793-1.049-3.063V48.2zm.94.252c0 .985.26 1.795.783 2.43.527.63 1.216.944 2.067.944.846 0 1.53-.315 2.052-.944.528-.635.791-1.47.791-2.507V48.2c0-.63-.12-1.206-.36-1.73-.24-.522-.577-.926-1.01-1.21a2.616 2.616 0 00-1.488-.435c-.836 0-1.517.32-2.044.96-.528.635-.791 1.468-.791 2.499v.168zm12.483-3.474a3.601 3.601 0 00-.634-.054c-.585 0-1.08.16-1.488.48-.402.315-.69.775-.861 1.38v5.66h-.932V44.2h.916l.016 1.31c.495-.975 1.292-1.463 2.388-1.463.261 0 .468.033.619.1l-.024.83zm15.359 4.357c-.129 1.168-.551 2.062-1.269 2.682-.713.62-1.663.93-2.853.93-.83 0-1.566-.207-2.206-.618-.636-.411-1.128-.993-1.477-1.744-.348-.757-.525-1.62-.53-2.59v-1.44c0-.986.174-1.859.523-2.62.348-.763.848-1.35 1.499-1.76.656-.417 1.41-.625 2.26-.625 1.2 0 2.146.322 2.838.967.697.64 1.102 1.526 1.215 2.659h-.954c-.236-1.884-1.269-2.826-3.098-2.826-1.015 0-1.825.375-2.43 1.127-.6.752-.9 1.79-.9 3.116v1.356c0 1.28.293 2.3.877 3.062.59.762 1.384 1.143 2.383 1.143.99 0 1.735-.234 2.238-.7.502-.473.812-1.18.93-2.119h.954zm1.576-.785c0-.792.154-1.505.461-2.14a3.532 3.532 0 011.315-1.478 3.567 3.567 0 011.93-.533c1.107 0 2.004.386 2.691 1.158.687.767 1.03 1.785 1.03 3.055v.19c0 .797-.156 1.516-.469 2.156a3.431 3.431 0 01-1.307 1.47c-.564.346-1.207.518-1.93.518-1.102 0-1.999-.383-2.69-1.15-.688-.772-1.031-1.793-1.031-3.063v-.182zm.922.252c0 .985.257 1.795.77 2.43.517.63 1.194.945 2.03.945.83 0 1.501-.315 2.014-.945.517-.635.776-1.47.776-2.506v-.175a4.16 4.16 0 00-.353-1.73c-.236-.523-.567-.926-.992-1.21a2.535 2.535 0 00-1.461-.435c-.82 0-1.49.32-2.007.96-.518.635-.776 1.467-.776 2.498v.168zm9.442 3.992h-.922V41.093h.922v11.7zm2-4.244c0-.792.153-1.505.461-2.14a3.531 3.531 0 011.315-1.478 3.567 3.567 0 011.93-.533c1.107 0 2.004.386 2.69 1.158.688.767 1.031 1.785 1.031 3.055v.19c0 .797-.156 1.516-.469 2.156a3.431 3.431 0 01-1.307 1.47c-.564.346-1.207.518-1.93.518-1.102 0-1.999-.383-2.691-1.15-.687-.772-1.03-1.793-1.03-3.063v-.182zm.922.252c0 .985.257 1.795.77 2.43.517.63 1.194.945 2.03.945.83 0 1.501-.315 2.014-.945.517-.635.776-1.47.776-2.506v-.175a4.16 4.16 0 00-.353-1.73c-.236-.523-.567-.926-.992-1.21a2.535 2.535 0 00-1.461-.435c-.82 0-1.49.32-2.007.96-.518.635-.777 1.467-.777 2.498v.168zm12.256-3.474a3.473 3.473 0 00-.622-.053c-.574 0-1.061.16-1.461.48-.395.315-.677.774-.846 1.379v5.66h-.915V44.55h.9l.015 1.31c.487-.974 1.269-1.462 2.345-1.462.256 0 .459.033.608.099l-.023.83zm13.313 2.164h-5.327v4.445h6.125v.778h-7.088V41.819h7.049v.786h-6.086v4.108h5.327v.779zm5.273.411l2.284-3.285h1.111l-2.871 3.974 2.996 4.123h-1.103l-2.41-3.427-2.41 3.427h-1.102l2.988-4.123-2.87-3.974h1.102l2.285 3.285zm11.937.846c0 1.262-.292 2.265-.876 3.008-.584.738-1.366 1.108-2.347 1.108-1.158 0-2.044-.39-2.66-1.168v4.13h-.931V44.619h.869l.047 1.145c.61-.863 1.494-1.295 2.652-1.295 1.011 0 1.804.367 2.378 1.1.579.734.868 1.752.868 3.054v.127zm-.939-.157c0-1.033-.221-1.849-.665-2.447-.443-.599-1.061-.898-1.854-.898-.573 0-1.066.132-1.478.396-.412.265-.728.649-.947 1.153v3.883c.225.464.545.819.963 1.063.417.245.91.367 1.478.367.788 0 1.4-.3 1.838-.898.444-.604.665-1.477.665-2.62zm6.298 4.273c-.72 0-1.372-.17-1.956-.51a3.541 3.541 0 01-1.353-1.414c-.324-.608-.485-1.29-.485-2.043v-.321c0-.779.156-1.48.469-2.103a3.654 3.654 0 011.322-1.467 3.341 3.341 0 011.831-.539c1.027 0 1.841.337 2.44 1.01.605.67.908 1.585.908 2.747v.501h-6.039v.172c0 .918.273 1.684.821 2.298.553.608 1.246.913 2.081.913.501 0 .941-.087 1.322-.262.386-.175.735-.454 1.048-.838l.587.426c-.688.953-1.687 1.43-2.996 1.43zm-.172-7.633c-.704 0-1.299.247-1.784.74-.48.494-.772 1.158-.876 1.991h5.077v-.097c-.026-.779-.258-1.412-.696-1.901-.438-.489-1.012-.733-1.721-.733zm9.082.149a3.65 3.65 0 00-.634-.052c-.584 0-1.079.157-1.486.471-.402.31-.688.761-.861 1.355v5.56h-.93v-8.097h.915l.015 1.287c.496-.958 1.291-1.437 2.386-1.437.261 0 .467.033.618.098l-.023.815zm3.332-2.836v2.073h1.753v.733h-1.753v5.396c0 .449.084.783.251 1.003.172.22.456.329.853.329.156 0 .409-.025.758-.075l.039.733c-.245.085-.578.128-1.001.128-.641 0-1.108-.178-1.4-.532-.292-.359-.438-.885-.438-1.579v-5.403h-1.557v-.733h1.557v-2.073h.938z" fill="#fff"/><path d="M1 52.443V41.352h3.187c.935 0 1.773.208 2.514.624a4.295 4.295 0 011.731 1.775c.418.772.627 1.65.627 2.636v1.02c0 .991-.206 1.87-.619 2.637a4.33 4.33 0 01-1.746 1.775c-.747.416-1.606.624-2.577.624H1zm.963-10.291v9.499h2.162c1.2 0 2.164-.386 2.89-1.158.725-.777 1.088-1.826 1.088-3.146v-.975c0-1.275-.357-2.296-1.073-3.063-.715-.767-1.657-1.152-2.827-1.157h-2.24zm12.609 10.444c-.72 0-1.373-.173-1.958-.518a3.584 3.584 0 01-1.355-1.44c-.323-.62-.485-1.313-.485-2.08v-.327c0-.793.157-1.506.47-2.141a3.698 3.698 0 011.323-1.493 3.305 3.305 0 011.833-.549c1.028 0 1.843.343 2.443 1.029.606.68.909 1.612.909 2.796v.51h-6.046v.175c0 .935.274 1.714.822 2.339.554.62 1.248.93 2.083.93.502 0 .943-.09 1.324-.267.386-.178.736-.463 1.05-.854l.587.435c-.69.97-1.69 1.455-3 1.455zm-.172-7.77c-.705 0-1.3.25-1.786.754-.48.502-.772 1.178-.877 2.026h5.083v-.1c-.026-.791-.259-1.436-.697-1.934-.439-.498-1.013-.747-1.723-.747zm1.041-4.084h1.136l-1.809 2.133h-.822l1.495-2.133zm7.269 11.084c.652 0 1.197-.178 1.636-.533a1.88 1.88 0 00.72-1.394h.901a2.555 2.555 0 01-.485 1.379 3.03 3.03 0 01-1.19.967 3.636 3.636 0 01-1.583.35c-1.112 0-1.994-.375-2.647-1.127-.647-.752-.97-1.762-.97-3.032v-.274c0-.813.145-1.531.438-2.156.292-.624.71-1.107 1.253-1.447.548-.34 1.188-.51 1.918-.51.93 0 1.695.269 2.295.807.606.538.93 1.247.971 2.125h-.9c-.042-.645-.282-1.165-.72-1.561-.434-.397-.983-.595-1.646-.595-.845 0-1.503.297-1.973.892-.465.594-.697 1.427-.697 2.498v.267c0 1.051.232 1.871.697 2.46.47.59 1.13.884 1.981.884zm4.62-3.626c0-.792.157-1.506.47-2.14a3.553 3.553 0 011.34-1.478c.579-.356 1.234-.534 1.965-.534 1.128 0 2.041.386 2.74 1.158.7.767 1.05 1.785 1.05 3.055v.19c0 .798-.159 1.516-.477 2.156a3.454 3.454 0 01-1.332 1.47c-.574.346-1.23.519-1.965.519-1.123 0-2.037-.384-2.742-1.15-.7-.773-1.049-1.793-1.049-3.063V48.2zm.94.252c0 .985.26 1.795.783 2.43.527.63 1.216.944 2.067.944.846 0 1.53-.315 2.052-.944.528-.635.791-1.47.791-2.507V48.2c0-.63-.12-1.206-.36-1.73-.24-.522-.577-.926-1.01-1.21a2.616 2.616 0 00-1.488-.435c-.836 0-1.517.32-2.044.96-.528.635-.791 1.468-.791 2.499v.168zm12.483-3.474a3.601 3.601 0 00-.634-.054c-.585 0-1.08.16-1.488.48-.402.315-.69.775-.861 1.38v5.66h-.932V44.2h.916l.016 1.31c.495-.975 1.292-1.463 2.388-1.463.261 0 .468.033.619.1l-.024.83zm15.359 4.357c-.129 1.168-.551 2.062-1.269 2.682-.713.62-1.663.93-2.853.93-.83 0-1.566-.207-2.206-.618-.636-.411-1.128-.993-1.477-1.744-.348-.757-.525-1.62-.53-2.59v-1.44c0-.986.174-1.859.523-2.62.348-.763.848-1.35 1.499-1.76.656-.417 1.41-.625 2.26-.625 1.2 0 2.146.322 2.838.967.697.64 1.102 1.526 1.215 2.659h-.954c-.236-1.884-1.269-2.826-3.098-2.826-1.015 0-1.825.375-2.43 1.127-.6.752-.9 1.79-.9 3.116v1.356c0 1.28.293 2.3.877 3.062.59.762 1.384 1.143 2.383 1.143.99 0 1.735-.234 2.238-.7.502-.473.812-1.18.93-2.119h.954zm1.576-.785c0-.792.154-1.505.461-2.14a3.532 3.532 0 011.315-1.478 3.567 3.567 0 011.93-.533c1.107 0 2.004.386 2.691 1.158.687.767 1.03 1.785 1.03 3.055v.19c0 .797-.156 1.516-.469 2.156a3.431 3.431 0 01-1.307 1.47c-.564.346-1.207.518-1.93.518-1.102 0-1.999-.383-2.69-1.15-.688-.772-1.031-1.793-1.031-3.063v-.182zm.922.252c0 .985.257 1.795.77 2.43.517.63 1.194.945 2.03.945.83 0 1.501-.315 2.014-.945.517-.635.776-1.47.776-2.506v-.175a4.16 4.16 0 00-.353-1.73c-.236-.523-.567-.926-.992-1.21a2.535 2.535 0 00-1.461-.435c-.82 0-1.49.32-2.007.96-.518.635-.776 1.467-.776 2.498v.168zm9.442 3.992h-.922V41.093h.922v11.7zm2-4.244c0-.792.153-1.505.461-2.14a3.531 3.531 0 011.315-1.478 3.567 3.567 0 011.93-.533c1.107 0 2.004.386 2.69 1.158.688.767 1.031 1.785 1.031 3.055v.19c0 .797-.156 1.516-.469 2.156a3.431 3.431 0 01-1.307 1.47c-.564.346-1.207.518-1.93.518-1.102 0-1.999-.383-2.691-1.15-.687-.772-1.03-1.793-1.03-3.063v-.182zm.922.252c0 .985.257 1.795.77 2.43.517.63 1.194.945 2.03.945.83 0 1.501-.315 2.014-.945.517-.635.776-1.47.776-2.506v-.175a4.16 4.16 0 00-.353-1.73c-.236-.523-.567-.926-.992-1.21a2.535 2.535 0 00-1.461-.435c-.82 0-1.49.32-2.007.96-.518.635-.777 1.467-.777 2.498v.168zm12.256-3.474a3.473 3.473 0 00-.622-.053c-.574 0-1.061.16-1.461.48-.395.315-.677.774-.846 1.379v5.66h-.915V44.55h.9l.015 1.31c.487-.974 1.269-1.462 2.345-1.462.256 0 .459.033.608.099l-.023.83zm13.313 2.164h-5.327v4.445h6.125v.778h-7.088V41.819h7.049v.786h-6.086v4.108h5.327v.779zm5.273.411l2.284-3.285h1.111l-2.871 3.974 2.996 4.123h-1.103l-2.41-3.427-2.41 3.427h-1.102l2.988-4.123-2.87-3.974h1.102l2.285 3.285zm11.937.846c0 1.262-.292 2.265-.876 3.008-.584.738-1.366 1.108-2.347 1.108-1.158 0-2.044-.39-2.66-1.168v4.13h-.931V44.619h.869l.047 1.145c.61-.863 1.494-1.295 2.652-1.295 1.011 0 1.804.367 2.378 1.1.579.734.868 1.752.868 3.054v.127zm-.939-.157c0-1.033-.221-1.849-.665-2.447-.443-.599-1.061-.898-1.854-.898-.573 0-1.066.132-1.478.396-.412.265-.728.649-.947 1.153v3.883c.225.464.545.819.963 1.063.417.245.91.367 1.478.367.788 0 1.4-.3 1.838-.898.444-.604.665-1.477.665-2.62zm6.298 4.273c-.72 0-1.372-.17-1.956-.51a3.541 3.541 0 01-1.353-1.414c-.324-.608-.485-1.29-.485-2.043v-.321c0-.779.156-1.48.469-2.103a3.654 3.654 0 011.322-1.467 3.341 3.341 0 011.831-.539c1.027 0 1.841.337 2.44 1.01.605.67.908 1.585.908 2.747v.501h-6.039v.172c0 .918.273 1.684.821 2.298.553.608 1.246.913 2.081.913.501 0 .941-.087 1.322-.262.386-.175.735-.454 1.048-.838l.587.426c-.688.953-1.687 1.43-2.996 1.43zm-.172-7.633c-.704 0-1.299.247-1.784.74-.48.494-.772 1.158-.876 1.991h5.077v-.097c-.026-.779-.258-1.412-.696-1.901-.438-.489-1.012-.733-1.721-.733zm9.082.149a3.65 3.65 0 00-.634-.052c-.584 0-1.079.157-1.486.471-.402.31-.688.761-.861 1.355v5.56h-.93v-8.097h.915l.015 1.287c.496-.958 1.291-1.437 2.386-1.437.261 0 .467.033.618.098l-.023.815zm3.332-2.836v2.073h1.753v.733h-1.753v5.396c0 .449.084.783.251 1.003.172.22.456.329.853.329.156 0 .409-.025.758-.075l.039.733c-.245.085-.578.128-1.001.128-.641 0-1.108-.178-1.4-.532-.292-.359-.438-.885-.438-1.579v-5.403h-1.557v-.733h1.557v-2.073h.938z" stroke="#fff" stroke-width=".6" mask="url(#a)"/></svg>