<svg width="44" height="45" fill="none" xmlns="http://www.w3.org/2000/svg"><path d="M36.667 15.152H7.333A1.834 1.834 0 005.5 16.986v3.666c0 1.013.82 1.834 1.833 1.834h29.334a1.834 1.834 0 001.833-1.834v-3.666c0-1.013-.82-1.834-1.833-1.834zm-14.667 0v23.834" stroke="#000" stroke-width="3" stroke-linecap="round" stroke-linejoin="round"/><path d="M34.833 22.486v12.833a3.667 3.667 0 01-3.666 3.667H12.833a3.667 3.667 0 01-3.666-3.667V22.486m4.583-7.334a4.583 4.583 0 110-9.166c1.769-.031 3.502.827 4.973 2.462 1.472 1.635 2.614 3.972 3.277 6.704.663-2.732 1.805-5.069 3.277-6.704 1.471-1.635 3.204-2.493 4.973-2.462a4.583 4.583 0 110 9.166" stroke="#000" stroke-width="3" stroke-linecap="round" stroke-linejoin="round"/></svg>