<svg width="24" height="24" fill="none" xmlns="http://www.w3.org/2000/svg"><path d="M6 4a2 2 0 00-2 2v12a2 2 0 002 2h12a2 2 0 002-2V6a2 2 0 00-2-2H6zm0-2h12a4 4 0 014 4v12a4 4 0 01-4 4H6a4 4 0 01-4-4V6a4 4 0 014-4z" fill="#000"/><path d="M15.131 7.074L7.971 9.46A1.4 1.4 0 007 10.807c0 .621.38 1.15.97 1.346l2.908.97.969 2.907a1.4 1.4 0 001.346.97 1.4 1.4 0 001.346-.97l2.387-7.161a1.41 1.41 0 00-.343-1.452 1.41 1.41 0 00-1.452-.343zm-1.938 7.724l-.998-2.993-2.993-.998 5.986-1.995-1.995 5.986z" fill="#000"/></svg>