<svg width="24" height="24" fill="none" xmlns="http://www.w3.org/2000/svg"><path d="M15.644 11.404c.012-1.492-1.22-2.86-2.744-3.049l-.1-.015a1.384 1.384 0 00-.232-.026c-.313 0-.396.226-.418.361a.43.43 0 00.06.329c.104.145.286.17.432.192.043.006.084.011.117.02 1.37.315 1.833.812 2.058 2.215.006.035.008.077.01.122.01.167.03.516.395.516.03 0 .062-.002.096-.008.339-.053.328-.372.323-.525a.813.813 0 01.002-.131v-.001z" fill="#000"/><path d="M12.48 7.807c.04.003.08.006.111.01 2.25.359 3.286 1.459 3.573 3.8.005.04.005.089.006.14.003.184.01.564.405.572h.012a.382.382 0 00.294-.115c.123-.133.115-.33.108-.49-.002-.038-.004-.075-.003-.107.028-2.395-1.98-4.567-4.298-4.647h-.028a.189.189 0 01-.027.003c-.023 0-.052-.002-.082-.004a1.459 1.459 0 00-.12-.006c-.369 0-.439.27-.448.432-.02.373.33.4.497.412zm3.575 6.837a6.91 6.91 0 01-.143-.115c-.246-.204-.508-.392-.76-.574a45.318 45.318 0 01-.158-.114c-.324-.234-.615-.35-.89-.35-.37 0-.693.213-.96.63-.118.184-.262.274-.438.274a.847.847 0 01-.353-.091c-1.045-.49-1.792-1.24-2.219-2.23-.206-.48-.14-.792.224-1.047.206-.144.59-.413.563-.928-.03-.585-1.28-2.345-1.808-2.545a.996.996 0 00-.698-.002c-.605.21-1.04.58-1.257 1.067-.21.472-.2 1.025.028 1.6.657 1.667 1.58 3.119 2.746 4.317 1.14 1.173 2.542 2.133 4.166 2.855.146.065.3.1.412.126l.095.024a.159.159 0 00.04.006h.013c.764 0 1.681-.72 1.963-1.542.247-.72-.204-1.075-.566-1.36v-.001zM12.818 9.71c-.13.003-.403.01-.499.296-.044.134-.039.25.016.345.081.14.237.183.378.206.512.085.776.378.828.92.025.254.19.43.402.43.016 0 .032 0 .048-.002.255-.032.378-.225.367-.575.004-.366-.18-.78-.496-1.11-.316-.332-.697-.52-1.044-.51z" fill="#000"/><path d="M6 4a2 2 0 00-2 2v12a2 2 0 002 2h12a2 2 0 002-2V6a2 2 0 00-2-2H6zm0-2h12a4 4 0 014 4v12a4 4 0 01-4 4H6a4 4 0 01-4-4V6a4 4 0 014-4z" fill="#000"/></svg>