<svg width="24" height="24" fill="none" xmlns="http://www.w3.org/2000/svg"><path d="M16.017 2h-8.07A5.954 5.954 0 002 7.948v8.07a5.954 5.954 0 005.948 5.947h8.07a5.954 5.954 0 005.947-5.948v-8.07A5.954 5.954 0 0016.017 2zm3.94 14.017a3.94 3.94 0 01-3.94 3.94h-8.07a3.94 3.94 0 01-3.939-3.94v-8.07a3.94 3.94 0 013.94-3.939h8.07a3.94 3.94 0 013.939 3.94v8.07-.001z" fill="#fff"/><path d="M11.982 6.819a5.17 5.17 0 00-5.162 5.163 5.17 5.17 0 005.163 5.164 5.17 5.17 0 005.164-5.164 5.17 5.17 0 00-5.165-5.162v-.001zm0 8.319a3.155 3.155 0 110-6.31 3.155 3.155 0 010 6.31zm5.174-7.043a1.237 1.237 0 100-2.474 1.237 1.237 0 000 2.474z" fill="#fff"/></svg>