<svg width="62" height="62" viewBox="0 0 62 62" fill="none" xmlns="http://www.w3.org/2000/svg">
<path d="M31 54.25C43.8406 54.25 54.25 43.8406 54.25 31C54.25 18.1594 43.8406 7.75 31 7.75C18.1594 7.75 7.75 18.1594 7.75 31C7.75 43.8406 18.1594 54.25 31 54.25Z" stroke="black" stroke-width="4" stroke-linecap="round" stroke-linejoin="round"/>
<path d="M9.29999 23.25H52.7" stroke="black" stroke-width="4" stroke-linecap="round" stroke-linejoin="round"/>
<path d="M9.29999 38.75H52.7" stroke="black" stroke-width="4" stroke-linecap="round" stroke-linejoin="round"/>
<path d="M29.7083 7.75C25.3563 14.724 23.049 22.7795 23.049 31C23.049 39.2205 25.3563 47.276 29.7083 54.25" stroke="black" stroke-width="4" stroke-linecap="round" stroke-linejoin="round"/>
<path d="M32.2917 7.75C36.6437 14.724 38.951 22.7795 38.951 31C38.951 39.2205 36.6437 47.276 32.2917 54.25" stroke="black" stroke-width="4" stroke-linecap="round" stroke-linejoin="round"/>
</svg>
