<svg width="62" height="62" viewBox="0 0 62 62" fill="none" xmlns="http://www.w3.org/2000/svg">
<path d="M18.0834 49.0833C20.9368 49.0833 23.25 46.7701 23.25 43.9167C23.25 41.0632 20.9368 38.75 18.0834 38.75C15.2299 38.75 12.9167 41.0632 12.9167 43.9167C12.9167 46.7701 15.2299 49.0833 18.0834 49.0833Z" stroke="black" stroke-width="4" stroke-linecap="round" stroke-linejoin="round"/>
<path d="M43.9167 49.0833C46.7701 49.0833 49.0833 46.7701 49.0833 43.9167C49.0833 41.0632 46.7701 38.75 43.9167 38.75C41.0632 38.75 38.75 41.0632 38.75 43.9167C38.75 46.7701 41.0632 49.0833 43.9167 49.0833Z" stroke="black" stroke-width="4" stroke-linecap="round" stroke-linejoin="round"/>
<path d="M12.9167 43.9166H7.75002V33.5833M5.16669 12.9166H33.5834V43.9166M23.25 43.9166H38.75M49.0834 43.9166H54.25V28.4166M54.25 28.4166H33.5834M54.25 28.4166L46.5 15.5H33.5834" stroke="black" stroke-width="4" stroke-linecap="round" stroke-linejoin="round"/>
<path d="M7.75 23.25H18.0833" stroke="black" stroke-width="4" stroke-linecap="round" stroke-linejoin="round"/>
</svg>
