<svg width="62" height="62" viewBox="0 0 62 62" fill="none" xmlns="http://www.w3.org/2000/svg">
<path d="M25.389 23.6943C23.944 22.2488 22.1028 21.2644 20.0982 20.8654C18.0937 20.4664 16.0158 20.6709 14.1275 21.4529C12.2391 22.2349 10.6251 23.5594 9.4895 25.2587C8.35392 26.9581 7.7478 28.9561 7.7478 31C7.7478 33.0438 8.35392 35.0418 9.4895 36.7412C10.6251 38.4406 12.2391 39.765 14.1275 40.547C16.0158 41.329 18.0937 41.5335 20.0982 41.1345C22.1028 40.7356 23.944 39.7511 25.389 38.3056C27.6819 36.2262 29.5825 33.7517 31 31C32.4176 28.2483 34.3181 25.7737 36.611 23.6943C38.056 22.2488 39.8972 21.2644 41.9018 20.8654C43.9064 20.4664 45.9842 20.6709 47.8726 21.4529C49.7609 22.2349 51.3749 23.5594 52.5105 25.2587C53.6461 26.9581 54.2522 28.9561 54.2522 31C54.2522 33.0438 53.6461 35.0418 52.5105 36.7412C51.3749 38.4406 49.7609 39.765 47.8726 40.547C45.9842 41.329 43.9064 41.5335 41.9018 41.1345C39.8972 40.7356 38.056 39.7511 36.611 38.3056C34.3181 36.2262 32.4176 33.7517 31 31C29.5825 28.2483 27.6819 25.7737 25.389 23.6943" stroke="black" stroke-width="4" stroke-linecap="round" stroke-linejoin="round"/>
</svg>
